<?xml version="1.0" standalone="no"?>
<!DOCTYPE svg PUBLIC "-//W3C//DTD SVG 20010904//EN"
 "http://www.w3.org/TR/2001/REC-SVG-20010904/DTD/svg10.dtd">
<svg version="1.0" xmlns="http://www.w3.org/2000/svg"
 width="35" height="40" viewBox="0 0 1168.000000 960.000000"
 preserveAspectRatio="xMidYMid meet">

<g transform="translate(0.000000,960.000000) scale(0.100000,-0.100000)"
fill="#000000" stroke="none">
<path d="M6033 8918 c-6 -14 -15 -47 -18 -74 -4 -27 -11 -53 -15 -59 -4 -5
-11 -30 -15 -55 -4 -25 -11 -49 -15 -55 -4 -5 -13 -37 -20 -70 -7 -33 -16 -64
-20 -70 -4 -5 -11 -26 -15 -45 -4 -19 -11 -39 -15 -45 -4 -5 -19 -49 -34 -97
-15 -49 -32 -90 -37 -94 -5 -3 -9 -12 -9 -21 0 -8 -7 -31 -16 -51 -9 -21 -25
-55 -34 -77 -32 -72 -71 -149 -103 -206 -18 -31 -40 -72 -51 -90 -10 -19 -25
-38 -32 -42 -8 -4 -14 -14 -14 -21 0 -18 -153 -179 -221 -234 -104 -82 -159
-122 -169 -122 -5 0 -10 -5 -10 -10 0 -6 -10 -15 -22 -20 -13 -6 -50 -28 -83
-50 -33 -22 -71 -45 -85 -51 -14 -6 -32 -16 -40 -24 -8 -7 -33 -23 -55 -35
-113 -63 -185 -103 -235 -128 -30 -15 -56 -30 -58 -34 -2 -5 -8 -8 -14 -8 -5
0 -60 -24 -121 -54 -62 -29 -149 -71 -194 -92 -84 -39 -99 -58 -68 -84 8 -6
17 -22 21 -33 4 -12 18 -40 33 -62 14 -22 56 -101 93 -175 61 -124 85 -174
125 -270 8 -19 20 -48 28 -65 31 -72 55 -135 55 -147 1 -7 9 -31 20 -53 11
-22 19 -50 20 -62 0 -12 4 -24 9 -27 4 -3 14 -34 21 -68 7 -35 16 -67 19 -73
6 -11 25 -101 42 -205 15 -87 8 -405 -9 -422 -6 -6 -12 -18 -12 -26 0 -7 -11
-38 -25 -68 -14 -30 -25 -59 -25 -64 0 -6 -4 -10 -10 -10 -5 0 -10 -6 -10 -13
0 -25 -135 -146 -203 -181 -37 -20 -73 -36 -80 -36 -6 0 -24 -6 -38 -14 -45
-23 -188 -38 -364 -38 -223 0 -348 17 -460 62 -11 4 -40 15 -65 24 -77 27
-196 104 -274 177 -68 63 -166 193 -166 219 0 5 -4 10 -8 10 -10 0 -59 118
-83 200 -5 19 -14 44 -19 55 -9 19 -19 71 -40 205 -11 73 -11 456 0 545 5 39
14 108 20 155 6 47 15 94 20 105 5 11 12 45 16 75 3 30 10 60 14 65 5 6 11 31
15 58 l7 47 -48 0 c-26 0 -73 4 -103 10 -31 5 -99 14 -151 20 -52 5 -138 16
-190 24 -52 8 -140 22 -195 31 -55 8 -107 19 -115 24 -9 5 -40 12 -70 16 -30
4 -59 11 -65 15 -5 4 -39 13 -75 20 -36 6 -69 15 -75 20 -5 4 -29 11 -52 15
-24 4 -45 10 -48 15 -3 4 -22 11 -42 15 -21 4 -42 10 -48 15 -5 4 -23 10 -40
14 -27 7 -61 21 -152 62 -17 8 -35 14 -40 14 -19 0 -370 183 -425 221 -14 11
-28 19 -31 19 -6 0 -166 104 -183 118 -18 16 -55 34 -60 29 -3 -2 2 -17 11
-33 27 -52 115 -243 115 -250 0 -9 43 -98 51 -104 4 -3 10 -16 14 -30 4 -14
29 -70 55 -126 27 -55 52 -113 55 -127 4 -15 11 -27 16 -27 5 0 9 -5 9 -11 0
-14 12 -40 140 -314 16 -33 38 -81 49 -107 49 -113 65 -147 96 -213 74 -159
94 -202 115 -250 26 -59 69 -153 116 -251 19 -39 34 -74 34 -78 0 -5 17 -45
39 -89 104 -221 121 -257 121 -262 0 -4 16 -41 36 -83 78 -165 103 -219 124
-267 37 -84 92 -206 153 -335 58 -124 77 -168 77 -179 0 -6 4 -11 9 -11 5 0
12 -12 15 -26 4 -14 29 -71 55 -127 27 -56 52 -113 56 -127 4 -14 10 -27 14
-30 8 -6 51 -95 51 -105 0 -4 18 -46 41 -93 62 -132 85 -182 109 -237 21 -48
41 -90 115 -250 18 -38 43 -92 55 -120 28 -63 50 -112 88 -195 33 -70 79 -172
119 -260 45 -101 61 -134 107 -232 25 -54 46 -101 46 -104 0 -10 44 -98 52
-104 3 -3 10 -19 14 -35 4 -17 25 -63 46 -104 21 -41 38 -82 38 -92 0 -10 6
-19 13 -21 9 -4 13 -129 15 -574 l2 -570 35 -17 c81 -38 102 -47 150 -58 28
-7 55 -15 60 -19 6 -4 29 -11 52 -15 24 -4 45 -10 48 -15 2 -4 41 -13 85 -21
44 -7 80 -16 80 -20 0 -4 29 -10 65 -14 36 -3 67 -10 70 -15 2 -4 35 -11 72
-15 38 -4 75 -11 83 -15 8 -4 69 -13 135 -20 66 -6 129 -15 140 -20 11 -5 74
-14 140 -20 66 -5 165 -14 220 -20 484 -45 1426 -45 2160 0 653 41 1295 110
1800 194 50 9 137 22 195 31 58 8 112 19 120 24 9 5 44 12 78 16 34 4 65 11
68 16 3 5 17 9 32 9 15 0 32 4 38 8 8 5 9 192 3 676 -8 652 -8 670 11 712 11
24 20 46 20 49 0 4 14 36 30 72 17 35 30 66 30 68 0 3 12 30 26 62 14 32 32
74 40 93 8 19 22 47 30 62 7 14 14 32 14 38 0 7 9 31 19 54 11 23 28 61 39 86
11 25 27 61 36 82 9 20 16 41 16 47 0 6 5 11 10 11 6 0 10 8 10 17 0 15 11 43
61 149 10 23 19 46 19 52 0 6 7 23 15 39 8 15 21 44 29 63 8 19 26 61 40 93
14 32 26 60 26 63 0 3 11 29 24 57 44 94 66 146 66 153 0 4 9 25 19 48 31 67
61 135 61 140 0 6 58 135 74 166 8 14 17 40 21 58 3 17 10 32 15 32 4 0 11 12
15 28 3 15 15 47 26 72 22 49 27 59 59 135 32 76 37 86 59 135 11 25 23 57 26
72 4 16 11 28 15 28 4 0 11 12 15 27 3 16 13 42 20 58 7 17 27 61 44 98 17 38
31 70 31 73 0 5 30 73 61 140 10 23 19 45 19 49 0 4 9 26 19 49 42 90 61 133
61 138 0 4 14 37 31 75 17 37 37 84 45 103 8 19 21 48 29 63 8 16 15 33 15 38
0 6 12 36 26 67 29 64 34 77 64 147 46 109 77 181 101 231 10 23 19 45 19 49
0 4 6 21 14 38 8 18 28 63 45 100 17 38 31 70 31 72 0 4 25 61 66 152 8 17 14
34 14 38 0 6 23 61 55 130 15 33 54 123 95 220 4 11 17 40 29 65 11 25 23 57
26 73 4 15 11 27 15 27 5 0 12 15 15 33 4 17 13 43 21 57 7 14 23 48 34 75 42
100 77 179 101 231 10 23 19 45 19 50 1 5 9 27 20 49 10 22 17 41 15 43 -1 2
-60 -35 -130 -82 -69 -48 -131 -86 -136 -86 -5 0 -9 -4 -9 -8 0 -5 -10 -14
-22 -20 -13 -6 -39 -22 -59 -34 -239 -150 -553 -318 -634 -339 -22 -6 -49 -15
-60 -20 -28 -12 -112 -28 -235 -46 -58 -8 -112 -18 -121 -23 -8 -4 -60 -11
-115 -15 -54 -3 -108 -10 -119 -15 -18 -8 -150 -21 -378 -37 l-69 -5 7 -61 c4
-34 11 -68 16 -77 8 -14 20 -103 39 -280 23 -225 3 -578 -41 -735 -38 -136
-87 -274 -100 -285 -3 -3 -9 -14 -13 -25 -3 -11 -22 -44 -41 -73 -19 -30 -35
-55 -35 -57 0 -6 -57 -72 -105 -120 -86 -86 -133 -119 -250 -174 -49 -24 -97
-46 -106 -51 -9 -5 -34 -12 -55 -16 -22 -3 -43 -10 -49 -14 -20 -16 -214 -32
-375 -32 -166 0 -327 15 -344 33 -6 5 -18 9 -29 9 -18 0 -78 24 -155 63 -95
48 -242 230 -242 300 0 9 -4 17 -9 17 -13 0 -34 154 -34 245 0 83 19 259 30
285 4 8 12 40 19 70 19 88 44 174 54 192 6 10 10 23 10 30 1 7 9 31 20 53 11
22 19 45 20 51 0 10 10 36 50 129 72 170 211 445 263 520 15 22 27 43 27 47 0
4 14 27 30 51 17 25 30 49 30 53 0 5 -28 19 -63 32 -34 13 -71 27 -82 32 -93
41 -115 50 -125 50 -7 0 -24 6 -38 14 -47 24 -119 56 -126 56 -25 0 -420 198
-496 248 -14 9 -36 22 -50 29 -30 15 -52 29 -106 68 -23 17 -55 39 -70 50 -62
43 -128 113 -177 185 -54 81 -151 268 -162 313 -4 15 -11 27 -16 27 -5 0 -9 8
-9 18 -1 9 -9 35 -20 57 -11 22 -20 47 -20 55 0 8 -6 27 -14 42 -8 15 -17 42
-21 60 -4 18 -11 38 -15 43 -4 6 -11 26 -15 45 -4 19 -11 41 -16 50 -8 14 -23
65 -51 175 -5 22 -14 49 -18 60 -5 11 -15 49 -21 85 -7 36 -15 70 -19 75 -5 6
-11 33 -15 60 -4 28 -10 55 -14 60 -3 6 -10 35 -16 65 -10 52 -10 53 -22 28z
m-44 -2784 c17 -25 31 -49 31 -53 0 -5 7 -11 15 -15 8 -3 15 -10 15 -17 0 -6
14 -28 30 -49 17 -21 30 -41 30 -45 0 -5 11 -23 25 -41 14 -18 25 -35 25 -39
0 -3 5 -11 11 -18 18 -22 119 -180 119 -188 0 -4 6 -12 13 -16 6 -4 17 -17 24
-28 49 -81 64 -113 69 -149 4 -23 10 -45 14 -51 5 -5 11 -37 15 -70 4 -33 10
-64 14 -70 3 -5 14 -50 23 -100 35 -190 40 -211 48 -230 11 -26 18 -85 10 -85
-6 0 -12 -4 -96 -70 -29 -22 -55 -40 -59 -40 -4 0 -26 -16 -49 -35 -24 -19
-46 -35 -50 -35 -4 0 -14 -7 -23 -15 -24 -24 -249 -185 -280 -201 -7 -3 -37
15 -66 40 -30 25 -58 46 -62 46 -4 0 -29 18 -55 40 -26 22 -52 40 -58 40 -6 0
-12 3 -14 8 -5 11 -172 138 -262 198 -33 22 -37 29 -31 52 6 24 25 137 58 342
7 41 15 80 19 85 3 6 10 43 13 83 4 39 12 72 16 72 5 0 9 13 9 29 0 15 9 40
20 54 11 14 20 30 20 36 0 7 7 14 15 17 8 4 15 11 15 17 0 5 11 25 25 43 14
18 25 36 25 39 0 4 14 24 30 45 17 21 30 41 30 45 0 4 16 30 35 56 19 27 35
52 35 55 0 3 14 23 30 44 17 21 30 41 30 45 0 3 11 21 25 39 14 18 25 38 25
44 0 7 3 12 8 12 4 0 18 18 32 40 13 22 25 40 26 40 2 0 16 -20 33 -46z m13
-2051 c18 -30 43 -72 55 -92 13 -20 25 -44 29 -53 3 -10 9 -18 13 -18 4 0 15
-15 24 -32 10 -18 25 -45 35 -59 27 -42 137 -219 156 -254 6 -11 25 -40 41
-65 16 -25 34 -53 40 -62 27 -44 82 -135 100 -164 38 -61 90 -145 100 -163 6
-9 25 -40 43 -67 17 -28 32 -62 32 -75 0 -14 4 -29 9 -34 4 -6 14 -53 21 -105
7 -52 16 -99 20 -105 4 -5 11 -37 15 -69 4 -33 11 -66 15 -75 5 -9 14 -45 19
-81 28 -174 43 -256 51 -271 4 -9 11 -42 15 -75 4 -32 11 -63 15 -69 4 -5 13
-53 20 -105 7 -52 17 -101 23 -108 8 -11 2 -22 -29 -47 -21 -19 -43 -34 -48
-35 -4 0 -36 -22 -70 -50 -70 -57 -65 -53 -209 -163 -60 -45 -116 -86 -125
-92 -19 -12 -131 -99 -153 -120 -9 -8 -19 -15 -23 -15 -4 0 -33 -20 -64 -45
-119 -95 -171 -135 -177 -135 -4 0 -13 -7 -21 -15 -9 -8 -19 -15 -24 -15 -5 0
-15 7 -24 15 -8 8 -17 15 -21 15 -3 0 -34 23 -68 50 -85 70 -208 167 -232 185
-11 9 -52 41 -92 73 -40 31 -104 82 -144 112 -40 30 -83 65 -96 78 -13 12 -26
22 -29 22 -3 0 -34 25 -69 55 -34 30 -67 55 -72 55 -5 0 -22 13 -37 29 -23 24
-27 35 -22 58 4 15 12 62 17 103 6 41 14 84 19 95 8 19 12 44 48 300 9 66 19
122 23 125 3 3 10 41 14 85 4 44 10 85 15 90 4 6 13 63 20 128 8 65 17 120 22
123 4 3 8 19 8 36 0 29 15 56 92 170 10 15 18 30 18 33 0 3 15 27 33 53 18 26
36 54 40 62 4 8 17 31 29 51 13 20 43 69 68 108 25 40 52 83 60 96 13 21 47
75 105 170 11 18 36 58 55 90 19 31 40 64 45 73 6 10 24 37 40 62 44 68 65
103 71 123 4 9 9 17 13 17 4 0 15 16 25 35 23 42 31 37 78 -42z"/>
</g>
</svg>
