<svg xmlns="http://www.w3.org/2000/svg" version="1.0" width="35" height="40" viewBox="0 0 1990.000000 1724.000000" preserveAspectRatio="xMidYMid meet">

<g transform="translate(0.000000,1724.000000) scale(0.100000,-0.100000)" fill="#000000" stroke="none">
<path d="M1352 16693 c-11 -19 -75 -321 -111 -518 -199 -1081 -181 -2077 50 -2830 217 -704 680 -1265 1301 -1571 597 -296 1313 -375 2110 -234 92 17 180 30 197 30 l29 0 6 -82 c19 -249 27 -552 38 -1498 12 -1091 7 -1771 -27 -3235 -40 -1707 -45 -2517 -20 -2975 23 -426 37 -523 110 -775 165 -568 460 -1056 891 -1476 330 -321 724 -569 1174 -742 361 -138 838 -258 1100 -277 134 -10 2297 -24 5857 -39 1971 -8 2230 -8 2295 6 151 31 270 96 395 216 172 165 296 406 352 687 42 209 46 307 46 1130 0 847 -1 861 -56 1170 -78 434 -156 729 -299 1126 l-11 31 -707 7 c-716 7 -1478 20 -1897 32 l-230 7 7 141 c8 168 23 1152 43 2786 29 2371 13 4438 -41 4995 -26 272 -148 776 -278 1145 -147 418 -226 609 -391 935 -243 483 -468 799 -796 1121 -310 302 -612 493 -964 608 l-140 45 -1400 11 c-770 5 -2604 14 -4075 20 -1471 5 -3097 12 -3612 15 -905 6 -937 6 -946 -12z m1238 -1482 c106 -16 297 -31 600 -46 486 -25 610 -35 672 -56 286 -95 540 -465 713 -1035 95 -313 193 -788 230 -1116 l6 -57 -53 -15 c-87 -26 -326 -74 -433 -87 -135 -18 -605 -18 -705 0 -465 80 -800 314 -985 686 -107 216 -181 512 -217 870 -23 229 -11 820 18 867 4 6 23 8 48 4 22 -3 70 -10 106 -15z m8950 -2362 l0 -492 -2052 8 c-1129 4 -2054 8 -2055 9 -7 6 -7 936 0 943 16 15 428 19 2265 21 l1842 2 0 -491z m120 -2819 l0 -490 -2060 0 -2060 0 0 490 0 490 2060 0 2060 0 0 -490z m0 -2920 l0 -490 -2060 0 -2060 0 0 490 0 490 2060 0 2060 0 0 -490z m190 -3400 c778 -11 1865 -27 2415 -35 1505 -22 1614 -25 1619 -44 28 -97 62 -386 78 -653 23 -412 -27 -905 -113 -1095 l-28 -63 -573 0 c-315 0 -805 -5 -1088 -10 -903 -17 -1991 -30 -3213 -37 l-1189 -6 6 64 c3 35 14 143 23 239 26 253 25 1060 0 1385 -10 127 -22 244 -26 260 l-8 30 341 -7 c188 -4 978 -16 1756 -28z"/>
</g>
</svg>