<svg xmlns="http://www.w3.org/2000/svg" width="35" height="40" viewBox="0 0 1228 1252" version="1.1">
	<path d="M 672 115.625 C 563.634 121.095, 457.904 162.610, 355 240.095 C 245.529 322.525, 180.164 419.865, 161.549 528.180 C 157.068 554.250, 156.499 561.976, 156.517 596.500 C 156.536 630.796, 157.444 642.797, 162.079 669.944 C 176.605 755.039, 216.379 845.895, 275.045 928 C 287.867 945.944, 305.589 968.500, 306.866 968.500 C 307.306 968.500, 336.582 939.870, 371.925 904.877 L 436.185 841.255 433.521 833.877 C 425.926 812.850, 418.634 781.321, 414.813 753 C 411.851 731.036, 411.594 687.350, 414.313 668 C 424.772 593.586, 459.865 537.314, 520.500 497.726 C 559.897 472.005, 619.274 449.070, 671 439.595 C 696.244 434.971, 712.398 433.606, 742 433.595 C 771.511 433.584, 786.085 434.837, 812 439.611 C 850.366 446.679, 892.767 461.732, 919.268 477.693 L 925.037 481.167 930.321 476.334 C 933.227 473.675, 974.375 434.882, 1021.761 390.126 L 1107.918 308.751 1101.510 301.626 C 1089.632 288.415, 1063.510 264.785, 1040.723 246.637 C 947.894 172.705, 842.778 127.684, 739.278 117.527 C 723.837 116.012, 685.697 114.934, 672 115.625 M 667 159.578 C 665.075 159.795, 657.875 160.467, 651 161.070 C 625.374 163.320, 593.416 169.712, 564.500 178.371 C 494.908 199.211, 420.215 241.155, 353.959 296.600 C 230.785 399.675, 180.851 523.604, 205.519 665 C 216.011 725.143, 240.778 789.408, 277.778 852.500 C 286.873 868.008, 310.151 903, 311.373 903 C 311.934 903, 328.985 886.442, 349.265 866.205 L 386.136 829.410 383.089 817.955 C 378.894 802.181, 373.461 774.105, 371.586 758.500 C 362.684 684.447, 372.422 620.728, 401.157 565 C 421.743 525.077, 453.154 490.337, 492.398 464.090 C 531.916 437.659, 584.125 415.315, 636.500 402.419 C 727.167 380.094, 823.780 387.285, 905.715 422.457 L 918.329 427.872 942.915 404.610 C 956.437 391.816, 984.825 365.008, 1006 345.036 C 1027.175 325.064, 1044.632 308.388, 1044.794 307.979 C 1045.153 307.072, 1028.045 292.219, 1012.169 279.653 C 956.402 235.513, 898.205 203.392, 837 182.971 C 804.798 172.226, 775.542 165.679, 741 161.488 C 728.305 159.947, 675.755 158.591, 667 159.578 M 659.564 491.564 C 602.709 499.161, 549.696 525.948, 507.480 568.410 C 481.829 594.211, 464.432 620.468, 452.608 651.227 C 428.762 713.259, 437.012 779.989, 475.575 837 C 479.854 843.325, 485.289 851.387, 487.653 854.917 C 492.697 862.444, 497.303 873.085, 500.167 883.825 C 502.860 893.921, 503.044 913.026, 500.558 924.500 C 498.655 933.286, 493.905 946.294, 489.221 955.545 C 475.069 983.493, 442.875 1018.461, 408.215 1043.529 C 403.740 1046.765, 400.181 1049.514, 400.305 1049.638 C 400.429 1049.762, 446.528 1036.957, 502.749 1021.182 L 604.967 992.500 605.234 956.061 L 605.500 919.622 637 910.871 C 654.325 906.059, 669.175 902.095, 670 902.062 C 671.137 902.018, 674.525 912.936, 684 947.174 L 696.500 992.345 851.404 1061.185 C 936.601 1099.047, 1006.459 1129.875, 1006.643 1129.690 C 1007.286 1129.048, 923.819 848.492, 922.663 847.411 C 922.024 846.812, 888.431 838.335, 848.013 828.574 C 807.596 818.812, 774.183 810.613, 773.763 810.354 C 773.344 810.094, 773 793.656, 773 773.824 C 773 739.978, 773.107 737.794, 774.750 738.218 C 775.712 738.467, 820.487 748.299, 874.250 760.069 L 972 781.469 972.001 813.984 L 972.002 846.500 1006.251 890.166 C 1025.088 914.183, 1040.607 933.726, 1040.738 933.595 C 1041.178 933.156, 1036.996 878.739, 1034.468 852 C 1028.159 785.278, 1019.825 730.848, 1010.430 695 C 1005.992 678.066, 987.390 622.184, 978.474 599 C 967.251 569.817, 950.002 531, 948.257 531 C 947.934 531, 933.998 535.725, 917.289 541.500 C 900.580 547.275, 886.522 552, 886.050 552 C 885.578 552, 879.861 548.691, 873.346 544.647 C 831.756 518.833, 782.854 500.341, 736.500 492.900 C 719.174 490.119, 675.993 489.369, 659.564 491.564 M 676.500 533.616 C 626.065 537.693, 580.200 558.967, 541.377 596.289 C 509.016 627.399, 489.737 663.171, 483.961 702.825 C 482.204 714.882, 483.256 741.947, 485.930 753.500 C 491.737 778.593, 499.720 795.669, 517.566 821.171 C 537.081 849.057, 546 875.072, 546 904.104 C 546 923.431, 542.629 941.029, 535.577 958.518 C 533.480 963.719, 532.610 966.999, 533.328 966.998 C 533.973 966.997, 540.575 965.265, 548 963.149 L 561.500 959.302 561.762 922.827 L 562.024 886.352 631.665 867.162 C 669.968 856.608, 701.436 848.102, 701.594 848.261 C 701.753 848.419, 708.852 873.669, 717.370 904.370 C 725.888 935.072, 733.067 960.400, 733.322 960.656 C 734.230 961.563, 937.507 1051.725, 937.892 1051.390 C 938.107 1051.203, 927.115 1013.320, 913.466 967.206 L 888.648 883.361 811.074 864.610 C 768.408 854.298, 732.712 845.636, 731.750 845.362 C 730.102 844.894, 730 840.174, 730 764.324 L 730 683.783 732.250 684.319 C 754.113 689.529, 974.221 737.113, 974.618 736.715 C 977.066 734.267, 959.436 673.747, 943.822 631 C 937.301 613.148, 926.914 586.700, 926.040 585.722 C 925.657 585.294, 914.732 588.595, 901.762 593.057 L 878.180 601.170 865.440 592.035 C 824.318 562.550, 775.173 542.681, 725.500 535.457 C 715.392 533.987, 685.708 532.872, 676.500 533.616 M 617.500 627.480 C 604.047 630.441, 593.638 636.303, 584.714 645.942 C 577.986 653.209, 574.823 658.574, 571.348 668.610 C 567.626 679.364, 567.351 695.873, 570.718 706.500 C 576.595 725.049, 590.413 739.635, 608.803 746.704 C 616.938 749.830, 633.384 750.954, 643.257 749.059 C 660.838 745.682, 678.011 732.320, 685.744 716 C 690.927 705.064, 692.077 699.999, 692.068 688.158 C 692.057 673.379, 688.814 663.099, 680.478 651.417 C 666.735 632.158, 640.883 622.332, 617.500 627.480 M 620.337 672.458 C 608.808 679.525, 609.371 698.341, 621.302 704.709 C 626.179 707.312, 635.585 707.056, 640.200 704.194 C 651.032 697.475, 651.708 681.218, 641.479 673.416 C 638.383 671.055, 636.556 670.493, 631.110 670.228 C 625.443 669.951, 623.906 670.270, 620.337 672.458 M 1.762 1251.707 C 3.006 1251.946, 4.806 1251.937, 5.762 1251.687 C 6.718 1251.437, 5.700 1251.241, 3.500 1251.252 C 1.300 1251.263, 0.518 1251.468, 1.762 1251.707 M 13.784 1251.738 C 16.689 1251.941, 21.189 1251.939, 23.784 1251.734 C 26.378 1251.528, 24 1251.363, 18.500 1251.365 C 13 1251.368, 10.878 1251.536, 13.784 1251.738 " stroke="none" fill="black" fill-rule="evenodd"/>
</svg>