<svg 
    xmlns="http://www.w3.org/2000/svg" 
    width="35" 
    height="40" 
    viewBox="0 0 1386 1156"
    version="1.1"
    className="svg_coins"
>
    <path
        d="M 27 577.462 L 27 1154.925 17.750 1155.255 L 8.500 1155.585 18.250 1155.792 L 28 1156 28 578 C 28 260.100, 27.775 0, 27.500 0 C 27.225 0, 27 259.858, 27 577.462 M 669.243 76.003 C 657.354 76.998, 649.905 78.355, 641.500 81.058 C 634.333 83.363, 626.835 84.770, 569.593 94.555 C 507.502 105.169, 492.173 108.836, 476.209 116.895 C 467.276 121.404, 451.347 132.409, 433.820 146.180 C 363.618 201.340, 348.328 213.387, 331.098 227.110 C 259.335 284.269, 242.460 306.919, 218.305 378.500 C 215.335 387.300, 206.445 415.200, 198.547 440.500 C 168.344 537.262, 165.460 549.505, 165.564 580.500 C 165.622 597.857, 165.905 600.840, 168.836 615 C 170.601 623.525, 176.507 647.600, 181.961 668.500 C 187.415 689.400, 196.658 725.538, 202.500 748.807 C 214.358 796.033, 219.628 812.680, 227.508 827.802 C 239.318 850.466, 250.170 863.183, 316.177 931.708 C 391.570 1009.978, 410.922 1024.172, 464.500 1040.501 C 476.737 1044.230, 575.475 1069.255, 592.899 1073.043 C 624.729 1079.963, 663.641 1085.764, 686 1086.921 C 715.893 1088.469, 750.853 1085.101, 795.500 1076.373 C 815.629 1072.438, 913.149 1048.331, 936.785 1041.448 C 974.723 1030.400, 996.437 1018.765, 1025 994.182 C 1049.385 973.194, 1131.833 888.274, 1155.162 860.117 C 1178.829 831.552, 1185.702 815.339, 1201.849 750 C 1206.810 729.925, 1215.350 696.400, 1220.826 675.500 C 1226.303 654.600, 1232.149 631.425, 1233.817 624 C 1245.219 573.268, 1242.937 558.130, 1206.159 440.500 C 1183.781 368.929, 1177.428 350.996, 1166.479 328.500 C 1147.921 290.373, 1127.384 269.121, 1052.168 210.213 C 1037.622 198.821, 1013.296 179.652, 998.111 167.615 C 952.884 131.768, 942.651 124.346, 929 117.490 C 910.955 108.426, 899.988 105.731, 837.330 94.967 C 776.048 84.438, 770.673 83.427, 763.093 81.005 C 750.412 76.953, 739.897 75.884, 709 75.506 C 692.775 75.307, 674.884 75.531, 669.243 76.003 M 701.500 234.661 C 676.792 235.610, 649.151 239.428, 626.316 245.045 C 613.454 248.209, 586.007 256.681, 584.846 257.845 C 584.487 258.205, 587.256 285.050, 591 317.500 C 594.744 349.950, 597.695 376.618, 597.557 376.763 C 597.420 376.907, 582.347 355.645, 564.061 329.513 C 545.776 303.381, 530.666 282, 530.485 282 C 529.449 282, 505.609 295.900, 494.690 302.870 C 422.519 348.939, 369.935 405.526, 344.028 465 C 341.273 471.325, 339.014 477.207, 339.009 478.072 C 339.004 479.008, 359.231 494.095, 389.075 515.414 C 416.616 535.087, 439.003 551.295, 438.825 551.430 C 438.646 551.565, 412.738 549.423, 381.251 546.670 C 349.764 543.917, 323.703 541.963, 323.339 542.328 C 322.047 543.620, 321.731 583.832, 322.912 596.676 C 328.790 660.583, 353.626 724.440, 398.147 790.113 C 407.566 804.008, 426.792 828.923, 430.415 831.930 C 431.926 833.183, 432.777 832.688, 438.304 827.341 C 443.071 822.730, 505.370 763.154, 522.446 746.878 L 525.392 744.070 522.263 734.785 C 510.584 700.133, 505.601 659.911, 509.059 628.211 C 515.892 565.572, 548.634 520.399, 608.500 491.013 C 642.203 474.469, 676.356 464.183, 713.500 459.390 C 730.898 457.144, 764.886 457.145, 782.334 459.390 C 815.440 463.651, 848.147 473.469, 872.851 486.562 L 881.203 490.988 886.559 486.244 C 889.504 483.635, 919.325 456.525, 952.826 426 C 1003.010 380.275, 1013.582 370.198, 1012.854 368.787 C 1011.535 366.234, 987.147 344.130, 974 333.572 C 908.226 280.753, 834.356 247.730, 759.139 237.521 C 749.178 236.169, 712.208 233.699, 709.500 234.205 C 708.950 234.308, 705.350 234.513, 701.500 234.661 M 685 500.578 C 624.706 510.070, 569.835 549.041, 544.174 600.597 C 533.996 621.046, 529.735 638.982, 529.707 661.500 C 529.668 691.824, 538.155 716.573, 558.396 745.158 C 571.719 763.974, 575.403 773.642, 575.291 789.500 C 575.213 800.537, 573.172 808.725, 567.564 820.500 C 557.425 841.790, 535.386 865.823, 508.587 884.811 C 504.746 887.532, 503.345 888.998, 504.587 888.994 C 505.639 888.991, 538.450 880.299, 577.500 869.679 L 648.500 850.369 648.767 824.832 L 649.033 799.294 673.529 792.993 C 687.001 789.527, 698.165 786.873, 698.337 787.096 C 698.509 787.318, 702.697 801.589, 707.644 818.808 L 716.640 850.116 828.922 898.122 C 890.678 924.526, 941.419 945.914, 941.681 945.653 C 942.234 945.099, 882.202 749.817, 881.183 748.856 C 880.807 748.502, 857.100 742.691, 828.500 735.943 C 799.900 729.195, 776.155 723.379, 775.732 723.019 C 775.310 722.659, 775.085 711.113, 775.232 697.361 L 775.500 672.357 846.500 687.428 L 917.500 702.500 917.769 725.288 L 918.038 748.076 942.637 778.788 L 967.237 809.500 966.550 800 C 961.314 727.598, 953.268 670.716, 943.534 637.275 C 935.916 611.105, 918.424 565.162, 906.991 541.294 L 900.187 527.088 877.868 534.544 C 865.593 538.645, 855.044 542, 854.425 542 C 853.807 542, 849.070 539.445, 843.900 536.322 C 818.274 520.842, 785.224 508.347, 754 502.333 C 742.402 500.099, 737.259 499.687, 717.500 499.408 C 700.608 499.169, 691.977 499.480, 685 500.578 M 658 594.433 C 644.927 598.076, 634.213 607.132, 628.338 619.504 C 625.305 625.890, 624.666 628.447, 624.241 635.904 C 623.393 650.777, 627.721 662.677, 637.541 672.472 C 663.047 697.914, 706.290 685.698, 715.469 650.458 C 721.589 626.961, 707.624 602.220, 684.145 594.964 C 676.847 592.709, 665.047 592.469, 658 594.433 M 1.762 1155.707 C 3.006 1155.946, 4.806 1155.937, 5.762 1155.687 C 6.718 1155.437, 5.700 1155.241, 3.500 1155.252 C 1.300 1155.263, 0.518 1155.468, 1.762 1155.707 "
        stroke="none"
        fill="black"
        fillRule="evenodd"
    />
</svg>