<?xml version="1.0" standalone="no"?>
<!DOCTYPE svg PUBLIC "-//W3C//DTD SVG 20010904//EN"
 "http://www.w3.org/TR/2001/REC-SVG-20010904/DTD/svg10.dtd">
<svg version="1.0" xmlns="http://www.w3.org/2000/svg"
 width="35" height="40" viewBox="0 0 1048.000000 854.000000"
 preserveAspectRatio="xMidYMid meet">

<g transform="translate(0.000000,854.000000) scale(0.100000,-0.100000)"
fill="#000000" stroke="none">
<path d="M5296 7925 c-10 -53 -104 -396 -115 -420 -5 -11 -39 -108 -75 -216
-67 -202 -110 -304 -163 -380 -64 -92 -173 -202 -301 -303 -128 -102 -131
-106 -110 -119 40 -24 246 -136 423 -229 94 -49 173 -93 177 -96 6 -7 -90
-353 -145 -522 -51 -155 -181 -518 -212 -590 -161 -371 -228 -485 -329 -553
-37 -26 -47 -28 -100 -24 -81 7 -183 60 -309 159 -192 153 -479 462 -734 790
-63 82 -118 150 -122 153 -5 2 -11 -33 -15 -78 -35 -441 -144 -805 -296 -995
-50 -63 -150 -135 -208 -152 -53 -14 -159 -12 -223 4 -64 17 -210 94 -300 158
-144 101 -398 363 -534 548 l-36 49 65 133 c89 184 216 465 216 477 0 15 1 15
-82 -16 -66 -25 -86 -28 -203 -28 -120 0 -138 3 -235 34 -163 52 -262 108
-381 218 -78 73 -194 211 -244 292 -21 34 -39 60 -41 59 -3 -4 100 -358 125
-428 11 -30 59 -185 106 -345 47 -159 110 -366 140 -460 29 -93 79 -258 110
-365 31 -107 74 -247 95 -310 21 -63 69 -218 105 -345 37 -126 84 -282 105
-346 21 -64 75 -241 120 -395 45 -153 92 -309 105 -347 14 -37 63 -199 110
-360 47 -160 101 -337 120 -392 19 -55 64 -203 101 -330 36 -126 81 -275 100
-330 31 -93 178 -585 204 -685 7 -25 15 -49 19 -55 4 -5 21 -54 37 -108 l28
-97 2346 -1 c1290 -1 2621 -2 2958 -3 338 0 618 2 623 5 6 3 39 109 74 235 35
126 80 281 99 344 19 63 62 216 96 340 34 124 77 272 95 330 19 58 54 182 80
275 92 338 127 461 141 500 8 22 60 200 115 395 244 866 308 1090 332 1165 14
44 53 181 87 305 34 124 75 270 92 325 16 55 77 267 134 470 57 204 108 380
113 392 12 26 132 456 138 493 3 20 0 18 -15 -11 -36 -69 -81 -125 -158 -199
-94 -90 -152 -128 -302 -203 -164 -83 -234 -102 -367 -102 -124 0 -186 16
-255 66 l-41 30 21 -42 c12 -22 40 -71 62 -107 23 -37 97 -159 164 -271 l123
-204 -28 -36 c-45 -56 -316 -319 -416 -402 -130 -109 -216 -169 -340 -236
-126 -69 -187 -91 -266 -100 -164 -17 -289 85 -393 322 -108 246 -188 574
-230 943 -8 68 -16 126 -18 128 -3 2 -15 -15 -27 -39 -55 -99 -247 -394 -361
-553 -146 -202 -225 -298 -365 -439 -109 -110 -143 -137 -212 -173 -92 -48
-149 -59 -210 -43 -120 32 -248 203 -385 515 -22 50 -48 110 -59 133 -31 68
-96 256 -155 448 -30 99 -59 189 -64 200 -16 34 -90 318 -92 355 -3 34 -3 35
107 93 61 32 155 85 210 117 55 32 141 81 192 107 l91 49 -105 79 c-326 244
-414 385 -573 915 -22 74 -45 142 -50 152 -5 9 -27 83 -50 164 -22 81 -42 149
-44 151 -2 2 -7 -12 -10 -32z m135 -4031 l314 -355 48 -132 c27 -73 95 -267
152 -432 57 -165 110 -316 118 -335 15 -34 15 -36 -20 -75 -19 -22 -63 -75
-98 -118 -35 -43 -91 -108 -124 -145 -33 -37 -115 -130 -183 -207 -67 -77
-127 -139 -133 -137 -5 2 -39 21 -75 42 -36 21 -144 78 -240 128 -239 122
-423 221 -437 235 -8 9 -8 132 1 507 l12 495 26 65 c42 104 138 359 138 364 0
3 11 29 24 58 14 29 50 121 81 203 64 173 73 195 79 195 2 0 145 -160 317
-356z m1513 -771 c3 -43 8 -262 12 -488 l6 -410 -26 -56 c-14 -31 -44 -108
-67 -170 -100 -279 -118 -327 -139 -379 -12 -30 -44 -111 -71 -180 -26 -68
-51 -126 -56 -127 -30 -9 -819 -123 -829 -119 -6 2 -42 82 -79 178 -37 95 -71
178 -75 183 -10 13 -70 157 -70 168 0 4 129 155 288 335 158 180 305 350 326
377 22 28 55 67 74 87 l35 37 -41 118 c-23 64 -40 118 -39 118 1 1 63 35 137
77 74 41 189 105 255 140 66 36 170 93 230 127 61 33 113 61 116 61 4 0 10
-35 13 -77z m-2372 -675 l-2 -193 37 -17 c21 -9 130 -67 243 -128 113 -61 260
-139 328 -173 l122 -62 44 -110 c25 -60 72 -175 106 -254 46 -110 58 -146 48
-153 -16 -10 -250 -104 -383 -153 -55 -21 -128 -51 -163 -66 -49 -23 -67 -27
-82 -19 -11 6 -20 15 -20 19 0 5 -33 35 -72 67 -40 32 -203 172 -363 310 -322
280 -299 253 -445 529 -29 55 -79 143 -111 196 -31 53 -85 150 -119 215 -35
65 -71 131 -82 146 l-19 28 203 3 c112 1 322 3 468 5 l265 2 -3 -192z"/>
</g>
</svg>
