<?xml version="1.0" standalone="no"?>
<!DOCTYPE svg PUBLIC "-//W3C//DTD SVG 20010904//EN"
 "http://www.w3.org/TR/2001/REC-SVG-20010904/DTD/svg10.dtd">
<svg version="1.0" xmlns="http://www.w3.org/2000/svg"
 width="35" height="40" viewBox="0 0 1192.000000 1186.000000"
 preserveAspectRatio="xMidYMid meet">

<g transform="translate(0.000000,1186.000000) scale(0.100000,-0.100000)"
fill="#000000" stroke="none">
<path d="M5810 11358 c-32 -13 -190 -70 -295 -106 -44 -15 -82 -29 -85 -32 -3
-3 -41 -17 -85 -32 -44 -15 -125 -43 -180 -63 -158 -57 -293 -105 -381 -135
-110 -37 -162 -65 -280 -148 -56 -40 -105 -72 -108 -72 -3 0 -15 -8 -25 -17
-11 -10 -61 -46 -113 -80 -51 -35 -115 -78 -143 -97 -27 -19 -76 -52 -108 -73
-32 -21 -99 -67 -151 -103 -51 -36 -103 -71 -117 -79 -115 -67 -241 -195 -684
-696 -29 -33 -157 -175 -283 -315 -126 -140 -265 -296 -308 -347 -43 -50 -110
-125 -147 -166 -64 -71 -83 -106 -311 -559 -133 -266 -309 -614 -389 -774
l-147 -290 0 -405 0 -405 82 -61 c46 -33 130 -93 188 -132 58 -40 150 -104
205 -142 55 -39 130 -90 166 -114 97 -63 136 -101 154 -149 l17 -43 37 10 c34
9 42 7 85 -23 l48 -32 -6 -72 c-3 -39 -9 -116 -12 -171 l-6 -101 83 -49 c46
-26 114 -66 151 -88 55 -32 69 -45 79 -75 6 -21 22 -61 35 -90 13 -29 24 -55
24 -58 0 -5 41 -110 135 -349 99 -250 135 -344 135 -350 0 -3 9 -24 20 -48 11
-23 31 -71 44 -107 67 -178 79 -207 92 -235 7 -16 22 -56 33 -88 21 -61 19
-79 -23 -170 -8 -17 -29 -68 -47 -112 -57 -147 -71 -180 -84 -210 -8 -16 -28
-66 -46 -110 -17 -44 -44 -111 -59 -150 -15 -38 -42 -106 -59 -150 -17 -44
-36 -89 -41 -100 -18 -38 -71 -170 -94 -235 -13 -36 -33 -85 -44 -110 -26 -58
-71 -169 -122 -300 -23 -58 -54 -134 -70 -170 -15 -36 -34 -83 -40 -105 -7
-22 -16 -45 -21 -50 -4 -6 -20 -44 -35 -85 -14 -41 -30 -79 -34 -85 -3 -5 -17
-39 -30 -75 -13 -36 -27 -69 -30 -75 -4 -5 -20 -44 -34 -85 -15 -41 -31 -79
-35 -85 -9 -12 -51 -128 -51 -142 0 -10 38 -20 335 -94 66 -16 183 -45 260
-65 77 -19 190 -46 250 -60 61 -14 119 -29 130 -34 11 -5 79 -22 150 -39 72
-16 184 -43 250 -60 259 -65 415 -103 540 -132 72 -17 139 -34 150 -39 60 -25
227 -52 1020 -159 l220 -30 190 25 c105 13 208 29 230 34 22 6 137 24 255 41
370 52 349 48 367 83 16 32 44 80 137 234 31 52 56 95 56 98 0 2 18 33 40 69
22 36 40 67 40 70 0 2 18 34 41 72 22 37 45 75 49 83 5 8 30 51 56 95 26 44
65 112 87 150 22 39 65 110 94 158 29 49 53 91 53 93 0 2 18 33 40 68 22 35
40 66 40 69 0 3 17 34 39 69 34 57 63 105 191 328 21 36 62 105 91 155 30 49
59 99 64 110 10 20 20 20 906 23 l895 2 12 33 c6 17 21 77 32 132 12 55 26
112 31 126 6 14 23 82 39 150 53 231 90 381 94 388 3 4 17 61 31 127 14 65 30
128 35 139 5 11 21 74 35 140 14 66 32 138 39 160 10 28 11 55 5 90 -10 59
-63 404 -113 730 -19 127 -38 240 -41 251 -4 13 -2 25 5 29 12 8 124 38 295
81 55 13 109 29 120 34 24 12 188 50 215 50 35 0 53 43 47 111 -3 34 -10 66
-16 72 -6 6 -11 18 -11 27 0 22 -208 429 -252 492 -10 14 -18 29 -18 33 0 6
-202 388 -233 440 -6 11 -28 52 -48 90 -20 39 -62 117 -92 175 l-55 105 23
120 c13 66 40 197 60 290 20 94 49 235 65 315 16 80 36 171 44 203 13 51 13
64 1 100 -8 23 -28 101 -44 172 -74 320 -89 385 -101 420 -7 20 -8 40 -4 45 5
4 106 13 224 19 268 15 302 22 384 74 36 23 95 60 131 82 36 22 72 46 80 53 7
6 16 12 20 12 3 0 38 22 78 48 40 27 80 52 90 55 10 4 17 11 15 15 -3 9 -361
325 -491 435 -43 35 -78 57 -93 57 -20 0 -23 4 -19 23 14 60 46 207 75 337 17
80 34 152 38 160 14 36 74 318 74 350 0 19 -16 114 -36 210 -20 96 -51 249
-69 339 -18 90 -37 166 -43 168 -7 2 -53 -27 -102 -64 -50 -37 -146 -110 -214
-161 -68 -51 -136 -101 -153 -111 -16 -11 -79 -58 -139 -104 -109 -84 -109
-84 -148 -173 -22 -49 -47 -108 -56 -131 -9 -24 -20 -43 -24 -43 -4 0 -8 98
-8 219 0 163 -3 221 -12 228 -7 6 -76 31 -153 57 -77 26 -149 51 -160 56 -11
5 -101 36 -200 69 -496 166 -514 173 -620 246 -55 38 -139 95 -186 127 l-86
58 -449 1 c-339 0 -471 4 -539 15 -49 8 -187 27 -305 44 -118 16 -231 34 -250
39 -19 5 -114 19 -210 31 -96 11 -186 25 -200 30 -43 15 -134 20 -160 8z m340
-509 c118 -17 305 -44 415 -60 110 -17 259 -39 330 -49 110 -16 189 -19 511
-20 355 0 383 -1 405 -18 58 -45 282 -192 292 -192 7 0 23 -6 37 -13 14 -7 91
-35 173 -62 81 -27 147 -54 147 -60 0 -6 -28 -35 -61 -65 -34 -30 -180 -164
-324 -298 l-263 -243 -17 -62 c-9 -34 -23 -75 -30 -92 -8 -16 -23 -64 -35
-105 -11 -41 -25 -84 -30 -95 -6 -11 -23 -64 -40 -117 -69 -225 -91 -292 -95
-296 -2 -2 50 -110 115 -238 66 -129 120 -239 120 -244 0 -6 -11 -15 -24 -20
-14 -5 -53 -22 -88 -38 -35 -17 -110 -51 -168 -76 -58 -26 -127 -58 -155 -71
-27 -13 -75 -35 -105 -48 -30 -14 -110 -50 -178 -81 -128 -58 -142 -63 -142
-46 0 18 31 144 41 165 9 21 39 136 89 340 17 66 34 127 38 135 5 8 19 60 32
116 l22 101 -26 279 c-23 246 -51 496 -55 501 -1 2 7 9 -201 -167 -85 -72
-168 -141 -185 -155 -186 -150 -305 -259 -323 -298 -38 -80 -70 -153 -122
-272 -29 -66 -63 -142 -75 -170 -13 -27 -34 -75 -48 -105 -13 -30 -41 -92 -62
-137 l-38 -82 17 -63 c9 -35 28 -110 42 -168 13 -58 29 -114 34 -125 9 -20 60
-237 60 -255 0 -6 -5 -10 -11 -10 -5 0 -90 -36 -187 -81 -97 -45 -206 -94
-242 -111 -36 -16 -87 -40 -115 -53 -27 -13 -52 -22 -54 -20 -4 5 18 175 26
195 6 15 30 162 92 576 l30 201 -29 144 c-16 79 -43 205 -59 279 -16 74 -39
177 -51 229 -11 52 -22 96 -24 98 -1 2 -145 -140 -318 -315 l-315 -319 -17
-64 c-10 -35 -24 -77 -31 -94 -8 -16 -21 -57 -31 -90 -9 -33 -22 -73 -29 -90
-18 -43 -155 -463 -155 -476 0 -6 7 -25 15 -42 8 -18 23 -57 34 -87 11 -30 38
-102 61 -160 64 -164 110 -287 110 -294 0 -4 -21 -16 -47 -28 -48 -20 -142
-63 -218 -98 -156 -74 -218 -101 -224 -98 -4 2 -2 37 5 78 66 414 85 538 98
615 22 127 18 207 -12 285 -3 8 -20 80 -39 160 -108 466 -101 440 -115 440 -5
0 -155 -140 -332 -311 l-324 -311 -17 -62 c-9 -33 -23 -74 -30 -91 -13 -29
-37 -100 -95 -280 -16 -49 -34 -99 -39 -110 -6 -11 -20 -54 -32 -95 -12 -41
-25 -79 -29 -85 -5 -5 -13 -28 -20 -50 -11 -36 -9 -46 13 -95 13 -30 32 -77
42 -105 10 -27 22 -55 27 -61 4 -6 19 -39 32 -75 14 -35 36 -91 50 -124 34
-80 33 -89 -11 -104 -21 -8 -65 -26 -98 -41 -33 -15 -112 -51 -175 -80 -63
-28 -137 -63 -164 -76 -67 -32 -76 -31 -70 9 3 17 14 88 24 157 11 69 36 226
55 350 20 124 41 258 47 298 13 81 11 95 -47 417 -20 110 -44 245 -53 300 -9
55 -20 100 -23 100 -7 0 -338 -366 -482 -532 l-87 -101 -40 -128 c-23 -71 -54
-169 -70 -219 -16 -49 -36 -119 -46 -155 -9 -36 -20 -69 -24 -75 -4 -5 -17
-46 -29 -90 -12 -44 -28 -97 -36 -118 -12 -29 -13 -43 -4 -58 16 -31 57 -173
52 -182 -2 -4 -52 27 -111 68 -59 41 -137 95 -174 121 l-68 46 0 233 0 234
191 378 c105 208 263 521 351 695 136 271 168 327 220 385 33 37 82 93 109
123 27 30 160 179 295 330 136 151 268 300 295 330 27 30 150 168 274 305 197
219 237 258 321 315 52 36 138 94 190 130 52 36 114 77 137 93 64 42 162 109
261 179 48 35 93 65 100 68 7 3 48 30 91 61 44 31 105 64 135 74 30 10 60 21
65 25 6 4 39 17 75 28 36 11 121 41 190 66 69 26 161 58 205 72 44 15 85 30
90 34 6 4 42 17 80 29 39 13 80 27 91 33 48 23 161 56 194 57 19 0 132 -13
250 -30z m3889 -519 c12 -63 22 -122 22 -130 0 -8 -14 -73 -30 -145 -17 -71
-46 -197 -65 -280 -19 -82 -42 -181 -50 -220 -9 -38 -19 -77 -22 -86 -3 -10
-33 -25 -77 -39 -40 -12 -116 -35 -170 -52 -55 -17 -102 -27 -107 -22 -4 5
-20 43 -35 84 -14 41 -30 79 -34 85 -4 5 -15 35 -25 65 l-19 55 47 105 c26 58
56 123 66 145 10 22 38 83 60 135 68 154 93 202 117 219 13 9 74 55 137 102
128 97 148 111 157 101 4 -4 16 -59 28 -122z m-1519 37 c14 -7 98 -37 188 -67
l162 -53 0 -315 0 -314 32 -42 c27 -34 202 -249 240 -295 19 -22 73 -95 81
-108 8 -12 -21 -27 -223 -118 -145 -65 -191 -86 -298 -135 -51 -24 -94 -41
-96 -39 -3 2 0 33 5 69 5 36 23 175 39 310 17 135 35 283 42 331 9 73 8 90 -5
120 -9 18 -25 70 -37 114 -12 44 -25 85 -29 90 -4 6 -13 30 -20 55 -17 63
-100 327 -117 373 -16 41 -8 47 36 24z m-132 -598 c19 -62 34 -127 34 -144 0
-46 -60 -553 -71 -610 -6 -27 -13 -70 -16 -95 l-6 -45 -82 -34 c-45 -19 -111
-47 -147 -62 -113 -47 -97 -56 -176 99 l-71 137 14 50 c7 28 20 66 28 85 7 19
37 109 65 200 88 282 76 261 235 409 77 71 144 129 149 128 5 -2 25 -55 44
-118z m-1514 -556 c19 -98 17 -200 -4 -293 -12 -52 -25 -99 -29 -105 -3 -5
-18 -57 -33 -115 -14 -58 -43 -166 -63 -240 -20 -74 -46 -172 -57 -217 l-22
-81 -60 -17 c-34 -10 -65 -21 -71 -25 -18 -14 -145 -48 -150 -40 -3 4 -16 57
-30 117 -14 59 -30 121 -37 136 -8 22 -7 34 5 60 9 18 35 75 58 127 23 52 54
123 70 158 16 34 29 65 29 68 0 4 13 34 29 68 16 33 46 97 66 141 35 76 43 85
158 183 66 56 124 102 128 102 4 0 10 -12 13 -27z m3080 -123 c143 -22 127
-13 290 -162 l60 -55 -60 -40 c-68 -46 -69 -47 -344 -67 -252 -19 -249 -19
-257 2 -4 9 -23 44 -44 78 -20 33 -39 70 -43 81 -4 12 -13 27 -21 33 -8 7 -15
18 -15 24 0 12 134 79 213 107 20 7 37 17 37 22 0 5 12 6 28 3 15 -4 85 -16
156 -26z m-656 -257 l23 -41 -21 -89 c-12 -48 -25 -95 -30 -104 -4 -8 -13 -40
-19 -71 -10 -46 -9 -67 4 -119 26 -101 84 -342 116 -486 l31 -132 -31 -155
c-17 -86 -45 -227 -61 -313 -17 -87 -35 -167 -40 -178 -5 -11 -20 -78 -34
-150 -13 -71 -30 -150 -36 -175 -11 -45 -8 -108 7 -119 4 -3 16 -22 25 -41 10
-19 37 -71 61 -115 23 -44 67 -125 96 -180 30 -55 82 -152 116 -215 34 -63 69
-128 77 -145 33 -65 102 -193 131 -245 56 -97 78 -150 64 -155 -6 -2 -50 -14
-97 -25 -47 -11 -92 -24 -100 -27 -8 -3 -62 -19 -120 -34 -149 -39 -265 -70
-266 -72 -1 -1 2 -24 8 -52 9 -52 40 -250 102 -650 76 -499 98 -641 98 -665 1
-24 -21 -122 -97 -430 -20 -80 -49 -197 -63 -260 -15 -63 -30 -119 -34 -125
-3 -5 -14 -49 -24 -97 l-18 -88 -151 0 c-82 1 -217 7 -300 16 -82 8 -316 30
-520 49 -612 57 -1402 145 -1530 169 -16 4 -107 17 -201 30 -274 39 -378 89
-484 233 -52 71 -39 71 -195 1 -207 -94 -275 -127 -275 -135 0 -21 105 -168
165 -231 191 -203 359 -278 756 -337 95 -15 201 -31 234 -36 60 -9 463 -56
563 -66 30 -3 52 -10 51 -16 -1 -13 -14 -36 -93 -170 -27 -45 -64 -107 -81
-137 -18 -30 -54 -91 -79 -135 -26 -44 -51 -87 -56 -95 -4 -8 -27 -46 -49 -83
-23 -38 -41 -71 -41 -74 0 -3 -18 -34 -40 -69 -22 -35 -40 -66 -40 -68 0 -2
-24 -44 -53 -93 -29 -48 -72 -119 -94 -158 -22 -38 -61 -106 -87 -150 -26 -44
-51 -87 -56 -95 -4 -8 -27 -46 -49 -83 -23 -38 -41 -71 -41 -74 0 -3 -17 -33
-39 -67 -21 -34 -41 -70 -45 -81 -4 -11 -15 -31 -26 -44 -18 -21 -39 -26 -198
-47 -97 -13 -184 -27 -192 -30 -8 -3 -91 -16 -185 -28 l-170 -23 -175 22 c-96
13 -186 26 -200 29 -14 4 -124 20 -245 36 -309 41 -398 56 -495 80 -47 12
-132 33 -190 46 -58 14 -114 29 -125 34 -11 5 -65 18 -120 30 -55 11 -129 29
-165 39 -74 22 -234 61 -395 97 -60 14 -119 29 -130 34 -11 5 -81 23 -155 40
-300 69 -293 67 -272 101 7 11 26 55 41 97 38 103 149 382 162 405 5 10 20 46
33 80 41 108 86 221 102 254 8 18 21 51 29 73 8 22 21 55 29 73 8 17 29 68 47
112 61 156 87 222 154 385 37 91 78 194 92 228 13 35 32 83 42 105 10 23 22
53 26 67 4 14 20 52 35 85 15 33 31 71 35 85 4 14 18 48 31 77 30 65 30 81 0
146 -13 29 -27 63 -31 77 -4 14 -17 50 -30 80 -13 30 -46 116 -75 190 -28 74
-55 144 -60 155 -5 11 -35 85 -65 165 -31 80 -62 159 -70 175 -7 17 -23 59
-36 95 -13 36 -31 81 -40 100 -10 19 -14 39 -9 44 7 7 65 6 359 -10 l104 -6
-7 39 c-4 21 -18 70 -31 108 -13 39 -33 106 -44 150 -12 44 -26 89 -31 100 -5
11 -20 61 -34 110 -14 50 -36 128 -50 175 -28 92 -28 92 -180 225 -143 124
-321 290 -321 299 0 5 50 31 110 58 61 27 137 62 170 78 69 33 115 46 115 34
1 -13 57 -340 70 -405 l12 -57 76 -28 c42 -15 109 -37 147 -50 39 -13 122 -41
185 -64 63 -22 149 -51 190 -65 41 -14 120 -40 175 -58 l100 -34 300 29 c389
38 395 39 395 48 0 4 -18 38 -41 76 -22 38 -46 78 -52 89 -6 11 -29 48 -49 82
-21 34 -38 65 -38 67 0 3 -18 35 -41 73 -22 37 -45 75 -49 83 -156 274 -108
231 -530 470 -111 63 -130 75 -130 81 0 7 42 28 110 55 25 10 47 20 50 24 3 3
21 12 40 20 19 7 62 26 95 41 157 71 176 78 180 66 2 -7 14 -64 25 -127 11
-63 26 -146 34 -185 8 -38 17 -91 20 -116 7 -45 7 -46 64 -63 31 -9 66 -21 77
-26 18 -9 90 -34 305 -105 189 -63 257 -87 285 -99 17 -8 59 -22 95 -32 63
-16 73 -16 345 10 475 46 424 32 380 101 -19 31 -35 59 -35 63 0 4 -18 34 -40
67 -22 33 -40 63 -40 66 0 4 -24 47 -53 95 -30 49 -73 123 -97 164 -24 41 -61
103 -82 137 -21 34 -38 67 -38 73 0 5 -5 10 -11 10 -6 0 -37 16 -69 36 -58 35
-77 47 -167 95 -26 15 -84 49 -128 75 -45 27 -98 58 -118 68 -41 21 -46 33
-19 43 16 5 148 64 277 123 33 15 103 46 155 69 52 23 112 51 132 61 20 11 42
20 47 20 6 0 20 -33 31 -72 12 -40 34 -116 50 -168 16 -52 36 -124 45 -160 29
-114 28 -113 152 -132 383 -61 555 -88 602 -97 47 -9 60 -7 110 13 31 13 81
31 111 40 30 9 64 21 75 26 29 14 179 67 258 92 42 13 67 26 67 36 0 8 -31 58
-70 111 -118 162 -214 297 -230 321 -58 86 -139 186 -160 197 -41 21 -133 60
-160 68 -14 4 -51 19 -83 33 l-58 25 58 28 c106 50 233 109 238 109 2 0 37 15
77 34 323 148 329 151 341 130 11 -18 31 -74 101 -279 15 -44 32 -89 37 -100
5 -11 17 -45 27 -75 22 -65 -27 -54 442 -101 l325 -32 80 28 c44 15 82 31 85
35 3 3 37 18 75 32 72 26 196 77 252 103 17 8 36 15 43 15 24 0 20 5 -311 408
l-145 177 -167 55 c-92 30 -167 59 -167 63 0 4 8 10 18 14 24 8 417 184 577
258 28 12 82 37 120 55 39 18 93 43 120 55 28 13 77 35 110 49 33 13 78 34
100 45 22 11 45 19 50 17 6 -1 20 -21 33 -43z m-3871 -255 l21 -113 -24 -155
c-13 -85 -40 -256 -59 -380 -20 -124 -38 -241 -41 -261 -6 -34 -11 -39 -77
-69 -40 -18 -94 -43 -122 -56 -27 -12 -56 -24 -63 -26 -13 -3 -95 186 -108
248 -5 29 30 176 54 220 5 11 20 55 32 99 12 44 26 85 30 90 5 6 20 52 35 103
15 51 33 105 41 120 8 15 14 34 14 42 0 13 227 250 240 250 3 0 15 -51 27
-112z m2783 -497 c113 -39 149 -56 165 -77 11 -15 50 -63 87 -108 37 -45 68
-86 68 -92 0 -7 -32 -24 -72 -38 l-72 -27 -235 21 c-130 12 -246 25 -257 30
-15 6 -28 27 -39 62 -10 29 -21 58 -25 63 -4 6 -17 41 -30 78 -21 66 -21 69
-4 82 11 8 22 15 27 15 4 0 33 17 64 39 l56 39 61 -19 c34 -10 126 -41 206
-68z m-3996 -161 c33 -135 36 -87 -29 -490 -20 -124 -44 -278 -54 -343 -10
-64 -20 -119 -22 -121 -8 -8 -265 -118 -286 -123 -16 -4 -23 1 -28 19 -4 12
-18 46 -30 73 -12 28 -34 82 -49 121 l-27 72 21 68 c12 38 29 92 40 119 10 28
44 127 75 220 31 94 63 184 71 202 8 17 14 36 14 41 0 6 23 32 52 59 28 26 87
83 130 126 43 42 82 77 86 77 4 0 20 -54 36 -120z m2361 -373 c17 -5 32 -13
35 -16 3 -3 30 -15 60 -25 30 -11 73 -27 95 -37 22 -10 67 -28 100 -41 52 -21
67 -34 113 -93 66 -86 145 -206 139 -211 -2 -3 -31 -14 -63 -25 -32 -11 -69
-25 -81 -31 -11 -6 -36 -8 -55 -5 -18 3 -123 20 -233 37 -110 17 -214 34 -232
37 -46 7 -47 8 -99 198 -13 50 -27 98 -30 107 -4 13 9 25 53 48 32 17 76 42
98 55 22 14 47 22 55 19 8 -3 29 -11 45 -17z m-3666 -168 c13 -61 13 -139 0
-199 -5 -25 -23 -128 -39 -230 -16 -102 -40 -259 -55 -350 -14 -91 -29 -168
-33 -171 -4 -4 -47 -27 -95 -52 l-88 -46 -10 27 c-41 105 -70 210 -65 237 4
17 24 86 45 155 22 69 58 186 81 260 76 246 80 256 161 346 40 45 77 80 80 78
4 -2 12 -27 18 -55z m2401 -503 c41 -24 112 -65 157 -92 45 -27 95 -56 110
-64 146 -79 161 -92 209 -174 26 -45 65 -110 86 -145 21 -36 38 -68 38 -72 0
-11 -36 -17 -140 -24 -89 -5 -100 -4 -180 25 -47 17 -114 40 -150 51 -36 11
-74 24 -85 30 -22 10 -161 58 -266 91 l-67 20 -16 72 c-8 39 -20 100 -26 136
-6 36 -13 77 -16 92 -5 23 -1 27 28 33 18 4 39 11 48 16 16 10 156 47 180 48
9 1 49 -19 90 -43z m-1245 -511 c22 -13 51 -30 65 -37 14 -7 52 -29 86 -50 34
-21 64 -38 67 -38 4 0 31 -16 62 -35 30 -20 63 -39 73 -42 43 -17 126 -78 141
-105 23 -42 103 -177 129 -218 12 -19 22 -40 22 -47 0 -7 -40 -13 -117 -18
-119 -8 -167 0 -258 40 -16 8 -64 24 -105 36 -41 12 -79 25 -85 29 -5 4 -50
20 -100 35 -49 15 -94 30 -100 35 -5 4 -36 15 -67 24 -31 9 -59 20 -62 24 -2
4 -14 66 -25 137 -12 72 -24 142 -27 156 -5 24 -2 27 32 33 20 4 44 12 53 17
12 7 144 44 171 48 3 0 23 -10 45 -24z m-1032 -587 c170 -149 303 -273 311
-292 4 -12 12 -30 17 -41 5 -11 22 -69 39 -130 17 -60 34 -119 37 -129 6 -18
1 -19 -102 -13 -119 8 -97 -1 -307 123 -31 19 -58 34 -60 34 -8 0 -222 128
-247 147 -23 19 -23 21 -12 84 6 36 11 105 11 152 0 82 1 87 23 92 18 4 178
30 210 34 5 1 41 -27 80 -61z"/>
</g>
</svg>
