<svg xmlns="http://www.w3.org/2000/svg" width="35" height="40" viewBox="0 0 1398 960" version="1.1">
	<path d="M 27 479.462 L 27 958.925 17.750 959.255 L 8.500 959.585 18.250 959.792 L 28 960 28 480 C 28 216, 27.775 0, 27.500 0 C 27.225 0, 27 215.758, 27 479.462 M 577.998 141.750 C 577.997 165.813, 577.698 208.853, 577.333 237.395 L 576.671 289.289 524.227 360.895 L 471.784 432.500 492.892 432.770 L 514 433.040 514 570.020 L 514 707 510.500 707 L 507 707 507 695 L 507 683 488 683 L 469 683 468.924 688.250 C 468.882 691.138, 468.913 696.538, 468.991 700.250 L 469.134 707 460.067 707 L 451 707 451 695 L 451 683 437.361 683 L 423.722 683 424.377 666.750 C 424.737 657.813, 425.306 645.521, 425.641 639.435 L 426.249 628.371 451.613 618.935 L 476.976 609.500 476.988 561.250 L 477 513 438.500 513 L 400 513 400 529 L 400 545 358 545 L 316 545 316 529 L 316 513 297.500 513 L 279 513 279 476.008 L 279 439.017 335.584 438.758 L 392.168 438.500 335.584 389.011 L 279 339.523 279 325.261 L 279 311 272 311 L 265 311 264.885 409.750 C 264.821 464.063, 264.665 508.950, 264.537 509.500 C 264.409 510.050, 264.236 511.063, 264.152 511.750 C 264.042 512.657, 261.252 513, 254 513 C 244.331 513, 243.996 513.075, 243.882 515.250 C 243.818 516.487, 243.705 523.575, 243.632 531 L 243.500 544.500 204.250 544.762 L 165 545.023 165 529.012 L 165 513 129.490 513 L 93.980 513 94.240 559.168 L 94.500 605.336 124.750 616.816 L 155 628.296 155 739.648 L 155 851 204.421 851 L 253.841 851 254.236 827.250 C 254.559 807.828, 254.948 802.656, 256.370 798.867 C 260.392 788.149, 269.782 781.828, 282 781.614 C 290.814 781.459, 296.879 783.920, 301.986 789.722 C 308.481 797.100, 309.299 801.101, 309.759 827.750 L 310.161 851 489.581 851 L 669 851 669 816.059 C 669 796.841, 669.392 780.876, 669.871 780.580 C 670.350 780.284, 670.958 777.793, 671.222 775.045 C 671.814 768.876, 676.668 758.795, 681.914 752.835 C 686.152 748.020, 694.802 742.901, 701.883 741.017 C 708.476 739.263, 722.628 739.528, 728.429 741.514 C 742.013 746.163, 750.267 756.095, 755.302 773.846 C 757.354 781.083, 757.466 783.392, 757.345 816.250 L 757.218 851 946.545 851 L 1135.871 851 1136.186 826.750 C 1136.482 803.916, 1136.634 802.208, 1138.801 797.500 C 1143.760 786.726, 1151.572 781.814, 1164.042 781.628 C 1173.302 781.490, 1179.782 784.381, 1184.715 790.849 C 1190.238 798.090, 1191 802.614, 1191 828.182 L 1191 851 1237.500 851 C 1274.034 851, 1284 850.732, 1283.999 849.750 C 1283.998 848.312, 1292.810 642.288, 1293.225 634.051 L 1293.500 628.601 1319 618.956 L 1344.500 609.312 1344.500 561.406 L 1344.500 513.500 1306.567 513.238 C 1276.884 513.033, 1268.459 513.250, 1267.832 514.238 C 1267.391 514.932, 1267.024 522.138, 1267.015 530.250 L 1267 545 1225.525 545 L 1184.051 545 1183.775 529.250 L 1183.500 513.500 1164.750 513.228 L 1146 512.956 1146 475.978 L 1146 439 1203.061 439 L 1260.122 439 1203.561 389.488 L 1147 339.975 1147 325.488 L 1147 311 1139.500 311 L 1132 311 1132 412 L 1132 513 1121.500 513 L 1111 513 1111 529 L 1111 545 1072.025 545 L 1033.051 545 1032.775 529.250 L 1032.500 513.500 997.250 513.237 L 962 512.974 962.017 559.237 L 962.035 605.500 992.515 617 L 1022.994 628.500 1022.997 655.750 L 1023 683 1005.750 682.998 L 988.500 682.996 988.809 694.998 L 989.118 707 978.590 707 L 968.063 707 968.139 697.250 C 968.181 691.888, 968.167 686.487, 968.107 685.250 L 968 683 949 683 L 930 683 930 695 C 930 705.013, 929.751 707, 928.496 707 C 927.164 707, 927.022 691.395, 927.246 570.250 L 927.500 433.500 950.271 433 L 973.043 432.500 910.521 353.768 L 848 275.037 848 250.527 L 848 226.017 904.659 225.758 L 961.317 225.500 904.678 176 L 848.039 126.500 848.019 112.250 L 848 98 841 98 L 834 98 833.894 147.250 C 833.835 174.338, 833.666 198.300, 833.517 200.500 C 833.368 202.700, 833.191 223.465, 833.123 246.645 L 833 288.791 780.500 360.457 C 751.625 399.874, 728 432.321, 728 432.562 C 728 432.803, 737.450 433, 749 433 L 770 433 770 558 L 770 683 758 683 L 746 683 746 695 L 746 707 733.500 707 L 721 707 721 695 L 721 683 701.500 683 L 682 683 682 695 L 682 707 676.496 707 L 670.993 707 671.246 570.250 L 671.500 433.500 694.298 433 L 717.097 432.500 654.548 353.731 L 592 274.961 592 250.489 L 592 226.017 648.714 225.758 L 705.427 225.500 648.756 176 L 592.085 126.500 592.042 112.250 L 592 98 585 98 L 578 98 577.998 141.750 M 579.750 437.058 L 567 448.075 567 469.537 L 567 491 593.500 491 L 620 491 620 469.556 L 620 448.113 606.888 437.056 C 599.677 430.975, 593.490 426.009, 593.138 426.021 C 592.787 426.033, 586.763 430.999, 579.750 437.058 M 835.750 437.058 L 823 448.075 823 469.537 L 823 491 849.500 491 L 876 491 876 469.528 L 876 448.055 862.809 437.028 C 855.554 430.962, 849.366 426.009, 849.059 426.021 C 848.752 426.033, 842.763 430.999, 835.750 437.058 M 579.750 522.297 L 567 533.458 567 554.729 L 567 576 593.500 576 L 620 576 620 554.658 L 620 533.317 606.948 522.408 C 599.770 516.409, 593.583 511.418, 593.198 511.319 C 592.814 511.219, 586.763 516.159, 579.750 522.297 M 835.750 522.213 L 823 533.293 823 554.646 L 823 576 849.500 576 L 876 576 876 554.647 L 876 533.294 862.589 522.147 C 855.213 516.016, 849.025 511.030, 848.839 511.066 C 848.652 511.102, 842.763 516.118, 835.750 522.213 M 579.727 607.750 L 567.009 618.500 567.005 640.250 L 567 662 593.500 662 L 620 662 619.969 640.250 L 619.937 618.500 607.054 607.750 C 599.969 601.837, 593.783 597, 593.308 597 C 592.833 597, 586.722 601.837, 579.727 607.750 M 835.594 607.750 L 823.005 618.500 823.003 640.250 L 823 662 849.500 662 L 876 662 875.973 640.250 L 875.947 618.500 862.998 607.750 C 855.877 601.837, 849.630 597, 849.116 597 C 848.603 597, 842.518 601.837, 835.594 607.750 M 251 659.500 L 251 695 286.500 695 L 322 695 322 659.500 L 322 624 286.500 624 L 251 624 251 659.500 M 1118 659.500 L 1118 695 1153.500 695 L 1189 695 1189 659.500 L 1189 624 1153.500 624 L 1118 624 1118 659.500 M 1.762 959.707 C 3.006 959.946, 4.806 959.937, 5.762 959.687 C 6.718 959.437, 5.700 959.241, 3.500 959.252 C 1.300 959.263, 0.518 959.468, 1.762 959.707 " stroke="none" fill="black" fill-rule="evenodd"/>
</svg>