<svg xmlns="http://www.w3.org/2000/svg" width="35" height="40" viewBox="0 0 1354 942" version="1.1">
	<path d="M 27 470.462 L 27 940.925 17.750 941.255 L 8.500 941.585 18.250 941.792 L 28 942 28 471 C 28 211.950, 27.775 0, 27.500 0 C 27.225 0, 27 211.708, 27 470.462 M 677 139.514 L 677 214.029 635.570 307.764 L 594.140 401.500 609.820 402 L 625.500 402.500 625.753 556.250 L 626.006 710 620.503 710 L 615 710 615 721 L 615 732 605.500 732 L 596 732 596 721 L 596 710 580.655 710 L 565.310 710 565.405 720.750 L 565.500 731.500 558.750 731.796 L 552 732.091 552 721.078 L 552 710.066 540.750 709.783 L 529.500 709.500 529.246 600.250 L 528.991 491 545.996 491 C 555.348 491, 563 490.785, 563 490.522 C 563 490.259, 543.427 459.996, 519.505 423.272 L 476.010 356.500 476.005 331.760 L 476 307.021 520.215 306.760 L 564.430 306.500 520.465 268 L 476.500 229.500 476.466 218 L 476.431 206.500 470.716 206.200 L 465 205.900 464.996 228.700 C 464.993 241.240, 464.711 274.450, 464.369 302.500 L 463.748 353.500 423.417 420.556 C 401.235 457.437, 382.794 488.374, 382.436 489.306 C 381.842 490.853, 383.137 491, 397.393 491 L 413 491 413 611.500 C 413 717.944, 412.825 732, 411.500 732 C 410.258 732, 410 730.111, 410 721 L 410 710 387.500 710 L 365 710 365 721 L 365 732 357.500 732 L 350 732 350 721 L 350 710 336.839 710 L 323.678 710 324.339 681.337 C 324.703 665.573, 325 629.573, 325 601.337 L 325 550 337.500 550 L 350 550 350 507.657 L 350 465.315 332.750 464.660 C 323.262 464.301, 309.762 464.005, 302.750 464.003 L 290 464 290 479 C 290 491.717, 289.770 494, 288.489 494 C 287.161 494, 287.009 489.111, 287.239 453.750 L 287.500 413.500 331.453 413 L 375.406 412.500 331.703 374.234 L 288 335.969 288 324.484 L 288 313 282 313 L 276 313 275.875 399.500 C 275.806 447.075, 275.637 486.450, 275.500 487 C 275.363 487.550, 275.194 489.350, 275.125 491 C 275.011 493.738, 274.694 494, 271.500 494 L 268 494 268 479.500 L 268 465 246.500 465 L 225 465 225 479.500 L 225 494 214 494 L 203 494 203 479 L 203 464 182.500 464 L 162 464 162 479 L 162 494 154 494 L 146 494 146 453.510 L 146 413.021 189.944 412.760 L 233.888 412.500 189.944 374.076 L 146 335.651 146 324.326 L 146 313 140 313 L 134 313 134 389 L 134 465 107.500 465 L 81 465 81 507.500 L 81 550 95 550 L 109 550 109 705.500 L 109 861 144.500 861 L 180 861 180.008 846.750 C 180.017 829.425, 181.199 821.415, 184.932 813.377 C 190.302 801.815, 198.166 795.543, 210.479 792.998 C 227.078 789.569, 241.881 796.761, 248.649 811.545 C 252.569 820.106, 253.964 829.053, 253.983 845.750 L 254 861 448 861 L 642 861 642 831.160 C 642 804.930, 642.234 800.405, 643.935 793.756 C 649.299 772.782, 662.107 760.658, 681.958 757.765 C 701.523 754.913, 718.361 763.169, 726.418 779.563 C 732.688 792.323, 733.297 796.526, 733.755 830.250 L 734.174 861 928.999 861 L 1123.825 861 1124.212 840.250 C 1124.563 821.387, 1124.810 818.962, 1126.934 813.581 C 1132.783 798.761, 1146.735 791.078, 1165.652 792.258 C 1180.091 793.159, 1190.150 800.177, 1195.170 812.853 C 1197.181 817.932, 1197.444 820.636, 1197.789 839.750 L 1198.172 861 1232.466 861 L 1266.761 861 1267.375 828.250 C 1267.713 810.237, 1268.273 740.263, 1268.619 672.750 L 1269.249 550 1281.624 550 L 1294 550 1294 507.658 L 1294 465.316 1275.840 464.658 C 1265.852 464.296, 1252.352 464, 1245.840 464 L 1234 464 1234 479 C 1234 491.667, 1233.767 494, 1232.500 494 C 1231.191 494, 1231 488.834, 1231 453.510 L 1231 413.021 1275.203 412.760 L 1319.405 412.500 1275.703 374.234 L 1232 335.969 1232 324.484 L 1232 313 1226 313 L 1220 313 1219.870 399.250 C 1219.798 446.688, 1219.622 486.850, 1219.477 488.500 C 1219.333 490.150, 1219.166 492.063, 1219.107 492.750 C 1219.044 493.491, 1217.576 494, 1215.500 494 L 1212 494 1212 479.500 L 1212 465 1190.500 465 L 1169 465 1169 479.500 L 1169 494 1158 494 L 1147 494 1147 479 L 1147 464 1126.500 464 L 1106 464 1106 479 L 1106 494 1098 494 L 1090 494 1090 453.510 L 1090 413.021 1133.944 412.760 L 1177.888 412.500 1133.944 374.076 L 1090 335.651 1090 324.326 L 1090 313 1084 313 L 1078 313 1078 389 L 1078 465 1051.500 465 L 1025 465 1025 507.500 L 1025 550 1039 550 L 1053 550 1053 630 L 1053 710 1039.534 710 L 1026.068 710 1025.784 720.750 L 1025.500 731.500 1018.750 731.796 L 1012 732.091 1012 721.046 L 1012 710 989.500 710 L 967 710 967 721 L 967 732 960.500 732 L 954 732 954 611.524 L 954 491.047 971.051 490.774 L 988.101 490.500 944.551 423.662 L 901 356.824 901 331.922 L 901 307.021 945.151 306.760 L 989.301 306.500 945.192 268 L 901.082 229.500 901.041 217.700 L 901 205.900 895.250 206.200 L 889.500 206.500 889.244 279.721 L 888.987 352.943 847.994 421.011 C 825.447 458.448, 807 489.511, 807 490.040 C 807 490.612, 813.258 491, 822.500 491 L 838 491 838 600.500 L 838 710 826.034 710 L 814.068 710 813.784 720.750 L 813.500 731.500 806 731.500 L 798.500 731.500 798.216 720.750 L 797.932 710 783.500 710 L 769.068 710 768.784 720.750 L 768.500 731.500 758.750 731.786 L 749 732.072 749 721.036 L 749 710 745.500 710 L 742 710 742 556 L 742 402 758.500 402 C 767.575 402, 775 401.700, 775 401.333 C 775 400.967, 755.650 360.311, 732 310.988 L 689 221.310 689 193.166 L 689 165.021 732.703 164.761 L 776.405 164.500 732.703 126.234 L 689 87.969 689 76.484 L 689 65 683 65 L 677 65 677 139.514 M 672.733 413.766 L 662 424.533 662 445.766 L 662 467 684 467 L 706 467 706 445.733 L 706 424.466 695.234 413.733 C 689.312 407.830, 684.242 403, 683.967 403 C 683.691 403, 678.636 407.845, 672.733 413.766 M 672.750 484.429 L 662 495.846 662 516.923 L 662 538 684 538 L 706 538 706 516.233 L 706 494.466 695.234 483.733 C 689.312 477.830, 684.250 473.003, 683.984 473.006 C 683.718 473.009, 678.663 478.149, 672.750 484.429 M 460.733 507.766 L 450 518.533 450 540.286 L 450 562.039 471.750 561.770 L 493.500 561.500 493.771 540.037 L 494.041 518.574 483.288 507.787 C 477.373 501.854, 472.294 497, 472 497 C 471.706 497, 466.636 501.845, 460.733 507.766 M 885.327 507.855 L 875.155 518.674 874.995 524.587 C 874.908 527.839, 874.873 537.510, 874.918 546.079 L 875 561.657 896.750 561.579 L 918.500 561.500 918.771 540.537 L 919.042 519.573 907.787 508.287 C 901.597 502.079, 896.300 497.008, 896.016 497.018 C 895.732 497.028, 890.922 501.904, 885.327 507.855 M 672.596 555.250 L 662.023 566.500 662.012 587.750 L 662 609 684 609 L 706 609 706 587.233 L 706 565.466 695.234 554.733 C 689.312 548.830, 684.175 544, 683.818 544 C 683.461 544, 678.411 549.063, 672.596 555.250 M 460.750 578.440 L 450 589.846 450 610.923 L 450 632 472 632 L 494 632 494 610.734 L 494 589.467 482.750 578.250 L 471.500 567.033 460.750 578.440 M 888.961 574.750 C 885.394 578.462, 880.742 583.372, 878.623 585.660 L 874.771 589.819 874.809 608.160 C 874.830 618.247, 874.881 627.737, 874.923 629.250 L 875 632 897 632 L 919 632 919 610.851 L 919 589.701 908.308 578.851 C 902.427 572.883, 897.127 568, 896.531 568 C 895.934 568, 892.528 571.038, 888.961 574.750 M 156.500 592.453 C 151.414 594.315, 145.479 600.613, 144.088 605.623 C 143.462 607.877, 143.009 619.236, 143.006 632.750 L 143 656 166 656 L 189 656 188.990 631.750 C 188.981 608.221, 188.909 607.346, 186.566 602.314 C 182.987 594.627, 177.889 591.576, 168.073 591.244 C 163.302 591.083, 159.020 591.530, 156.500 592.453 M 262.259 592.659 C 256.948 594.540, 251.576 600.657, 250.104 606.501 C 249.461 609.055, 249 620.303, 249 633.443 L 249 656 272.061 656 L 295.123 656 294.811 630.083 L 294.500 604.167 291.487 599.833 C 287.270 593.769, 281.388 590.978, 273.038 591.079 C 269.442 591.122, 264.592 591.833, 262.259 592.659 M 1100.500 592.443 C 1095.409 594.320, 1089.477 600.619, 1088.088 605.623 C 1087.462 607.877, 1087.009 619.236, 1087.006 632.750 L 1087 656 1110 656 L 1133 656 1132.990 631.750 C 1132.981 608.221, 1132.909 607.346, 1130.566 602.314 C 1127.017 594.691, 1122.128 591.764, 1112.196 591.315 C 1107.098 591.085, 1103.150 591.466, 1100.500 592.443 M 1195.500 592.207 C 1190.703 593.883, 1186.156 597.789, 1183.741 602.308 C 1181.623 606.269, 1181.482 607.862, 1181.173 631.250 L 1180.846 656 1203.923 656 L 1227 656 1227.243 637.750 C 1227.563 613.660, 1227.375 608.667, 1225.990 604.470 C 1224.367 599.553, 1220.300 595.041, 1215.541 592.880 C 1211.016 590.824, 1200.469 590.470, 1195.500 592.207 M 460.656 649.163 L 450 660.483 450 681.741 L 450 703 472 703 L 494 703 494 681.734 L 494 660.467 482.656 649.155 L 471.311 637.843 460.656 649.163 M 885.484 649.016 L 874.500 660.034 874.281 679.267 C 874.160 689.845, 874.281 699.513, 874.550 700.750 L 875.038 703 897.019 703 L 919 703 919 681.734 L 919 660.467 907.734 649.233 L 896.467 637.999 885.484 649.016 M 159.718 686.033 C 151.575 688.076, 146.620 692.486, 144.138 699.899 C 143.417 702.053, 143 711.851, 143 726.649 L 143 750 166 750 L 189 750 188.994 726.750 C 188.991 713.613, 188.533 701.857, 187.940 699.723 C 186.729 695.362, 181.972 689.554, 177.877 687.436 C 174.246 685.559, 164.583 684.812, 159.718 686.033 M 265.589 686.060 C 259.563 687.563, 255.246 690.726, 252.241 695.837 L 249.500 700.500 249.187 725.250 L 248.873 750 271.937 750 L 295 750 295 725.696 C 295 701.536, 294.985 701.362, 292.403 696.182 C 287.987 687.320, 277.063 683.196, 265.589 686.060 M 1103.718 686.033 C 1095.575 688.076, 1090.620 692.486, 1088.138 699.899 C 1087.417 702.053, 1087 711.851, 1087 726.649 L 1087 750 1110 750 L 1133 750 1132.994 726.750 C 1132.991 713.613, 1132.533 701.857, 1131.940 699.723 C 1130.729 695.362, 1125.972 689.554, 1121.877 687.436 C 1118.246 685.559, 1108.583 684.812, 1103.718 686.033 M 1197.502 686.078 C 1191.543 687.559, 1186.361 691.633, 1183.785 696.862 C 1181.629 701.239, 1181.482 702.866, 1181.172 725.750 L 1180.844 750 1203.922 750 L 1227 750 1227.074 731.750 C 1227.115 721.712, 1227.349 712.412, 1227.594 711.081 C 1228.336 707.050, 1226.144 697.816, 1223.494 693.812 C 1218.954 686.951, 1207.589 683.569, 1197.502 686.078 M 1.762 941.707 C 3.006 941.946, 4.806 941.937, 5.762 941.687 C 6.718 941.437, 5.700 941.241, 3.500 941.252 C 1.300 941.263, 0.518 941.468, 1.762 941.707 " stroke="none" fill="black" fill-rule="evenodd"/>
</svg>