<?xml version="1.0" standalone="no"?>
<!DOCTYPE svg PUBLIC "-//W3C//DTD SVG 20010904//EN"
 "http://www.w3.org/TR/2001/REC-SVG-20010904/DTD/svg10.dtd">
<svg version="1.0" xmlns="http://www.w3.org/2000/svg"
 width="35" height="30" viewBox="0 0 1226.000000 1038.000000"
 preserveAspectRatio="xMidYMid meet">

<g transform="translate(0.000000,1038.000000) scale(0.100000,-0.100000)"
fill="#000000" stroke="none">
<path d="M5780 8445 l0 -1005 -292 -2 -293 -3 -3 -252 -2 -253 -170 0 -170 0
0 245 0 245 -437 -2 -438 -3 -3 -717 -2 -718 212 -2 213 -3 1 -1440 c0 -792
-1 -1414 -3 -1382 l-4 57 -149 0 -150 0 0 -160 0 -160 -100 0 -100 0 0 160 0
160 -155 0 -155 0 0 -160 0 -160 -70 0 -70 0 0 160 c0 136 -2 160 -15 160 -13
0 -15 40 -15 303 l0 302 240 120 240 120 0 618 0 617 -315 0 -315 0 -2 -207
-3 -208 -320 0 -320 0 -3 208 -2 207 -85 0 -85 0 0 380 0 380 481 0 c264 0
479 4 477 8 -3 8 -838 789 -917 858 l-36 32 -5 243 -5 244 -130 0 -130 0 -3
-1072 -2 -1073 -45 0 -45 0 -2 -207 -3 -208 -320 0 -320 0 -3 208 -2 207 -280
0 -280 0 2 -592 3 -592 150 -91 c83 -50 191 -116 240 -146 l90 -55 3 -1511 2
-1510 337 -5 c294 -5 337 -8 345 -22 8 -14 44 -16 314 -16 262 0 305 2 310 15
5 13 111 15 865 15 755 0 860 -2 865 -15 5 -13 78 -15 571 -15 l566 0 -6 63
c-39 381 -28 882 24 1137 22 108 69 241 108 309 70 119 149 171 261 171 183 0
310 -160 395 -496 55 -219 76 -436 82 -841 l5 -343 564 0 c495 0 564 2 564 15
0 13 89 15 733 16 402 1 1131 0 1618 -1 l886 -2 6 63 c4 35 11 296 17 579 10
455 38 1528 57 2168 l6 224 60 36 c32 21 92 57 132 82 40 25 102 63 139 85
l65 40 1 618 0 617 -315 0 -315 0 0 -210 0 -210 -322 2 -323 3 -3 208 -2 207
-65 0 -65 0 0 380 0 380 461 0 c275 0 459 4 457 9 -1 5 -145 141 -318 302
-173 161 -379 353 -457 427 l-143 134 0 259 0 259 -130 0 -130 0 -1 -810 c-1
-445 -3 -814 -4 -820 -1 -5 -3 -125 -4 -265 l-1 -255 -65 0 -65 0 -2 -207 -3
-208 -317 -3 -318 -2 0 210 0 210 -285 0 -285 0 2 -591 3 -591 90 -55 c154
-95 227 -140 312 -190 l83 -48 0 -302 c0 -296 0 -303 -20 -303 -19 0 -20 -7
-20 -160 l0 -160 -80 0 -80 0 0 160 0 160 -145 0 c-80 0 -145 -3 -146 -7 0 -5
-1 -77 -2 -160 l-2 -153 -102 0 -103 0 0 160 0 160 -150 0 -150 0 0 -160 0
-160 -70 0 -70 0 0 160 c0 137 -2 160 -15 160 -14 0 -15 148 -9 1388 3 763 7
1393 10 1400 2 9 47 12 179 12 l175 0 0 704 0 704 -307 6 c-170 3 -373 7 -453
9 l-145 2 -3 -252 -2 -253 -150 0 -150 0 0 245 0 245 -322 -2 -323 -3 -3 -242
c-2 -174 -6 -243 -14 -243 -8 0 -9 72 -5 278 4 152 7 406 7 565 l0 287 460 0
c381 0 460 2 453 13 -7 12 -539 510 -820 767 l-92 85 -1 263 0 262 -135 0
-135 0 0 -1005z m401 -2 c57 -53 106 -101 107 -105 2 -5 -47 -7 -110 -6 l-113
3 -3 103 c-1 56 1 102 6 102 5 0 56 -44 113 -97z m-650 -1515 c1 -134 1 -246
0 -250 0 -5 179 -8 399 -8 l400 0 0 240 0 240 55 0 55 0 0 -240 0 -240 420 0
420 0 0 245 0 245 154 0 c84 0 168 -3 185 -6 l31 -6 0 -434 0 -434 -175 0
-174 0 -3 -197 c-2 -109 -5 -553 -6 -988 -1 -434 -4 -810 -7 -835 -2 -25 -7
-764 -11 -1642 l-6 -1598 -298 0 -298 0 -6 177 c-8 264 -23 426 -56 620 -93
543 -295 829 -615 873 -339 46 -603 -200 -694 -647 -52 -254 -54 -275 -58
-655 l-5 -368 -289 0 -289 0 0 2610 0 2610 -207 2 -208 3 0 450 0 450 168 3
167 2 0 -240 0 -240 440 0 440 0 0 250 0 250 35 0 35 0 1 -242z m-2873 -540
l72 -68 -115 0 -115 0 0 106 0 106 43 -38 c23 -20 75 -68 115 -106z m7337 25
l99 -93 -117 0 -117 0 0 106 c0 124 -12 125 135 -13z m-8825 -1598 l0 -205
1175 0 1175 0 0 205 0 205 55 0 55 0 0 -399 0 -399 -245 -123 -245 -123 0
-1468 0 -1468 -234 0 -235 0 -3 333 -3 332 -30 85 c-22 65 -40 97 -74 133 -56
61 -85 76 -158 83 -168 18 -283 -66 -336 -245 -18 -58 -21 -104 -24 -388 l-5
-323 -204 0 -204 0 0 1454 0 1454 -32 20 c-18 10 -94 57 -168 102 -74 46 -161
98 -192 116 -32 18 -68 41 -82 51 l-25 18 -1 378 c0 370 0 377 20 377 19 0 20
-7 20 -205z m7360 0 l0 -205 1175 0 1175 0 0 205 0 205 55 0 55 0 0 -407 0
-408 -168 -100 c-92 -55 -181 -109 -198 -120 -32 -20 -32 -20 -38 -130 -4 -60
-11 -337 -16 -615 -6 -278 -21 -883 -35 -1345 -14 -462 -25 -843 -25 -847 0
-5 -90 -8 -200 -8 l-200 0 0 308 c0 169 -5 335 -10 370 -26 158 -95 270 -192
312 -43 18 -65 22 -125 18 -130 -9 -228 -92 -274 -233 -21 -66 -22 -90 -26
-417 l-5 -348 -244 0 -244 0 0 1454 0 1454 -62 40 c-35 22 -97 59 -138 83 -41
24 -96 57 -122 74 -27 16 -77 48 -113 70 l-65 40 0 377 c0 371 0 378 20 378
19 0 20 -7 20 -205z m-4135 -2985 l0 -785 -487 -3 -488 -2 0 790 0 790 488 -2
487 -3 0 -785z m4315 0 l0 -790 -580 0 -580 0 0 790 0 790 580 0 580 0 0 -790z
m1133 21 c15 -6 32 -26 43 -53 17 -39 19 -78 22 -430 l3 -388 -121 0 -121 0 3
378 c3 372 3 378 26 424 26 52 37 63 67 71 33 8 53 7 78 -2z m-7434 -41 c44
-23 78 -200 68 -354 -4 -50 -7 -187 -7 -304 l0 -213 -117 3 -118 3 0 365 c0
328 2 370 18 417 10 29 30 62 44 73 27 21 82 26 112 10z"/>
<path d="M5940 6189 c-114 -16 -190 -68 -231 -154 -17 -36 -19 -68 -19 -343
l0 -302 308 2 307 3 3 279 c3 320 -3 358 -65 427 -46 51 -94 75 -174 89 -35 5
-66 9 -69 9 -3 -1 -30 -5 -60 -10z m160 -209 c19 -19 20 -33 20 -210 l0 -190
-120 0 -120 0 0 189 0 190 26 20 c38 30 165 30 194 1z"/>
<path d="M5944 4670 c-119 -18 -187 -60 -228 -141 l-26 -53 0 -303 0 -303 308
2 307 3 3 270 c4 333 -1 365 -69 439 -37 41 -60 57 -101 69 -71 21 -132 26
-194 17z m125 -191 c17 -6 36 -19 41 -29 6 -10 10 -102 10 -204 l0 -186 -120
0 -120 0 0 190 c0 178 1 191 20 208 37 31 112 41 169 21z"/>
<path d="M2040 3430 l0 -340 305 0 305 0 0 340 0 340 -305 0 -305 0 0 -340z
m418 3 l-3 -148 -110 0 -110 0 -3 148 -3 147 116 0 116 0 -3 -147z"/>
<path d="M9480 3430 l0 -340 305 0 305 0 0 340 0 340 -305 0 -305 0 0 -340z
m418 3 l-3 -148 -112 -3 -113 -3 0 151 0 150 115 0 116 0 -3 -147z"/>
</g>
</svg>
