<svg xmlns="http://www.w3.org/2000/svg" width="35" height="40" viewBox="0 0 1482 886" version="1.1">
	<path d="M 27 442.462 L 27 884.925 17.750 885.255 L 8.500 885.585 18.250 885.792 L 28 886 28 443 C 28 199.350, 27.775 0, 27.500 0 C 27.225 0, 27 199.108, 27 442.462 M 599 148.414 L 599 210.828 567.500 268.603 C 550.175 300.379, 536 326.517, 536 326.689 C 536 326.860, 541.852 327, 549.005 327 L 562.009 327 561.755 430.250 L 561.500 533.500 553.500 533.500 L 545.500 533.500 545.212 524.250 L 544.925 515 523.462 515 L 502 515 502 541.428 L 502 567.856 507.250 569.778 C 510.137 570.835, 518.913 573.856, 526.750 576.492 L 541 581.285 541 635.093 L 541 688.900 535.250 689.200 L 529.500 689.500 529.204 696.250 L 528.909 703 520.454 703 L 512 703 512 696 L 512 689 499 689 L 486 689 486 696 L 486 703 480.093 703 L 474.185 703 473.734 697.250 C 473.486 694.087, 473.214 656.513, 473.130 613.750 L 472.976 536 486.488 536 C 493.920 536, 500 535.743, 500 535.429 C 500 535.115, 482.900 513.328, 462 487.013 L 424 439.168 424 427.596 L 424 416.023 462.646 415.762 L 501.293 415.500 462.646 381.686 L 424 347.872 424 333.436 L 424 319 419.500 319 L 415 319 414.889 325.250 C 414.827 328.688, 414.671 332.625, 414.542 334 C 414.413 335.375, 414.238 361.937, 414.154 393.028 L 414 449.556 382.542 492.528 L 351.083 535.500 364.042 535.779 L 377 536.058 376.801 619.779 C 376.692 665.826, 376.447 700.237, 376.257 696.250 L 375.912 689 362.956 689 L 350 689 350 696 L 350 703 343.500 703 L 337 703 337 696 L 337 689 325.375 689 L 313.750 689 314.375 685.875 C 314.719 684.156, 315 658.523, 315 628.911 L 315 575.072 324.750 574.786 L 334.500 574.500 334.500 545.500 L 334.500 516.500 324.100 516.213 L 313.701 515.927 314.350 505.308 C 314.708 499.467, 315 471.134, 315 442.344 L 315 390 325 390 L 335 390 335 361.156 L 335 332.311 320.750 331.659 C 312.912 331.301, 302.113 331.006, 296.750 331.004 L 287 331 287 341.500 C 287 351.333, 286.873 352, 285 352 C 283.037 352, 283 351.333, 283 316 L 283 280 319.556 280 L 356.112 280 319.556 247.981 L 283 215.962 283 206.481 L 283 197 278.500 197 L 274 197 273.892 221.250 C 273.833 234.588, 273.656 247.075, 273.500 249 C 273.344 250.925, 273.167 274.887, 273.108 302.250 C 273.014 345.758, 272.812 352, 271.500 352 C 270.267 352, 270 350.222, 270 342 L 270 332 253 332 L 236 332 236 342 L 236 352 227.500 352 L 219 352 219 341.500 L 219 331 202.500 331 L 186 331 186 341.500 L 186 352 181 352 L 176 352 176 316.012 L 176 280.025 212.361 279.762 L 248.723 279.500 212.361 247.686 L 176 215.872 176 206.436 L 176 197 171.500 197 L 167 197 166.863 241.250 C 166.788 265.587, 166.625 286.625, 166.502 288 C 166.378 289.375, 166.215 299.837, 166.139 311.250 L 166 332 144.500 332 L 123 332 123 361 L 123 390 134.007 390 L 145.015 390 144.757 453.250 L 144.500 516.500 133.749 516.500 L 122.999 516.500 122.999 545.750 L 123 575 134 575 L 145 575 145 680 L 145 785 169.912 785 L 194.824 785 195.212 769.250 C 195.546 755.677, 195.923 752.682, 197.935 747.581 C 202.825 735.185, 212.437 728.732, 225.991 728.743 C 234.882 728.751, 239.941 730.579, 245.169 735.673 C 252.602 742.915, 255.979 754.952, 255.992 774.250 L 256 785 487.928 785 L 719.855 785 720.207 764.250 C 720.530 745.247, 720.758 743, 722.923 737.559 C 726.142 729.467, 732.998 722.672, 740.059 720.575 C 758.188 715.191, 772.571 722.462, 778.077 739.792 C 779.970 745.750, 780.194 748.654, 780.082 765.750 L 779.956 785 1016.978 785 L 1254 785 1254.017 773.250 C 1254.062 742.709, 1263.811 729, 1285.658 728.756 C 1298.694 728.610, 1306.940 734.556, 1312.144 747.855 C 1313.996 752.588, 1314.422 756.045, 1314.781 769.250 L 1315.210 785 1339.605 785 L 1364 785 1364 738.665 C 1364 713.180, 1364.299 665.930, 1364.664 633.665 L 1365.328 575 1374.679 575 L 1384.030 575 1383.765 545.750 L 1383.500 516.500 1373.589 516.212 L 1363.678 515.924 1364.339 481.298 C 1364.702 462.255, 1365 433.922, 1365 418.337 L 1365 390 1374.500 390 L 1384 390 1384 361 L 1384 332 1378.656 332 C 1375.716 332, 1368.516 331.707, 1362.656 331.348 L 1352 330.696 1352 305.360 L 1352 280.025 1388.439 279.762 L 1424.877 279.500 1388.973 248.115 L 1353.069 216.730 1352.785 207.115 L 1352.500 197.500 1347.750 197.195 L 1343 196.890 1343 263.945 L 1343 331 1340 331 L 1337 331 1337 341.500 L 1337 352 1328.500 352 L 1320 352 1320 342 L 1320 332 1303 332 L 1286 332 1286 342 L 1286 352 1277.500 352 L 1269 352 1269 341.500 L 1269 331 1252.500 331 L 1236 331 1236 341.500 L 1236 352 1227 352 L 1218 352 1218 342 C 1218 336, 1217.600 332, 1217 332 C 1216.359 332, 1216 322.671, 1216 306.012 L 1216 280.025 1252.361 279.762 L 1288.723 279.500 1252.294 247.627 L 1215.866 215.755 1216.038 208.127 C 1216.307 196.287, 1216.597 197, 1211.500 197 L 1207 197 1206.886 246.750 C 1206.824 274.113, 1206.664 298.075, 1206.531 300 C 1206.399 301.925, 1206.225 309.913, 1206.145 317.750 L 1206 332 1189.500 332 L 1173 332 1173 361 L 1173 390 1183.500 390 L 1194 390 1194 453.487 L 1194 516.974 1183.500 516.699 L 1173 516.424 1173 545.712 L 1173 575 1183.500 575 L 1194 575 1194 632 C 1194 682, 1193.816 689, 1192.500 689 C 1191.310 689, 1191 690.444, 1191 696 L 1191 703 1184 703 L 1177 703 1177 695.970 L 1177 688.940 1164.250 689.220 L 1151.500 689.500 1151.204 696.250 L 1150.909 703 1142.454 703 L 1134 703 1134 696 L 1134 689 1129 689 L 1124 689 1124 612.527 L 1124 536.055 1137.879 535.777 L 1151.758 535.500 1113.355 487.152 L 1074.951 438.804 1075.226 422.652 L 1075.500 406.500 1113.872 406 L 1152.244 405.500 1114.122 372.132 L 1076 338.764 1076 328.882 L 1076 319 1071.021 319 L 1066.042 319 1065.771 384.250 L 1065.500 449.500 1033.892 492.500 L 1002.283 535.500 1015.142 535.779 L 1028 536.058 1028 612.481 L 1028 688.905 1021.750 689.202 L 1015.500 689.500 1015.204 696.250 L 1014.909 703 1006.454 703 L 998 703 998 696 L 998 689 985 689 L 972 689 972 696 L 972 703 966 703 L 960 703 959.882 699.250 C 959.816 697.188, 959.844 695.079, 959.943 694.564 C 960.043 694.050, 959.862 692.587, 959.543 691.314 C 959.065 689.411, 958.297 689, 955.221 689 L 951.479 689 953.670 642.250 C 954.876 616.538, 955.893 592.319, 955.931 588.432 L 956 581.363 971.500 575.936 L 987 570.508 987 542.754 L 987 515 964.038 515 L 941.075 515 940.788 524.250 L 940.500 533.500 930.250 533.785 L 920 534.070 920 430.535 L 920 327 933.500 327 C 940.925 327, 947 326.743, 947 326.429 C 947 326.115, 929.889 296.878, 908.976 261.459 L 870.951 197.060 871.226 180.280 L 871.500 163.500 904.968 163 L 938.436 162.500 904.718 133.011 L 871 103.522 871 94.761 L 871 86 866.645 86 L 862.289 86 861.652 92.750 C 861.301 96.463, 861.011 124.739, 861.007 155.587 L 861 211.674 829.676 269.087 L 798.353 326.500 811.176 326.779 L 824 327.058 824 430.529 L 824 534 811 534 L 798 534 798 524.500 L 798 515 776.484 515 L 754.967 515 755.234 541.655 L 755.500 568.310 761 570.146 C 764.025 571.155, 772.471 574.064, 779.769 576.610 L 793.038 581.239 792.769 603.369 L 792.500 625.500 785.750 625.796 L 779 626.091 779 619.046 L 779 612 766 612 L 753 612 753 619 L 753 626 744.500 626 L 736 626 736 619 L 736 612 722.500 612 L 709 612 709 619 L 709 626 705.378 626 L 701.756 626 702.427 606.250 C 702.796 595.388, 703.326 585.308, 703.606 583.851 C 704.069 581.440, 705.484 580.709, 719.307 575.746 L 734.500 570.291 734.766 542.645 L 735.032 515 711.553 515 L 688.075 515 687.788 524.250 L 687.500 533.500 672.500 533.500 L 657.500 533.500 657.500 430.500 L 657.500 327.500 671.238 327 L 684.976 326.500 646.988 262.211 L 609 197.922 609 185.473 L 609 173.023 647.512 172.762 L 686.024 172.500 647.576 139 L 609.128 105.500 609.064 95.750 L 609 86 604 86 L 599 86 599 148.414 M 600.750 336.831 L 592 344.404 592 359.202 L 592 374 610 374 L 628 374 628 359.160 L 628 344.319 620.249 337.910 C 615.986 334.384, 611.823 330.996, 610.999 330.379 C 609.789 329.475, 607.812 330.720, 600.750 336.831 M 862.750 356.677 L 854 364.261 854 378.630 L 854 393 872.500 393 L 891 393 891 378.687 L 891 364.373 882.461 357.140 C 877.765 353.162, 873.378 349.724, 872.711 349.500 C 872.045 349.276, 867.563 352.506, 862.750 356.677 M 600.739 385.548 L 592 393.096 592 407.548 L 592 422 610 422 L 628 422 628 407.568 L 628 393.136 619.080 385.568 C 614.174 381.406, 610.006 378, 609.819 378 C 609.631 378, 605.545 381.397, 600.739 385.548 M 863.248 404.820 L 854.120 412.500 854.060 427.273 L 854 442.045 872.250 441.773 L 890.500 441.500 890.500 427.078 L 890.500 412.655 881.438 404.898 L 872.377 397.141 863.248 404.820 M 173.500 418.412 C 169.822 420.046, 166.486 423.568, 165.067 427.315 C 164.479 428.867, 164 437.059, 164 445.565 L 164 461 183 461 L 202 461 202 444.148 C 202 428.292, 201.866 427.095, 199.730 423.898 C 196.417 418.938, 191.820 416.996, 183.500 417.041 C 179.650 417.061, 175.150 417.678, 173.500 418.412 M 260.271 418.964 C 252.831 422.341, 252.008 424.862, 252.004 444.272 L 252 461.044 270.750 460.772 L 289.500 460.500 289.500 444 C 289.500 425.030, 288.679 422.475, 281.456 418.979 C 276.014 416.344, 266.057 416.337, 260.271 418.964 M 1232.271 418.964 C 1224.833 422.340, 1224.008 424.864, 1224.004 444.250 L 1224 461 1243 461 L 1262 461 1262 445.316 C 1262 426.929, 1260.796 422.940, 1254.114 419.184 C 1248.975 416.296, 1238.383 416.189, 1232.271 418.964 M 1312.243 417.850 C 1308.097 419.044, 1303.129 423.873, 1302.051 427.757 C 1301.479 429.815, 1301.009 438.137, 1301.006 446.250 L 1301 461 1320.063 461 L 1339.126 461 1338.813 443.078 C 1338.507 425.553, 1338.445 425.096, 1336 422.449 C 1334.625 420.960, 1332.052 419.125, 1330.282 418.371 C 1327.009 416.977, 1316.344 416.668, 1312.243 417.850 M 600.257 434.314 L 592.014 441.500 592.007 456.250 L 592 471 610 471 L 628 471 628 456.199 L 628 441.399 619.258 434.199 C 614.450 430.240, 610.062 427.029, 609.508 427.064 C 608.954 427.099, 604.791 430.362, 600.257 434.314 M 862.750 453.770 L 854 461.404 854 475.702 L 854 490 872.500 490 L 891 490 891 475.687 L 891 461.374 881.939 453.937 C 876.955 449.847, 872.567 446.418, 872.189 446.318 C 871.810 446.218, 867.563 449.572, 862.750 453.770 M 173.500 486.412 C 169.822 488.046, 166.486 491.568, 165.067 495.315 C 164.479 496.867, 164 505.059, 164 513.565 L 164 529 183 529 L 202 529 202 512.148 C 202 496.315, 201.864 495.096, 199.750 491.999 C 196.309 486.958, 191.726 484.993, 183.516 485.039 C 179.657 485.061, 175.150 485.678, 173.500 486.412 M 260.271 486.912 C 252.828 490.382, 252.008 492.894, 252.004 512.250 L 252 529 270.481 529 L 288.962 529 289.576 526.554 C 289.914 525.208, 290.035 517.590, 289.845 509.625 C 289.470 493.881, 288.949 492.291, 282.621 487.566 C 278.591 484.558, 266.106 484.192, 260.271 486.912 M 1232.271 486.912 C 1224.828 490.382, 1224.008 492.894, 1224.004 512.250 L 1224 529 1242.439 529 L 1260.877 529 1261.543 524.560 C 1261.909 522.119, 1262.049 514.501, 1261.854 507.633 C 1261.470 494.105, 1260.768 492.156, 1254.621 487.566 C 1250.591 484.558, 1238.106 484.192, 1232.271 486.912 M 1310.020 487.250 C 1302.057 491.319, 1301.547 492.747, 1301.166 512.071 L 1300.831 529 1319.979 529 L 1339.126 529 1338.813 511.078 C 1338.507 493.553, 1338.445 493.096, 1336 490.449 C 1332.432 486.586, 1327.993 485, 1320.744 485 C 1316.161 485, 1313.213 485.618, 1310.020 487.250 M 1066.739 541.548 L 1058 549.096 1058 563.548 L 1058 578 1076.500 578 L 1095 578 1094.943 563.250 L 1094.885 548.500 1086.040 541.250 C 1081.175 537.263, 1076.808 534, 1076.336 534 C 1075.864 534, 1071.545 537.397, 1066.739 541.548 M 416.088 550.752 L 407 558.491 407 573.245 L 407 588 424.846 588 L 442.693 588 443.299 573.828 C 443.632 566.033, 443.685 559.300, 443.417 558.865 C 443.148 558.430, 438.934 554.686, 434.052 550.544 L 425.176 543.013 416.088 550.752 M 589 576.500 L 589 591 613.500 591 L 638 591 638 576.500 L 638 562 613.500 562 L 589 562 589 576.500 M 852 576.500 L 852 591 876 591 L 900 591 900 576.500 L 900 562 876 562 L 852 562 852 576.500 M 1067.075 589.751 L 1057.961 597.500 1058.231 612 L 1058.500 626.500 1076.500 626.500 L 1094.500 626.500 1094.775 611.970 L 1095.051 597.441 1087.817 591.470 C 1083.839 588.187, 1079.595 584.713, 1078.386 583.751 C 1076.225 582.032, 1076.035 582.133, 1067.075 589.751 M 415.750 599.606 L 407 607.158 407 621.579 L 407 636 425 636 L 443 636 443.014 629.750 C 443.021 626.313, 443.300 619.891, 443.634 615.481 L 444.241 607.461 434.889 599.731 C 429.746 595.479, 425.304 592.012, 425.019 592.026 C 424.733 592.041, 420.563 595.452, 415.750 599.606 M 174.684 612.388 C 165.350 615.866, 164 619.351, 164 639.968 L 164 656 183 656 L 202 656 202 639.401 C 202 620.586, 201.195 617.520, 195.298 613.875 C 190.841 611.121, 180.153 610.349, 174.684 612.388 M 264.500 611.715 C 259.931 612.817, 255.910 615.410, 254.016 618.474 C 252.200 621.412, 252 623.437, 252 638.868 L 252 656 270.481 656 L 288.962 656 289.574 653.562 C 289.911 652.220, 290.032 644.377, 289.843 636.133 C 289.540 622.903, 289.258 620.811, 287.441 618.321 C 283.226 612.544, 273.121 609.634, 264.500 611.715 M 1236.500 611.715 C 1231.931 612.817, 1227.910 615.410, 1226.016 618.474 C 1224.200 621.412, 1224 623.437, 1224 638.868 L 1224 656 1242.455 656 L 1260.909 656 1261.552 652.573 C 1261.906 650.689, 1262.039 642.846, 1261.848 635.145 C 1261.544 622.922, 1261.238 620.784, 1259.441 618.321 C 1255.226 612.544, 1245.121 609.634, 1236.500 611.715 M 1312.749 612.143 C 1307.642 613.581, 1303.400 617.802, 1302.059 622.780 C 1301.411 625.186, 1301.061 632.903, 1301.222 641.210 L 1301.500 655.500 1320.250 655.772 L 1339 656.044 1338.996 638.772 C 1338.992 619.420, 1338.230 616.722, 1331.839 613.417 C 1327.887 611.373, 1317.862 610.704, 1312.749 612.143 M 600.500 633.217 C 597.901 634.706, 595.712 637.070, 594.250 639.966 C 592.143 644.141, 592 645.678, 592 664.212 L 592 684 611.072 684 L 630.145 684 629.822 663.250 C 629.468 640.466, 628.940 638.273, 622.682 633.609 C 618.307 630.347, 605.892 630.128, 600.500 633.217 M 864.450 632.407 C 860.458 634.146, 856.336 639.131, 855.044 643.781 C 854.476 645.826, 854.009 655.712, 854.006 665.750 L 854 684 873.055 684 L 892.110 684 891.805 662.570 C 891.522 642.656, 891.352 640.941, 889.408 638.320 C 885.403 632.921, 881.357 630.996, 874.102 631.039 C 870.471 631.061, 866.128 631.676, 864.450 632.407 M 1066.750 638.606 L 1058 646.158 1058 660.579 L 1058 675 1076.500 675 L 1095 675 1095 660.568 L 1095 646.136 1086.080 638.568 C 1081.174 634.406, 1076.787 631.012, 1076.330 631.026 C 1075.874 631.041, 1071.563 634.452, 1066.750 638.606 M 415.617 648.250 L 407.055 655.500 407.028 670.250 L 407 685 425 685 L 443 685 443.006 678.750 C 443.009 675.313, 443.295 668.869, 443.640 664.432 L 444.268 656.363 435.214 648.682 C 430.234 644.457, 425.714 641, 425.169 641 C 424.624 641, 420.325 644.263, 415.617 648.250 M 178 669.889 C 172.857 670.996, 168.550 673.524, 166.398 676.699 C 164.754 679.126, 164.456 681.804, 164.167 696.750 L 163.835 714 182.917 714 L 202 714 202 697.148 C 202 681.320, 201.863 680.093, 199.747 676.952 C 198.507 675.113, 196.145 672.824, 194.497 671.866 C 190.941 669.799, 182.899 668.835, 178 669.889 M 263.648 670.391 C 260.852 671.170, 257.462 673.075, 255.648 674.888 L 252.500 678.033 252.187 696.017 L 251.874 714 270.320 714 L 288.767 714 289.326 711.250 C 289.634 709.737, 289.799 702.200, 289.693 694.500 C 289.528 682.522, 289.211 680.009, 287.500 677.098 C 283.748 670.715, 273.164 667.739, 263.648 670.391 M 1235.648 670.391 C 1232.852 671.170, 1229.462 673.075, 1227.648 674.888 L 1224.500 678.033 1224.187 696.039 L 1223.873 714.045 1242.687 713.772 L 1261.500 713.500 1261.772 698 C 1262.025 683.559, 1261.888 682.196, 1259.772 678.058 C 1256.027 670.736, 1245.927 667.526, 1235.648 670.391 M 1313.704 670.425 C 1307.937 671.975, 1303.344 676.103, 1301.999 680.943 C 1301.456 682.899, 1301.009 691.138, 1301.006 699.250 L 1301 714 1320 714 L 1339 714 1339 696.723 C 1339 682.011, 1338.745 679.078, 1337.281 676.973 C 1334.467 672.926, 1331.774 671.164, 1326.701 670.052 C 1320.832 668.765, 1319.760 668.796, 1313.704 670.425 M 1.762 885.707 C 3.006 885.946, 4.806 885.937, 5.762 885.687 C 6.718 885.437, 5.700 885.241, 3.500 885.252 C 1.300 885.263, 0.518 885.468, 1.762 885.707 " stroke="none" fill="black" fill-rule="evenodd"/>
</svg>