<svg xmlns="http://www.w3.org/2000/svg" width="35" height="40" viewBox="0 0 754 990" version="1.1">
	<path d="M 27 494.462 L 27 988.925 17.750 989.255 L 8.500 989.585 18.250 989.792 L 28 990 28 495 C 28 222.750, 27.775 0, 27.500 0 C 27.225 0, 27 222.508, 27 494.462 M 411.491 116.738 C 398.934 146.861, 377.278 194.834, 361.265 228 C 343.897 263.972, 323.533 300.296, 310.654 318.273 C 288.247 349.552, 241.036 400.944, 170.443 470.900 L 125.941 515 172.971 515 L 220 515 220 689 L 220 863 406.500 863 L 593 863 593 689 L 593 515 638.500 515 C 663.525 515, 684 514.791, 684 514.536 C 684 514.281, 666.401 496.619, 644.891 475.286 C 582.555 413.464, 542.070 369.863, 515.120 335.527 C 496.502 311.805, 461.568 235.174, 425.539 139.017 C 419.670 123.351, 414.742 110.408, 414.589 110.255 C 414.435 110.102, 413.042 113.019, 411.491 116.738 M 388.500 501.301 C 375.805 507.407, 365.070 526.690, 359.586 553.237 C 358.251 559.700, 358 569.555, 358 615.469 L 358 670.021 400.750 669.761 L 443.500 669.500 443.485 609.500 C 443.469 549.945, 443.452 549.431, 441.129 540.155 C 434.682 514.413, 420.901 500.196, 401.500 499.276 C 394.625 498.950, 392.797 499.235, 388.500 501.301 M 1.762 989.707 C 3.006 989.946, 4.806 989.937, 5.762 989.687 C 6.718 989.437, 5.700 989.241, 3.500 989.252 C 1.300 989.263, 0.518 989.468, 1.762 989.707 " stroke="none" fill="black" fill-rule="evenodd"/>
</svg>