<svg xmlns="http://www.w3.org/2000/svg" width="35" height="40" viewBox="0 0 1556 950" version="1.1">
	<path d="M 790.034 154.637 L 789.938 220.274 756.067 282.387 L 722.197 344.500 735.099 344.779 L 748 345.058 748 439.029 L 748 533 739.500 533 L 731 533 731 607.500 C 731 656.500, 730.658 682, 730 682 C 729.429 682, 729 679, 729 675 L 729 668 717.500 668 L 706 668 706 675 L 706 682 700.500 682 L 695 682 695 675 L 695 668 683.500 668 L 672 668 672 712 L 672 756 665 756 L 658 756 658 763 L 658 770 654.415 770 L 650.829 770 651.414 762.750 C 651.735 758.763, 652.905 733.900, 654.013 707.500 C 655.121 681.100, 656.271 656.800, 656.568 653.500 L 657.109 647.500 672.555 642.072 L 688 636.644 688 609.322 L 688 582 680.750 581.936 C 676.763 581.900, 666.188 581.788, 657.250 581.686 L 641.001 581.500 641 590.750 L 641 600 626 600 L 611 600 611 506.500 L 611 413 624.500 413 C 631.925 413, 638 412.807, 638 412.571 C 638 412.335, 622.025 385.122, 602.500 352.098 L 567 292.054 567 265.540 L 567 239.025 602.867 238.762 L 638.733 238.500 602.867 207.133 L 567 175.766 567 166.383 L 567 157 562 157 L 557 157 557 222.300 L 557 287.601 523.003 350.050 L 489.006 412.500 502.003 412.779 L 515 413.058 515 506.529 L 515 600 506.500 600 L 498 600 498 591 C 498 586.050, 497.663 581.983, 497.250 581.962 C 495.829 581.890, 463.492 581.865, 459.233 581.933 L 454.967 582 455.233 608.206 L 455.500 634.412 474.500 640.956 L 493.500 647.500 493.759 701.750 L 494.017 756 488.009 756 L 482 756 482 763 L 482 770 473.500 770 L 465 770 465 763 L 465 756 452 756 L 439 756 439 763 L 439 770 433.152 770 L 427.304 770 426.652 759.344 C 426.293 753.484, 426 715.684, 426 675.344 L 426 602 439.500 602 C 446.925 602, 453 601.783, 453 601.518 C 453 601.253, 435.641 579.196, 414.424 552.501 L 375.848 503.966 373.957 506.233 C 372.092 508.470, 372.066 508.197, 372.033 485.762 L 372 463.025 408.367 462.762 L 444.733 462.500 408.902 431.164 L 373.070 399.827 372.785 390.164 L 372.500 380.500 367.770 380.196 L 363.039 379.892 362.770 451.196 L 362.500 522.500 333.293 562.250 L 304.086 602 317.043 602 L 330 602 329.801 686.250 C 329.692 732.587, 329.447 767.237, 329.257 763.250 L 328.912 756 315.956 756 L 303 756 303 763 L 303 770 297 770 L 291 770 291 763 L 291 756 279.500 756 L 268 756 268 698.500 L 268 641 278 641 L 288 641 288 612 L 288 583 277.993 583 L 267.985 583 268.243 519.750 L 268.500 456.500 278.250 456.214 L 288 455.928 288 426.964 L 288 398 269.140 398 C 258.766 398, 248.191 397.714, 245.640 397.364 L 241 396.728 241 407.364 L 241 418 238.487 418 L 235.975 418 236.237 382.250 L 236.500 346.500 272.397 346 L 308.294 345.500 273.703 315.234 C 254.677 298.588, 238.484 284.341, 237.718 283.575 C 236.662 282.519, 236.428 279.978, 236.751 273.091 L 237.177 264 232.088 264 L 227 264 226.888 321.750 C 226.827 353.512, 226.643 381.300, 226.480 383.500 C 226.317 385.700, 226.142 394.363, 226.092 402.750 C 226.014 415.598, 225.764 418, 224.500 418 C 223.267 418, 223 416.222, 223 408 L 223 398 206 398 L 189 398 189 408 L 189 418 180.500 418 L 172 418 172 407.500 L 172 397 156 397 L 140 397 140 407.500 L 140 418 130.656 418 L 121.312 418 120.656 402.841 C 120.295 394.504, 120 378.309, 120 366.853 L 120 346.025 155.851 345.762 L 191.701 345.500 155.851 314.202 L 120 282.904 120 273.452 L 120 264 115 264 L 110 264 110 331 L 110 398 93 398 L 76 398 76 427 L 76 456 87 456 L 98 456 98 519.500 L 98 583 87 583 L 76 583 76 612 L 76 641 87 641 L 98 641 98 746.500 L 98 852 122.874 852 L 147.748 852 148.233 840.750 C 148.844 826.569, 151.262 819.643, 157.928 812.976 C 163.745 807.160, 169.740 804.992, 179.928 805.022 C 189.411 805.049, 194.123 807.061, 199.794 813.503 C 205.307 819.766, 207.991 828.254, 208.728 841.752 L 209.287 852.004 480.394 851.752 L 751.500 851.500 752 811.500 C 752.488 772.429, 752.553 771.384, 754.797 766.500 C 757.753 760.063, 765.056 752.652, 770.935 750.123 C 782.346 745.214, 797.898 744.997, 808 749.604 C 816.951 753.687, 821.951 759.484, 825.595 770 C 827.365 775.111, 827.476 778.206, 827.158 813.750 L 826.816 852 1109.280 852 L 1391.743 852 1392.253 841.250 C 1392.851 828.672, 1394.769 822.162, 1399.865 815.424 C 1405.027 808.597, 1411.298 805.598, 1421.375 805.137 C 1431.407 804.678, 1436.047 806.081, 1441.682 811.274 C 1449.375 818.366, 1452.958 828.660, 1452.985 843.750 L 1453 852 1481.840 852 L 1510.680 852 1511.350 802.250 C 1511.718 774.888, 1512.090 730.675, 1512.177 704 C 1512.263 677.325, 1512.521 652.238, 1512.749 648.250 L 1513.164 641 1522.582 641 L 1532 641 1532 612 L 1532 583 1522 583 L 1512 583 1512 530.156 C 1512 501.091, 1512.293 472.516, 1512.652 466.656 L 1513.304 456 1522.652 456 L 1532 456 1532 427 L 1532 398 1513.750 397.991 C 1503.713 397.987, 1493.138 397.699, 1490.250 397.352 L 1485 396.721 1485 407.361 L 1485 418 1482.452 418 L 1479.904 418 1480.202 382.250 L 1480.500 346.500 1516.451 346 L 1552.401 345.500 1516.701 314.231 L 1481 282.962 1481 273.481 L 1481 264 1476 264 L 1471 264 1471 341 C 1471 417.333, 1470.983 418, 1469 418 C 1467.133 418, 1467 417.333, 1467 407.976 L 1467 397.952 1450.250 398.226 L 1433.500 398.500 1433.214 408.250 L 1432.928 418 1424.464 418 L 1416 418 1416 407.500 L 1416 397 1400 397 L 1384 397 1384 407.500 L 1384 418 1375 418 L 1366 418 1366 408.559 C 1366 403.344, 1365.552 398.841, 1365 398.500 C 1364.375 398.114, 1364 388.160, 1364 371.953 L 1364 346.025 1399.960 345.762 L 1435.920 345.500 1399.960 314.103 L 1364 282.706 1364 273.353 L 1364 264 1359 264 L 1354 264 1354 331 L 1354 398 1337 398 L 1320 398 1320 427 L 1320 456 1331 456 L 1342 456 1342 519.500 L 1342 583 1331 583 L 1320 583 1320 612 L 1320 641 1331 641 L 1342 641 1342 698.500 C 1342 748.142, 1341.801 756, 1340.546 756 C 1339.446 756, 1339.019 757.646, 1338.796 762.750 L 1338.500 769.500 1331.750 769.796 L 1325 770.091 1325 763.046 L 1325 756 1312 756 L 1299 756 1299 763 L 1299 770 1290.500 770 L 1282 770 1282 763.052 L 1282 756.105 1276.750 755.802 L 1271.500 755.500 1271.550 751.750 C 1271.577 749.688, 1271.690 715.163, 1271.800 675.028 L 1272 602.056 1285.479 601.778 L 1298.957 601.500 1263.479 556.828 L 1228 512.157 1228 487.591 L 1228 463.025 1264.091 462.762 L 1300.181 462.500 1264.107 431 L 1228.032 399.500 1228.016 389.750 L 1228 380 1223 380 L 1218 380 1218 444.378 L 1218 508.755 1184.044 555.128 L 1150.089 601.500 1163.044 601.779 L 1176 602.058 1176 679.029 L 1176 756 1169.500 756 L 1163 756 1163 763 L 1163 770 1154.500 770 L 1146 770 1146 763 L 1146 756 1132.500 756 L 1119 756 1119 763 L 1119 770 1113 770 L 1107 770 1107 763 L 1107 756 1103 756 C 1099.851 756, 1099.004 755.628, 1099.017 754.250 C 1099.075 748.370, 1103.973 647.706, 1104.210 647.525 C 1104.369 647.403, 1111.362 644.924, 1119.750 642.016 L 1135 636.730 1135 609.365 L 1135 582 1128.250 581.934 C 1124.537 581.898, 1114.075 581.860, 1105 581.851 L 1088.500 581.833 1088.212 590.917 L 1087.925 600 1077.462 600 L 1067 600 1067 506.527 L 1067 413.055 1081.011 412.777 L 1095.022 412.500 1059.534 352.500 L 1024.045 292.500 1024.023 265.750 L 1024 239 1060.063 239 L 1096.126 239 1060.063 207.459 L 1024 175.917 1024 166.459 L 1024 157 1019 157 L 1014 157 1014 222.162 L 1014 287.325 980 349.763 C 961.300 384.104, 946 412.381, 946 412.601 C 946 412.820, 951.850 413, 959 413 L 972 413 972 506.500 L 972 600 958.538 600 L 945.075 600 944.788 590.922 L 944.500 581.844 928 581.855 C 918.925 581.860, 909.355 581.896, 906.733 581.933 L 901.967 582 902.233 608.198 L 902.500 634.395 921.740 640.948 L 940.981 647.500 940.990 701.750 L 941 756 935.500 756 L 930 756 930 763 C 930 767, 929.571 770, 929 770 C 928.346 770, 928 752.333, 928 719 L 928 668 916.500 668 L 905 668 905 675 L 905 682 899 682 L 893 682 893 675 L 893 668 881.500 668 L 870 668 870 675 L 870 682 865 682 L 860 682 860 607.500 L 860 533 852 533 L 844 533 844 439 L 844 345 857.607 345 C 868.749 345, 871.118 344.751, 870.686 343.623 C 870.395 342.866, 854.372 315.537, 835.079 282.891 L 800 223.535 800 197.280 L 800 171.025 836.022 170.762 L 872.045 170.500 836.022 139.019 L 800 107.538 800 98.269 L 800 89 795.065 89 L 790.130 89 790.034 154.637 M 787.100 354.742 L 778 362.491 778 377.245 L 778 392 795.864 392 L 813.728 392 814.364 387.360 C 814.714 384.809, 815 378.171, 815 372.610 L 815 362.500 811.750 359.897 C 809.962 358.465, 805.732 354.976, 802.350 352.143 L 796.199 346.993 787.100 354.742 M 553.750 422.679 L 545 430.261 545 445.130 L 545 460 563 460 L 581 460 581 445.068 L 581 430.136 572.080 422.568 C 567.174 418.406, 563.012 415.022, 562.830 415.049 C 562.649 415.076, 558.563 418.509, 553.750 422.679 M 786.739 442.548 L 778 450.096 778 464.548 L 778 479 795.864 479 L 813.728 479 814.364 474.360 C 814.714 471.809, 815 465.343, 815 459.992 L 815 450.263 806.027 442.632 C 801.092 438.434, 796.699 435, 796.266 435 C 795.832 435, 791.545 438.397, 786.739 442.548 M 1010.662 442.211 L 1002.055 449.500 1002.028 464.250 L 1002 479 1020 479 L 1038 479 1037.992 464.250 L 1037.983 449.500 1029.429 442.500 C 1024.724 438.650, 1020.514 435.370, 1020.072 435.211 C 1019.630 435.053, 1015.396 438.203, 1010.662 442.211 M 553.815 471.267 L 545.131 478.500 545.065 493.250 L 545 508 563 508 L 581 508 580.992 493.250 L 580.983 478.500 572.429 471.500 C 567.724 467.650, 563.566 464.395, 563.187 464.267 C 562.809 464.139, 558.592 467.289, 553.815 471.267 M 127.500 484.502 C 122.083 486.417, 118.288 490.859, 117.518 496.187 C 117.174 498.559, 117.030 506.575, 117.197 514 L 117.500 527.500 136.250 527.772 L 155 528.044 154.996 510.772 C 154.993 495.216, 154.792 493.171, 152.976 490.192 C 149.075 483.794, 137.079 481.115, 127.500 484.502 M 215.951 484.327 C 206.132 487.573, 205.014 490.326, 205.006 511.272 L 205 528.044 223.750 527.772 L 242.500 527.500 242.805 512.500 C 242.974 504.134, 242.653 495.934, 242.077 493.958 C 239.478 485.044, 227.331 480.565, 215.951 484.327 M 1010.750 490.743 L 1002 498.261 1002 513.130 L 1002 528 1020 528 L 1038 528 1038 513.177 L 1038 498.353 1029.750 491.363 C 1025.213 487.518, 1021.050 484.114, 1020.500 483.799 C 1019.950 483.483, 1015.563 486.608, 1010.750 490.743 M 1381.684 484.388 C 1372.350 487.866, 1371 491.351, 1371 511.968 L 1371 528 1390 528 L 1409 528 1409 511.401 C 1409 492.586, 1408.195 489.520, 1402.298 485.875 C 1397.841 483.121, 1387.153 482.349, 1381.684 484.388 M 1459.684 484.388 C 1457.585 485.170, 1454.951 486.639, 1453.831 487.653 C 1449.516 491.558, 1449 494.100, 1449 511.450 L 1449 528 1468.064 528 L 1487.129 528 1486.814 510.570 C 1486.472 491.612, 1486.139 490.433, 1479.780 485.685 C 1476.353 483.126, 1465.029 482.395, 1459.684 484.388 M 553.257 520.314 L 545.014 527.500 545.007 542.250 L 545 557 563 557 L 581 557 581 542.177 L 581 527.353 572.572 520.177 C 567.936 516.230, 563.549 513.029, 562.822 513.064 C 562.095 513.099, 557.791 516.362, 553.257 520.314 M 787.082 529.701 L 777.949 537.379 778.224 551.939 L 778.500 566.500 796.108 566.772 L 813.716 567.045 814.349 561.772 C 814.698 558.873, 814.981 552.225, 814.978 547 L 814.973 537.500 808.352 532 C 804.711 528.975, 800.490 525.493, 798.974 524.262 L 796.216 522.024 787.082 529.701 M 1010.742 539.250 L 1002.121 546.500 1002.061 561.250 L 1002 576 1020 576 L 1038 576 1037.943 561.250 L 1037.885 546.500 1029.040 539.250 C 1024.175 535.263, 1020.007 532, 1019.778 532 C 1019.550 532, 1015.483 535.263, 1010.742 539.250 M 127.500 552.435 C 122.330 554.335, 118.230 559.240, 117.483 564.419 C 117.159 566.664, 117.030 574.575, 117.197 582 L 117.500 595.500 136.250 595.772 L 155 596.044 154.996 578.772 C 154.992 559.399, 154.233 556.723, 147.802 553.398 C 143.330 551.085, 132.563 550.575, 127.500 552.435 M 215.578 552.485 C 213.421 553.254, 210.271 555.267, 208.578 556.958 L 205.500 560.033 205.187 578.039 L 204.873 596.045 223.687 595.772 L 242.500 595.500 242.500 578.321 C 242.500 562.558, 242.330 560.908, 240.441 558.321 C 235.723 551.855, 224.644 549.255, 215.578 552.485 M 1381.684 552.388 C 1372.350 555.866, 1371 559.351, 1371 579.968 L 1371 596 1390 596 L 1409 596 1409 579.401 C 1409 560.586, 1408.195 557.520, 1402.298 553.875 C 1397.841 551.121, 1387.153 550.349, 1381.684 552.388 M 1459.684 552.449 C 1457.585 553.197, 1454.951 554.639, 1453.831 555.653 C 1449.516 559.558, 1449 562.100, 1449 579.450 L 1449 596 1468 596 L 1487 596 1487 579.968 C 1487 562.783, 1486.272 559.288, 1481.879 555.389 C 1476.981 551.041, 1467.246 549.752, 1459.684 552.449 M 1214.742 607.545 L 1206 615.096 1206 629.548 L 1206 644 1224 644 L 1242 644 1241.941 629.250 L 1241.881 614.500 1233.405 607.500 C 1228.743 603.650, 1224.603 600.386, 1224.206 600.247 C 1223.809 600.108, 1219.550 603.392, 1214.742 607.545 M 368.739 617.548 L 360 625.096 360 639.548 L 360 654 378.500 654 L 397 654 397 639.568 L 397 625.136 388.080 617.568 C 383.174 613.406, 378.781 610, 378.319 610 C 377.856 610, 373.545 613.397, 368.739 617.548 M 786.739 617.548 L 778 625.096 778 639.548 L 778 654 795.883 654 C 812.713 654, 813.796 653.886, 814.272 652.069 C 814.549 651.007, 814.849 644.531, 814.937 637.678 L 815.098 625.219 806.129 617.609 C 801.196 613.424, 796.781 610, 796.319 610 C 795.856 610, 791.545 613.397, 786.739 617.548 M 543 642.500 L 543 657 567 657 L 591 657 591 642.500 L 591 628 567 628 L 543 628 543 642.500 M 999.667 628.667 C 999.300 629.033, 999 635.558, 999 643.167 L 999 657 1023.500 657 L 1048 657 1048 642.500 L 1048 628 1024.167 628 C 1011.058 628, 1000.033 628.300, 999.667 628.667 M 1214.257 656.314 L 1206.014 663.500 1206.007 678.250 L 1206 693 1224 693 L 1242 693 1242 678.138 L 1242 663.276 1233.390 656.138 C 1228.655 652.212, 1224.268 649.029, 1223.640 649.064 C 1223.013 649.099, 1218.791 652.362, 1214.257 656.314 M 369.070 665.755 L 359.961 673.500 360.231 688 L 360.500 702.500 378.500 702.500 L 396.500 702.500 396.779 688.026 C 397.036 674.673, 396.906 673.434, 395.105 672.026 C 394.031 671.187, 389.784 667.690, 385.666 664.255 L 378.180 658.010 369.070 665.755 M 130.643 678.059 C 124.641 679.544, 121.132 682.096, 118.979 686.544 C 117.265 690.084, 117 692.731, 117 706.316 L 117 722 136.063 722 L 155.126 722 154.813 704.078 C 154.507 686.543, 154.446 686.098, 152 683.483 C 150.625 682.013, 148.333 680.203, 146.906 679.460 C 143.340 677.604, 135.289 676.911, 130.643 678.059 M 218.221 678.026 C 215.867 678.510, 212.598 679.862, 210.955 681.032 C 205.583 684.857, 205 687.247, 205 705.450 L 205 722 224 722 L 243 722 243 706.212 C 243 691.828, 242.800 690.027, 240.750 685.962 C 237.291 679.103, 228.330 675.946, 218.221 678.026 M 1385 677.907 C 1379.882 678.982, 1375.557 681.514, 1373.398 684.699 C 1371.754 687.126, 1371.456 689.804, 1371.167 704.750 L 1370.835 722 1389.917 722 L 1409 722 1409 705.148 C 1409 689.320, 1408.863 688.093, 1406.747 684.952 C 1405.507 683.113, 1403.145 680.840, 1401.497 679.900 C 1397.918 677.861, 1389.859 676.887, 1385 677.907 M 1462.221 678.034 C 1459.867 678.513, 1456.553 679.894, 1454.857 681.102 C 1449.795 684.707, 1449 688.080, 1449 705.968 L 1449 722 1468.064 722 L 1487.129 722 1486.814 704.570 C 1486.528 688.688, 1486.313 686.889, 1484.395 684.320 C 1480.164 678.650, 1471.395 676.164, 1462.221 678.034 M 556.500 698.202 C 552.161 699.712, 547.134 704.857, 545.996 708.956 C 545.454 710.905, 545.009 721.172, 545.006 731.772 L 545 751.044 563.750 750.772 L 582.500 750.500 582.500 729.500 C 582.500 709.358, 582.406 708.350, 580.212 704.821 C 576.077 698.170, 565.265 695.152, 556.500 698.202 M 1013.914 697.956 C 1009.326 699.346, 1006.145 702.068, 1004.049 706.399 C 1002.191 710.237, 1002 712.514, 1002 730.838 L 1002 751.044 1020.750 750.772 L 1039.500 750.500 1039.773 732.191 C 1039.930 721.618, 1039.602 712.237, 1038.996 709.987 C 1037.674 705.077, 1033.561 700.133, 1029.329 698.364 C 1025.809 696.894, 1018.093 696.689, 1013.914 697.956 M 1214.750 704.606 L 1206 712.158 1206 727.079 L 1206 742 1224 742 L 1242 742 1242 727.068 L 1242 712.136 1233.080 704.568 C 1228.174 700.406, 1224.012 697.012, 1223.830 697.026 C 1223.649 697.041, 1219.563 700.452, 1214.750 704.606 M 368.750 714.606 L 360 722.158 360 736.579 L 360 751 378.500 751 L 397 751 397 736.586 L 397 722.171 387.909 714.586 C 382.908 710.414, 378.521 707.012, 378.159 707.026 C 377.796 707.041, 373.563 710.452, 368.750 714.606 M 127.500 737.206 C 125.850 737.783, 123.430 739.210, 122.121 740.377 C 117.753 744.275, 117 747.817, 117 764.468 L 117 780 136 780 L 155 780 155 763.148 C 155 747.292, 154.866 746.095, 152.730 742.898 C 149.469 738.016, 144.789 735.988, 137 736.081 C 133.425 736.123, 129.150 736.630, 127.500 737.206 M 213.271 737.964 C 205.833 741.340, 205.008 743.864, 205.004 763.250 L 205 780 224 780 L 243 780 243 764.316 C 243 745.437, 241.747 741.508, 234.624 738.060 C 229.011 735.343, 219.143 735.298, 213.271 737.964 M 1381.619 737.034 C 1380.035 737.509, 1377.614 738.933, 1376.240 740.198 C 1371.731 744.353, 1371 747.737, 1371 764.468 L 1371 780 1390 780 L 1409 780 1408.998 763.750 C 1408.997 744.958, 1408.128 742.007, 1401.500 738.282 C 1397.231 735.881, 1387.507 735.271, 1381.619 737.034 M 1457.013 738.275 C 1449.851 742.062, 1449 744.767, 1449 763.734 L 1449 780 1468 780 L 1487 780 1487 763.960 C 1487 744.838, 1485.835 741.190, 1478.691 737.947 C 1472.583 735.174, 1462.591 735.325, 1457.013 738.275 M 1.762 949.707 C 3.006 949.946, 4.806 949.937, 5.762 949.687 C 6.718 949.437, 5.700 949.241, 3.500 949.252 C 1.300 949.263, 0.518 949.468, 1.762 949.707 M 13.784 949.738 C 16.689 949.941, 21.189 949.939, 23.784 949.734 C 26.378 949.528, 24 949.363, 18.500 949.365 C 13 949.368, 10.878 949.536, 13.784 949.738 " stroke="none" fill="black" fill-rule="evenodd"/>
</svg>