<svg xmlns="http://www.w3.org/2000/svg" width="35" height="40" viewBox="0 0 1286 1174" version="1.1">
	<path d="M 27 586.462 L 27 1172.925 17.750 1173.255 L 8.500 1173.585 18.250 1173.792 L 28 1174 28 587 C 28 264.150, 27.775 0, 27.500 0 C 27.225 0, 27 263.908, 27 586.462 M 666.863 161.762 C 663.763 167.668, 649.521 194.775, 635.214 222 C 620.908 249.225, 607.965 274.031, 606.454 277.125 L 603.706 282.751 630.005 314.625 C 644.470 332.156, 656.711 347.026, 657.208 347.669 C 657.808 348.446, 641.039 379.135, 607.213 439.169 C 579.220 488.851, 548.033 544.229, 537.908 562.232 C 527.784 580.235, 519.275 594.965, 519 594.966 C 518.257 594.970, 474.471 528.045, 474.672 527.213 C 474.767 526.821, 482.129 514.193, 491.031 499.152 C 503.461 478.151, 507.018 471.388, 506.359 470.016 C 505.886 469.032, 488.175 443.210, 467 412.632 C 434.584 365.822, 428.387 357.389, 427.786 359.268 C 426.737 362.550, 404 478.268, 404 480.328 C 404 481.292, 413.029 493.275, 424.065 506.958 L 444.131 531.836 432.064 578.086 C 425.427 603.524, 419.814 624.519, 419.591 624.742 C 419.368 624.965, 384.535 603.212, 342.184 576.403 L 265.182 527.658 284.841 501.772 C 295.653 487.534, 305.277 474.852, 306.228 473.588 L 307.955 471.291 250.228 434.799 C 218.477 414.729, 191.939 397.988, 191.253 397.597 C 190.280 397.042, 190.241 397.502, 191.077 399.693 C 192.050 402.243, 269.516 621.230, 334.957 806.426 C 349.324 847.085, 360.949 880.927, 360.790 881.631 C 360.630 882.335, 347.225 891.617, 331 902.258 L 301.500 921.604 301.237 955.802 L 300.974 990 306.237 990.035 C 322.752 990.144, 1035.715 981.760, 1036.750 981.444 C 1037.713 981.150, 1038 974.314, 1038 951.668 L 1038 922.273 1009 902.397 C 993.050 891.465, 980 882.108, 980 881.605 C 980 880.780, 1052.846 680.491, 1129.521 470.500 C 1145.587 426.500, 1158.611 390.357, 1158.464 390.181 C 1158.016 389.648, 1053.867 470.182, 1053.387 471.434 C 1053.141 472.076, 1057.666 484.928, 1063.443 499.994 C 1069.220 515.060, 1073.743 527.590, 1073.494 527.839 C 1073.245 528.089, 1041.644 547.123, 1003.270 570.138 C 944.118 605.615, 933.390 611.718, 932.774 610.241 C 931.853 608.031, 912 529.711, 912 528.288 C 912 527.706, 922.350 519.476, 935 510 C 947.650 500.524, 958 492.395, 958 491.936 C 958 491.228, 921.395 365.986, 919.185 359.133 C 918.524 357.084, 912.955 364.976, 877.618 418.043 C 855.176 451.745, 836.623 479.819, 836.389 480.430 C 836.154 481.040, 844.369 491.825, 854.644 504.395 C 870.993 524.396, 873.180 527.482, 872.161 529.114 C 870.482 531.802, 820.935 595, 820.506 595 C 820.309 595, 814.646 584.313, 807.923 571.250 C 796.180 548.438, 787.648 531.932, 722.322 405.642 C 694.884 352.600, 693.007 348.641, 694.349 346.642 C 695.141 345.464, 707.311 328.525, 721.394 309 C 735.478 289.475, 746.844 272.814, 746.653 271.974 C 746.187 269.932, 673.867 150.997, 673.100 151.012 C 672.770 151.018, 669.963 155.856, 666.863 161.762 M 741.267 706.974 L 721.033 735.744 706.971 777.302 L 692.910 818.860 709.997 843.180 C 719.395 856.556, 727.478 867.637, 727.959 867.806 C 728.440 867.974, 739.396 860.408, 752.307 850.993 L 775.780 833.876 776.364 827.688 C 776.684 824.285, 777.697 804.400, 778.615 783.500 L 780.282 745.500 771.616 713.500 C 766.849 695.900, 762.623 680.759, 762.225 679.852 C 761.687 678.630, 756.275 685.634, 741.267 706.974 M 579 681.198 C 579 681.543, 574.904 696.827, 569.897 715.162 L 560.794 748.500 561.879 792.399 C 562.476 816.544, 563.085 836.383, 563.232 836.487 C 563.380 836.590, 574.075 844.014, 587 852.984 C 599.925 861.953, 611.038 869.711, 611.696 870.224 C 612.555 870.893, 617.569 864.138, 629.477 846.273 L 646.061 821.391 633.444 780.445 C 625.787 755.594, 619.813 737.928, 618.247 735.500 C 614.084 729.048, 581.944 683.638, 580.406 682.036 C 579.633 681.230, 579 680.853, 579 681.198 M 901.735 709.280 L 876.971 733.500 856.681 770.500 L 836.390 807.500 841.585 818.500 C 844.443 824.550, 850.317 836.799, 854.640 845.721 L 862.500 861.942 889.088 849.286 L 915.676 836.630 924.962 795.081 L 934.248 753.532 930.920 719.266 C 929.089 700.420, 927.346 685.013, 927.046 685.030 C 926.746 685.046, 915.356 695.958, 901.735 709.280 M 413.581 688.166 C 413.350 688.900, 411.744 704.575, 410.013 723 L 406.865 756.500 415.183 797.848 L 423.500 839.195 450.754 851.495 C 465.744 858.260, 478.252 863.401, 478.549 862.920 C 478.847 862.439, 484.406 850.383, 490.903 836.130 L 502.716 810.214 483.453 772.961 L 464.191 735.708 442.845 714.287 C 419.156 690.514, 414.228 686.115, 413.581 688.166 M 1.762 1173.707 C 3.006 1173.946, 4.806 1173.937, 5.762 1173.687 C 6.718 1173.437, 5.700 1173.241, 3.500 1173.252 C 1.300 1173.263, 0.518 1173.468, 1.762 1173.707 " stroke="none" fill="black" fill-rule="evenodd"/>
</svg>