<svg xmlns="http://www.w3.org/2000/svg" width="35" height="40" viewBox="0 0 1466 1241"><path d="M 27 619.964 L 27 1239.928 17.250 1240.254 L 7.500 1240.581 17.750 1240.791 L 28 1241 28 620.500 C 28 279.225, 27.775 0, 27.500 0 C 27.225 0, 27 278.984, 27 619.964 M 493.773 184.933 C 466.423 189.161, 443.769 192.898, 443.430 193.236 C 443.092 193.575, 462.960 216.835, 487.582 244.926 C 521.925 284.108, 532.875 296, 534.610 296 C 535.854 296, 554.309 293.755, 575.621 291.010 C 600.899 287.755, 614.648 285.582, 615.169 284.760 C 615.609 284.067, 615.976 278.059, 615.985 271.408 C 615.993 264.758, 616.291 253.246, 616.647 245.827 L 617.294 232.339 583.155 204.669 C 555.860 182.547, 548.463 177.025, 546.258 177.122 C 544.741 177.189, 521.123 180.704, 493.773 184.933 M 879.500 206.657 L 845.500 234.262 845.765 247.381 C 845.910 254.596, 846.304 266.664, 846.640 274.198 L 847.251 287.896 849.876 288.429 C 852.440 288.949, 921.919 297.792, 927.137 298.262 C 929.465 298.472, 935.066 292.465, 974.873 247.070 C 999.678 218.783, 1019.836 195.503, 1019.669 195.336 C 1019.408 195.075, 914.838 178.956, 913.858 179.025 C 913.661 179.039, 898.200 191.473, 879.500 206.657 M 662.288 208.750 L 642.500 234.500 641.906 252.500 C 641.580 262.400, 641.425 270.645, 641.563 270.823 C 641.947 271.319, 806.243 284.067, 808.363 283.765 C 809.585 283.591, 812.054 280.089, 815.529 273.598 L 820.831 263.695 820.267 243.012 L 819.702 222.329 823.293 219.590 L 826.884 216.851 812.192 200.004 L 797.500 183.157 739.788 183.079 L 682.077 183 662.288 208.750 M 1065.868 205.519 C 1037.367 215.431, 1036.082 215.989, 1032.180 220.162 C 1029.948 222.548, 1028.453 224.836, 1028.857 225.246 C 1029.262 225.657, 1038.572 231.432, 1049.546 238.080 C 1060.521 244.728, 1069.844 250.497, 1070.265 250.899 C 1070.686 251.301, 1071.927 262.851, 1073.023 276.565 C 1074.119 290.279, 1075.256 303.355, 1075.550 305.623 L 1076.085 309.747 1131.792 279.119 C 1162.432 262.274, 1188.089 248.113, 1188.810 247.650 C 1189.951 246.916, 1156.914 228.273, 1104 199.790 L 1095.500 195.214 1065.868 205.519 M 313.500 216.599 C 294.800 226.819, 273.736 238.333, 266.690 242.186 L 253.880 249.191 307.576 278.685 C 341.241 297.177, 361.521 307.774, 361.942 307.093 C 362.312 306.496, 363.400 295.543, 364.361 282.754 C 365.321 269.964, 366.349 258.087, 366.645 256.360 C 367.138 253.474, 369.240 251.973, 392.552 237.860 C 406.506 229.412, 417.940 222.240, 417.961 221.923 C 418.009 221.209, 351.069 197.997, 348.996 198.008 C 348.173 198.013, 332.200 206.378, 313.500 216.599 M 441.870 237.398 C 440.017 238.634, 427.844 246.064, 414.820 253.911 L 391.140 268.178 390.513 274.339 C 388.358 295.510, 381.559 386, 382.124 386 C 384.477 386, 494.700 347.647, 495.554 346.531 C 496.134 345.773, 497.650 334.793, 498.922 322.131 L 501.236 299.109 473.238 267.131 L 445.241 235.152 441.870 237.398 M 975.161 285.251 L 939.822 325.500 940.489 334.995 C 940.856 340.217, 941.271 344.604, 941.411 344.744 C 942.130 345.464, 1055.467 383.867, 1055.822 383.511 C 1056.052 383.282, 1054.154 357.310, 1051.604 325.797 C 1049.055 294.284, 1046.976 267.985, 1046.985 267.356 C 1046.999 266.316, 1012.891 244.999, 1011.216 245.001 C 1010.822 245.001, 994.598 263.114, 975.161 285.251 M 1178.003 293.894 C 1161.722 300.477, 1151.425 305.165, 1151.294 306.054 C 1151.177 306.849, 1155.452 327.025, 1160.794 350.888 L 1170.507 394.276 1240.289 421.269 C 1278.669 436.115, 1310.236 448.090, 1310.437 447.881 C 1310.773 447.530, 1288.168 331.744, 1287.705 331.444 C 1278.276 325.350, 1206.481 283.029, 1205.676 283.090 C 1205.029 283.140, 1192.577 288.002, 1178.003 293.894 M 195 309.282 L 154.500 333.562 142.851 392.031 C 136.444 424.189, 131.272 450.579, 131.359 450.675 C 131.446 450.771, 163.070 438.645, 201.635 423.729 L 271.753 396.608 281.705 351.840 L 291.658 307.071 264.079 296.034 C 248.910 289.963, 236.275 284.997, 236 284.999 C 235.725 285, 217.275 295.928, 195 309.282 M 324.729 331.940 C 317.704 333.463, 311.789 334.887, 311.583 335.105 C 311.377 335.322, 307.224 353.438, 302.354 375.362 L 293.500 415.224 286.500 417.970 C 282.650 419.480, 265.261 426.224, 247.858 432.955 L 216.216 445.195 214.470 449.066 L 212.725 452.937 220.436 464.718 L 228.148 476.500 251.802 485.222 C 264.812 490.019, 275.749 493.619, 276.107 493.222 C 276.465 492.825, 294.739 466.824, 316.716 435.443 L 356.673 378.386 357.868 362.943 C 358.525 354.449, 359.315 345.222, 359.623 342.438 L 360.184 337.375 349.842 333.550 C 344.154 331.446, 339.050 329.600, 338.500 329.447 C 337.950 329.295, 331.753 330.417, 324.729 331.940 M 1086.449 333.138 C 1082.077 335.379, 1078.384 337.319, 1078.243 337.447 C 1078.101 337.576, 1078.894 348.541, 1080.005 361.814 L 1082.024 385.947 1119.671 439.723 C 1140.376 469.301, 1157.373 493.590, 1157.443 493.701 C 1157.512 493.812, 1165.853 490.884, 1175.979 487.195 L 1194.389 480.488 1205.623 463.029 L 1216.857 445.570 1214.487 441.596 C 1212.150 437.677, 1211.698 437.460, 1181.309 425.728 C 1164.364 419.186, 1149.991 413.308, 1149.369 412.666 C 1148.747 412.025, 1144.564 394.867, 1140.073 374.538 C 1135.583 354.209, 1131.737 337.404, 1131.526 337.193 C 1131.316 336.982, 1123.799 335.280, 1114.822 333.411 C 1105.845 331.541, 1097.577 329.798, 1096.449 329.537 C 1095.247 329.258, 1091.108 330.749, 1086.449 333.138 M 1228.014 475.311 C 1219.027 489.165, 1211.712 501.193, 1211.759 502.040 C 1211.806 502.888, 1219.684 528.313, 1229.265 558.540 C 1238.847 588.768, 1251.369 628.455, 1257.093 646.734 C 1262.817 665.012, 1267.836 679.862, 1268.246 679.734 C 1269.393 679.374, 1340.997 574.066, 1341.022 572.701 C 1341.035 572.040, 1333.981 549.874, 1325.348 523.442 L 1309.652 475.383 1280.076 463.995 C 1263.809 457.731, 1249.117 452.047, 1247.427 451.364 L 1244.354 450.121 1228.014 475.311 M 149.544 470.878 L 114.588 484.573 99.777 529.877 L 84.966 575.180 121.641 629.099 C 141.812 658.754, 158.445 682.889, 158.602 682.731 C 159.450 681.883, 215.053 504.564, 214.801 503.513 C 214.389 501.796, 185.624 456.997, 185 457.100 C 184.725 457.145, 168.770 463.345, 149.544 470.878 M 223.068 572.752 L 219.637 574.500 203.703 624.952 L 187.769 675.404 190.715 677.952 C 192.335 679.353, 195.424 682.062, 197.580 683.971 C 200.967 686.970, 206.518 689.101, 238.386 699.641 L 275.271 711.839 335.128 683.670 C 368.049 668.176, 394.988 655.274, 394.992 654.997 C 395.001 654.424, 228.397 570.999, 227.248 571.002 C 226.837 571.002, 224.956 571.790, 223.068 572.752 M 1092.681 613.004 C 1018.182 650.201, 1009.101 654.984, 1011.017 656.009 C 1012.203 656.644, 1039.208 669.451, 1071.027 684.470 L 1128.881 711.777 1180.191 694.898 C 1208.411 685.614, 1231.950 678, 1232.500 677.978 C 1233.050 677.955, 1234.697 676.883, 1236.159 675.594 L 1238.819 673.252 1225.108 630.125 C 1217.568 606.405, 1210.971 586.602, 1210.449 586.118 C 1209.504 585.241, 1177.546 570.931, 1176.860 571.077 C 1176.662 571.119, 1138.781 589.986, 1092.681 613.004 M 1298.388 681.770 C 1281.310 706.921, 1266.999 728.080, 1266.585 728.789 C 1266.167 729.507, 1271.049 749.332, 1277.594 773.489 L 1289.355 816.900 1308.334 824.960 C 1318.772 829.394, 1327.415 832.904, 1327.542 832.761 C 1327.668 832.617, 1337.062 811.742, 1348.417 786.371 L 1369.064 740.242 1349.926 688.871 C 1339.400 660.617, 1330.484 637.171, 1330.113 636.770 C 1329.743 636.368, 1315.466 656.618, 1298.388 681.770 M 76.948 690.328 L 57.429 742.618 77.490 787.341 C 88.523 811.939, 97.989 832.757, 98.525 833.605 C 99.362 834.928, 102.114 834.053, 118 827.411 C 128.175 823.157, 136.683 819.529, 136.906 819.349 C 137.130 819.168, 142.610 799.408, 149.085 775.436 L 160.858 731.852 129.809 686.176 C 112.731 661.054, 98.243 639.946, 97.613 639.269 C 96.737 638.329, 91.856 650.389, 76.948 690.328 M 1003 717.541 C 973.025 721.568, 947.314 725.006, 945.864 725.181 C 943.518 725.465, 947.949 730.111, 986.228 767.500 C 1009.878 790.600, 1031.515 811.525, 1034.310 814 L 1039.391 818.500 1081.446 819.102 C 1104.576 819.434, 1123.697 819.537, 1123.938 819.331 C 1124.178 819.126, 1123.086 809.031, 1121.509 796.898 C 1119.568 781.954, 1118.980 774.622, 1119.688 774.169 C 1120.262 773.801, 1131.362 765.188, 1144.354 755.030 L 1167.976 736.560 1164.285 732.780 C 1162.255 730.701, 1159.898 729, 1159.048 729 C 1158.198 729, 1150.666 731.278, 1142.311 734.063 L 1127.121 739.126 1096.134 724.563 C 1072.047 713.243, 1064.296 710.024, 1061.324 710.109 C 1059.221 710.169, 1032.975 713.514, 1003 717.541 M 305.237 725.625 L 276.974 739.158 259.929 733.476 C 243.476 727.993, 242.816 727.857, 240.918 729.575 C 239.836 730.553, 239.075 731.675, 239.226 732.068 C 239.377 732.461, 252.325 742.790, 268 755.020 C 290.571 772.632, 296.459 777.699, 296.302 779.379 C 296.193 780.546, 294.925 790.431, 293.483 801.347 C 292.041 812.263, 291.015 821.349, 291.204 821.537 C 291.392 821.725, 307.234 821.609, 326.409 821.279 L 361.273 820.680 407.908 775.090 C 433.558 750.015, 454.759 729.076, 455.022 728.557 C 455.463 727.687, 355.382 713.805, 340 712.602 L 333.500 712.093 305.237 725.625 M 1191.500 750.546 C 1167.300 769.442, 1147.132 785.487, 1146.682 786.201 C 1146.084 787.150, 1161.584 909.480, 1169.181 963.777 C 1169.437 965.601, 1176.286 958.087, 1203.607 926.011 L 1237.713 885.969 1251.126 854.226 L 1264.539 822.483 1250.821 771.992 C 1243.277 744.221, 1236.743 720.305, 1236.302 718.844 C 1235.516 716.242, 1234.625 716.872, 1191.500 750.546 M 188.555 727.136 C 188.296 727.886, 181.485 752.783, 173.418 782.463 C 165.351 812.142, 158.343 837.117, 157.843 837.963 C 157.196 839.059, 159.882 846.471, 167.221 863.828 L 177.507 888.156 211.472 928.026 C 230.153 949.954, 245.570 967.764, 245.731 967.602 C 245.943 967.391, 265.844 818.051, 269.271 790.959 C 269.558 788.687, 265.536 785.248, 231.257 758.459 C 185.605 722.781, 189.157 725.387, 188.555 727.136 M 418.231 800.266 C 389.270 828.485, 374.401 843.638, 375.231 844.089 C 375.929 844.468, 379.304 845.096, 382.730 845.485 L 388.961 846.192 407.230 874.602 L 425.500 903.012 446.500 902.501 C 458.050 902.220, 480.325 901.706, 496 901.359 L 524.500 900.727 572.362 842.276 C 598.686 810.128, 619.836 783.477, 619.362 783.052 C 618.580 782.352, 465.848 756.878, 463.500 757.057 C 462.950 757.098, 442.579 776.543, 418.231 800.266 M 869 768.820 C 830.775 775.194, 799.359 780.495, 799.188 780.600 C 799.016 780.706, 806.441 789.981, 815.688 801.212 C 824.934 812.443, 846.675 838.966, 864 860.152 L 895.500 898.672 932.500 899.348 C 952.850 899.720, 974.599 900.098, 980.831 900.187 L 992.163 900.349 1010.081 872.596 C 1019.937 857.331, 1027.997 844.540, 1027.993 844.171 C 1027.986 843.439, 940.061 757.585, 939.093 757.366 C 938.767 757.292, 907.225 762.446, 869 768.820 M 1083.529 861.384 L 1043.559 867.560 989.335 951.502 C 959.512 997.671, 935.256 1035.590, 935.433 1035.767 C 935.727 1036.061, 1068.700 1019.230, 1070.109 1018.720 C 1070.444 1018.599, 1082.566 1004.775, 1097.047 988 C 1111.528 971.225, 1127.158 953.119, 1131.781 947.764 L 1140.184 938.028 1135.058 898.764 C 1132.238 877.169, 1129.713 858.487, 1129.447 857.250 C 1129.080 855.548, 1128.296 855.025, 1126.231 855.103 C 1124.729 855.160, 1105.513 857.986, 1083.529 861.384 M 283.965 873.410 C 282.722 882.810, 280.284 901.194, 278.546 914.265 L 275.387 938.030 308.766 976.765 C 327.124 998.069, 343.372 1016.751, 344.872 1018.281 C 347.478 1020.937, 348.605 1021.192, 370.050 1023.985 C 440.419 1033.149, 481.176 1038.158, 481.637 1037.697 C 481.924 1037.409, 463.748 1008.672, 441.246 973.837 C 418.744 939.002, 394.569 901.500, 387.524 890.500 C 380.479 879.500, 374.580 870.339, 374.416 870.142 C 374.252 869.946, 355.304 866.921, 332.309 863.421 C 309.314 859.921, 289.538 856.892, 288.362 856.689 C 286.317 856.336, 286.126 857.062, 283.965 873.410 M 1.762 1240.707 C 3.006 1240.946, 4.806 1240.937, 5.762 1240.687 C 6.718 1240.437, 5.700 1240.241, 3.500 1240.252 C 1.300 1240.263, 0.518 1240.468, 1.762 1240.707 " stroke="none" fill="black" fill-rule="evenodd"></path></svg>
