<?xml version="1.0" standalone="no"?>
<!DOCTYPE svg PUBLIC "-//W3C//DTD SVG 20010904//EN"
 "http://www.w3.org/TR/2001/REC-SVG-20010904/DTD/svg10.dtd">
<svg version="1.0" xmlns="http://www.w3.org/2000/svg"
 width="35" height="40" viewBox="0 0 1268.000000 984.000000"
 preserveAspectRatio="xMidYMid meet">

<g transform="translate(0.000000,984.000000) scale(0.100000,-0.100000)"
fill="#000000" stroke="none">
<path d="M6210 9341 c-80 -9 -124 -23 -215 -69 -327 -163 -479 -531 -366 -883
48 -149 137 -270 277 -377 71 -54 224 -112 338 -127 l48 -7 -6 -44 c-3 -25
-29 -113 -57 -196 -191 -569 -559 -961 -1104 -1181 -138 -55 -358 -112 -518
-133 -147 -20 -442 -14 -582 11 -243 43 -547 135 -704 215 l-62 31 53 67 c94
120 134 250 125 413 -9 173 -56 279 -176 399 -124 123 -249 174 -426 174 -243
0 -447 -124 -547 -332 -90 -190 -89 -364 3 -551 69 -140 204 -256 355 -305
116 -38 281 -36 386 4 29 11 56 20 60 20 20 0 -63 -309 -122 -457 -75 -186
-168 -340 -297 -494 -293 -347 -653 -565 -1067 -644 -107 -20 -271 -31 -279
-18 -4 6 9 28 29 49 91 100 134 209 134 343 -1 142 -47 247 -156 354 -84 82
-176 119 -305 125 -110 5 -177 -10 -271 -60 -164 -87 -270 -308 -238 -496 27
-160 126 -295 270 -366 104 -51 230 -62 366 -31 l30 7 18 -84 c36 -165 138
-600 241 -1023 24 -99 65 -265 90 -370 25 -104 66 -273 91 -375 59 -244 124
-510 170 -695 l37 -150 0 -708 c0 -635 2 -710 16 -726 31 -35 228 -101 346
-116 28 -4 102 -15 165 -25 184 -30 442 -59 615 -70 88 -5 259 -16 380 -24
780 -54 1690 -75 3205 -75 1233 0 2039 18 2630 59 628 44 750 57 1195 126 178
27 395 93 450 136 l25 19 0 552 c0 512 1 559 20 652 84 421 176 874 236 1160
20 99 43 212 49 250 6 39 31 162 54 275 24 113 63 304 87 425 25 121 65 317
89 435 24 118 52 257 62 308 17 92 18 93 43 87 14 -3 69 -9 122 -12 81 -4 109
-2 166 16 351 106 459 567 191 815 -80 74 -131 102 -217 121 -241 50 -451 -46
-558 -256 l-38 -74 0 -130 c-1 -150 12 -200 72 -287 21 -29 41 -58 45 -65 5
-7 -20 -28 -68 -57 -73 -44 -79 -46 -153 -46 -180 0 -394 90 -627 264 -101 75
-344 317 -418 417 -212 286 -361 636 -391 918 l-4 43 31 -6 c18 -4 75 -9 128
-12 298 -19 548 163 624 454 19 76 19 220 0 297 -57 223 -236 398 -462 451
-89 21 -234 14 -318 -16 -188 -66 -328 -206 -392 -393 -23 -70 -28 -98 -28
-187 1 -174 53 -306 172 -429 40 -41 71 -76 70 -78 -2 -1 -34 -15 -73 -32 -82
-35 -270 -85 -404 -108 -117 -20 -409 -22 -530 -4 -125 18 -372 78 -465 113
-44 16 -107 40 -140 53 -62 23 -260 122 -354 176 -244 141 -515 367 -685 569
-133 158 -271 368 -338 513 l-18 37 28 6 c107 22 230 80 312 147 232 189 325
489 242 782 -65 231 -253 423 -482 493 -75 23 -233 34 -330 23z m278 -3538
l172 -348 39 -285 c22 -157 42 -312 46 -346 l6 -60 -221 -213 -220 -213 -27
22 c-16 12 -104 95 -198 185 -93 89 -185 175 -202 190 -18 15 -33 34 -33 43 0
10 15 112 34 227 19 116 44 265 55 333 l19 122 173 345 c96 190 176 345 179
345 3 0 83 -156 178 -347z m-1638 -453 c58 -24 155 -64 215 -90 61 -26 130
-55 154 -64 50 -19 64 -31 231 -186 63 -58 162 -149 219 -200 l103 -93 -6 -41
c-3 -23 -11 -97 -17 -166 -7 -69 -19 -186 -28 -260 l-17 -135 -134 1 c-74 0
-215 4 -312 8 l-177 8 -80 137 c-44 75 -95 161 -114 191 -143 233 -153 256
-192 430 -21 91 -57 249 -81 352 -24 103 -44 196 -44 207 0 19 6 17 88 -18 48
-21 134 -57 192 -81z m3240 74 c0 -14 -13 -78 -29 -142 -17 -64 -39 -164 -51
-222 -12 -58 -35 -161 -52 -230 -32 -129 -52 -169 -183 -370 -24 -36 -80 -124
-125 -196 l-82 -132 -57 -6 c-31 -3 -166 -11 -300 -16 -181 -8 -246 -8 -251 1
-4 6 -15 68 -24 138 -8 69 -25 199 -37 289 -11 90 -18 169 -16 177 3 7 75 72
159 144 84 72 199 170 255 218 62 54 122 96 155 110 273 112 554 229 593 248
42 19 45 18 45 -11z m-3370 -1395 c145 -5 265 -11 266 -12 11 -14 295 -451
309 -475 l19 -32 -24 -17 c-13 -10 -47 -36 -75 -59 -28 -23 -128 -100 -223
-172 l-171 -131 -158 56 c-323 113 -429 150 -463 165 -19 9 -105 69 -191 134
-86 66 -217 166 -292 223 -76 57 -137 106 -137 110 0 3 78 30 173 60 94 29
233 73 307 96 74 23 158 49 185 58 34 10 76 14 130 11 44 -2 199 -9 345 -15z
m3659 -76 c47 -14 147 -45 221 -68 74 -23 199 -62 277 -86 79 -24 143 -47 143
-51 0 -6 -75 -64 -453 -350 l-142 -108 -295 -96 c-162 -52 -308 -100 -324
-105 -15 -5 -33 -6 -40 -2 -6 4 -96 70 -201 148 -104 77 -209 154 -232 170
-24 17 -43 34 -43 39 0 9 37 70 125 206 23 36 63 99 88 140 25 41 62 99 82
127 l35 52 153 4 c500 10 514 9 606 -20z m-3407 -987 c79 -24 199 -61 268 -82
166 -50 160 -46 150 -91 -5 -21 -29 -132 -54 -248 -25 -115 -51 -235 -56 -265
l-10 -55 -133 -49 c-238 -87 -281 -103 -391 -146 l-109 -41 -361 -20 c-198
-10 -373 -19 -388 -19 -26 0 -25 2 45 110 40 60 113 173 162 250 50 78 111
174 138 215 30 48 68 89 105 118 245 186 374 287 417 324 27 24 55 43 62 43 7
0 76 -20 155 -44z m3038 -277 c8 -9 57 -49 107 -89 88 -70 99 -83 199 -239 99
-154 193 -301 272 -423 l32 -50 -162 6 c-90 4 -263 11 -386 16 -122 4 -228 12
-235 17 -6 6 -66 31 -132 58 -66 26 -142 57 -170 70 -27 12 -67 28 -88 34 -20
7 -77 30 -125 50 l-87 38 -21 84 c-36 139 -107 431 -114 471 l-7 37 96 31
c318 101 382 121 436 138 l60 19 155 -126 c85 -69 162 -133 170 -142z m-2107
-431 c24 -46 90 -170 145 -277 l101 -193 -46 -82 c-25 -44 -67 -120 -94 -168
-26 -48 -54 -97 -62 -110 -8 -13 -40 -70 -72 -128 -32 -58 -65 -111 -74 -118
-9 -7 -54 -50 -101 -95 -134 -131 -440 -410 -445 -406 -4 5 -36 244 -76 567
l-22 183 22 107 c12 59 40 188 62 287 22 99 43 200 47 225 l7 44 95 43 c52 23
154 67 225 98 72 31 153 67 180 80 28 13 53 24 57 24 4 1 27 -36 51 -81z m736
48 c31 -13 85 -36 121 -50 109 -42 190 -76 292 -119 l97 -41 15 -71 c9 -38 20
-101 26 -140 5 -38 27 -158 49 -266 l40 -196 -44 -319 c-25 -175 -45 -339 -45
-364 0 -25 -4 -51 -8 -57 -6 -9 -95 67 -284 240 -268 244 -277 255 -321 337
-103 194 -140 264 -182 344 -24 46 -56 106 -71 133 l-27 48 134 272 c74 149
138 272 143 272 5 1 34 -10 65 -23z"/>
</g>
</svg>
