<svg xmlns="http://www.w3.org/2000/svg" width="35" height="40" viewBox="0 0 1272 1054" version="1.1">
	<path d="M 196 204 L 196 253 251.500 253 L 307 253 307 204 L 307 155 251.500 155 L 196 155 196 204 M 405 204 L 405 253 460.500 253 L 516 253 516 204 L 516 155 460.500 155 L 405 155 405 204 M 605 204.008 L 605 253.017 660.250 252.758 L 715.500 252.500 715.760 203.750 L 716.019 155 660.510 155 L 605 155 605 204.008 M 813 204 L 813 253 868.500 253 L 924 253 924 204 L 924 155 868.500 155 L 813 155 813 204 M 1049 204.008 L 1049 253.017 1104.250 252.758 L 1159.500 252.500 1159.760 203.750 L 1160.019 155 1104.510 155 L 1049 155 1049 204.008 M 227.227 203.750 L 227.500 221.500 251.750 221.624 L 276 221.748 276 203.874 L 276 186 251.477 186 L 226.954 186 227.227 203.750 M 436 203.960 L 436 221.921 460.250 221.710 L 484.500 221.500 484.773 203.750 L 485.046 186 460.523 186 L 436 186 436 203.960 M 636 203.902 L 636 221.803 660 221.803 L 684 221.803 684 203.902 L 684 186 660 186 L 636 186 636 203.902 M 844 203.433 C 844 219.173, 844.170 220.915, 845.750 221.378 C 846.712 221.660, 857.737 221.877, 870.250 221.860 L 893 221.829 893 203.915 L 893 186 868.500 186 L 844 186 844 203.433 M 1080 204 L 1080 222 1104 222 L 1128 222 1128 204 L 1128 186 1104 186 L 1080 186 1080 204 M 196 554.500 L 196 772 678 772 L 1160 772 1160 554.500 L 1160 337 678 337 L 196 337 196 554.500 M 227 554.500 L 227 741 677.500 741 L 1128 741 1128 554.500 L 1128 368 677.500 368 L 227 368 227 554.500 M 556 554.500 C 556 632.325, 556.282 696, 556.626 696 C 556.970 696, 628.789 664.205, 716.223 625.344 C 814.462 581.681, 874.680 554.404, 873.847 553.945 C 871.628 552.720, 557.036 413, 556.497 413 C 556.224 413, 556 476.675, 556 554.500 M 587 554.886 L 587 648.772 691.750 602.263 C 749.362 576.683, 796.865 555.423, 797.310 555.017 C 797.975 554.412, 589.642 461, 587.626 461 C 587.282 461, 587 503.249, 587 554.886 M 196 874 L 196 923 251.500 923 L 307 923 307 874 L 307 825 251.500 825 L 196 825 196 874 M 405 873.992 L 405 923 460.510 923 L 516.019 923 515.760 874.250 L 515.500 825.500 460.250 825.242 L 405 824.983 405 873.992 M 605 873.992 L 605 923 660.510 923 L 716.019 923 715.760 874.250 L 715.500 825.500 660.250 825.242 L 605 824.983 605 873.992 M 813.667 825.667 C 813.300 826.033, 813 848.083, 813 874.667 L 813 923 868.500 923 L 924 923 924 874 L 924 825 869.167 825 C 839.008 825, 814.033 825.300, 813.667 825.667 M 1049 873.992 L 1049 923 1104.510 923 L 1160.019 923 1159.760 874.250 L 1159.500 825.500 1104.250 825.242 L 1049 824.983 1049 873.992 M 227 874.500 L 227 892 251.500 892 L 276 892 276 874.500 L 276 857 251.500 857 L 227 857 227 874.500 M 436 874.500 L 436 892 460.500 892 L 485 892 485 874.500 L 485 857 460.500 857 L 436 857 436 874.500 M 636 874.500 L 636 892 660 892 L 684 892 684 874.500 L 684 857 660 857 L 636 857 636 874.500 M 844 874.500 L 844 892 868.500 892 L 893 892 893 874.500 L 893 857 868.500 857 L 844 857 844 874.500 M 1080 874.500 L 1080 892 1104 892 L 1128 892 1128 874.500 L 1128 857 1104 857 L 1080 857 1080 874.500 M 1.762 1053.707 C 3.006 1053.946, 4.806 1053.937, 5.762 1053.687 C 6.718 1053.437, 5.700 1053.241, 3.500 1053.252 C 1.300 1053.263, 0.518 1053.468, 1.762 1053.707 M 13.784 1053.738 C 16.689 1053.941, 21.189 1053.939, 23.784 1053.734 C 26.378 1053.528, 24 1053.363, 18.500 1053.365 C 13 1053.368, 10.878 1053.536, 13.784 1053.738 " stroke="none" fill="black" fill-rule="evenodd"/>
</svg>