<svg xmlns="http://www.w3.org/2000/svg" width="35" height="40" viewBox="0 0 1560 1282" version="1.1">
	<path d="M 160 207 L 160 271 233 271 L 306 271 306 207 L 306 143 233 143 L 160 143 160 207 M 434 207 L 434 271 506.500 271 L 579 271 579 207 L 579 143 506.500 143 L 434 143 434 207 M 696 207 L 696 271 768.500 271 L 841 271 841 207 L 841 143 768.500 143 L 696 143 696 207 M 969 207 L 969 271 1042 271 L 1115 271 1115 207 L 1115 143 1042 143 L 969 143 969 207 M 1278 207 L 1278 271 1350.500 271 L 1423 271 1423 207 L 1423 143 1350.500 143 L 1278 143 1278 207 M 160.667 381.667 C 160.300 382.033, 160 510.508, 160 667.167 L 160 952 791.500 952 L 1423 952 1423 666.500 L 1423 381 792.167 381 C 445.208 381, 161.033 381.300, 160.667 381.667 M 632 666.784 L 632 852.781 840.250 760.267 C 954.788 709.385, 1048.831 667.455, 1049.236 667.090 C 1049.754 666.624, 645.724 486.149, 633.250 481.274 C 632.253 480.885, 632 518.392, 632 666.784 M 160 1086 L 160 1150 233 1150 L 306 1150 306 1086 L 306 1022 233 1022 L 160 1022 160 1086 M 434 1086 L 434 1150 506.500 1150 L 579 1150 579 1086 L 579 1022 506.500 1022 L 434 1022 434 1086 M 696 1086 L 696 1150 768.500 1150 L 841 1150 841 1086 L 841 1022 768.500 1022 L 696 1022 696 1086 M 969 1086 L 969 1150 1042 1150 L 1115 1150 1115 1086 L 1115 1022 1042 1022 L 969 1022 969 1086 M 1278 1086 L 1278 1150 1350.500 1150 L 1423 1150 1423 1086 L 1423 1022 1350.500 1022 L 1278 1022 1278 1086 M 1.762 1281.707 C 3.006 1281.946, 4.806 1281.937, 5.762 1281.687 C 6.718 1281.437, 5.700 1281.241, 3.500 1281.252 C 1.300 1281.263, 0.518 1281.468, 1.762 1281.707 M 13.784 1281.738 C 16.689 1281.941, 21.189 1281.939, 23.784 1281.734 C 26.378 1281.528, 24 1281.363, 18.500 1281.365 C 13 1281.368, 10.878 1281.536, 13.784 1281.738 " stroke="none" fill="black" fill-rule="evenodd"/>
</svg>