<svg
        xmlns="http://www.w3.org/2000/svg"
        width="35"
        height="40"
        viewBox="0 0 1232 1144"
        version="1.1"
      >
        <path
          d="M 430.500 106.235 C 376.600 128.845, 332.356 147.448, 332.180 147.575 C 331.044 148.399, 280.488 264.565, 281.150 264.829 C 282.789 265.483, 426.528 241.746, 427.646 240.637 C 428.789 239.503, 530 66.255, 530 65.433 C 530 65.195, 529.663 65.029, 529.250 65.064 C 528.837 65.099, 484.400 83.626, 430.500 106.235 M 839.065 77.155 C 843.897 86.315, 933.317 247.661, 933.898 248.266 C 934.657 249.058, 1068.264 282.951, 1068.802 282.488 C 1068.968 282.346, 1055.693 250.139, 1039.301 210.918 L 1009.497 139.607 925.499 107.824 C 879.299 90.343, 840.674 75.764, 839.664 75.426 C 838.021 74.875, 837.958 75.056, 839.065 77.155 M 231.168 281.250 C 223.286 337.488, 214.483 400.261, 211.607 420.747 C 207.010 453.483, 206.586 457.843, 208.108 456.747 C 212.400 453.655, 407.967 273.489, 407.277 273.263 C 406.850 273.124, 375.035 278.630, 336.578 285.500 C 298.121 292.369, 266.463 297.796, 266.226 297.560 C 265.989 297.323, 261.454 270.551, 256.148 238.066 C 250.842 205.581, 246.275 179.002, 246 179.002 C 245.725 179.001, 239.051 225.013, 231.168 281.250 M 1096.736 197.500 C 1096.378 198.600, 1090.646 226.950, 1083.997 260.500 C 1077.349 294.050, 1071.592 322.447, 1071.204 323.604 C 1070.542 325.583, 1069.509 325.159, 1053.841 316.487 L 1037.181 307.267 991.452 298.605 C 966.301 293.842, 945.607 290.069, 945.464 290.222 C 945.322 290.375, 983.522 329.696, 1030.353 377.602 C 1103.276 452.199, 1115.599 464.402, 1116.187 462.602 C 1116.565 461.446, 1119.639 439.350, 1123.018 413.500 L 1129.162 366.500 1113.574 282.500 C 1105.001 236.300, 1097.851 197.825, 1097.686 197 C 1097.470 195.920, 1097.204 196.060, 1096.736 197.500 M 637 389 L 637 475 551.058 475 L 465.116 475 465.308 509.750 L 465.500 544.500 551.250 544.756 L 637 545.011 637 630.506 L 637 716 672 716 L 707 716 707 630.506 L 707 545.011 792.750 544.756 L 878.500 544.500 878.763 509.750 L 879.026 475 793.013 475 L 707 475 707 389 L 707 303 672 303 L 637 303 637 389 M 279.495 419.994 L 238.500 460.987 233.969 484.244 L 229.437 507.500 187.521 457.093 C 164.467 429.369, 145.473 407.094, 145.312 407.593 C 145.152 408.092, 150.631 434.785, 157.488 466.910 L 169.956 525.320 189.094 554.410 C 199.619 570.410, 216.391 595.966, 226.365 611.202 C 236.339 626.438, 244.876 638.800, 245.336 638.674 C 245.795 638.547, 256.690 614.413, 269.547 585.043 L 292.922 531.643 306.466 457.071 C 313.916 416.057, 320.191 381.712, 320.412 380.750 C 320.632 379.788, 320.740 379, 320.652 379 C 320.563 379, 302.043 397.447, 279.495 419.994 M 1030.361 410.750 C 1030.634 411.712, 1037.242 442.425, 1045.046 479 L 1059.236 545.500 1082.720 598 C 1095.636 626.875, 1106.305 650.609, 1106.428 650.742 C 1106.739 651.080, 1186.317 550.059, 1187.297 548.081 C 1188.567 545.520, 1214.724 428.920, 1213.961 429.225 C 1213.583 429.376, 1189.527 451.212, 1160.505 477.750 C 1131.483 504.288, 1107.434 526, 1107.064 526 C 1106.693 526, 1102.404 513.158, 1097.532 497.462 L 1088.674 468.923 1059.732 438.962 C 1043.814 422.483, 1030.582 409, 1030.327 409 C 1030.073 409, 1030.088 409.788, 1030.361 410.750 M 309.645 519 C 309.339 520.375, 306.112 556.369, 302.474 598.986 C 298.837 641.604, 295.780 676.542, 295.680 676.626 C 295.581 676.710, 261.569 663.547, 220.098 647.375 C 178.627 631.203, 144.558 618.109, 144.390 618.277 C 144.222 618.445, 172.797 650.890, 207.891 690.377 L 271.698 762.171 347.506 804.095 C 389.200 827.154, 423.533 845.800, 423.802 845.531 C 424.207 845.127, 321.695 547.760, 312.960 524 C 310.664 517.755, 310.109 516.918, 309.645 519 M 987.722 699.217 C 956.580 780.186, 931.211 846.544, 931.345 846.678 C 931.479 846.813, 966.894 827.275, 1010.045 803.261 L 1088.501 759.599 1140.500 699.742 C 1169.100 666.820, 1193.132 638.988, 1193.905 637.893 C 1195.584 635.512, 1203.558 632.588, 1124 663.528 C 1091.825 676.041, 1064.795 686.471, 1063.934 686.708 C 1062.583 687.078, 1061.218 677.905, 1053.949 619.568 C 1049.319 582.406, 1045.263 552, 1044.937 552 C 1044.610 552, 1018.864 618.248, 987.722 699.217 M 523.891 840.177 C 492.600 858.911, 477.705 867.298, 475.942 867.175 C 474.535 867.077, 438.563 861.581, 396.003 854.962 C 353.444 848.342, 318.068 843.055, 317.391 843.213 C 316.418 843.440, 384.337 896.339, 468.991 961.289 L 477.840 968.079 538.645 925.345 C 572.087 901.841, 600.136 882.586, 600.975 882.555 C 601.814 882.525, 610.030 886.735, 619.233 891.912 L 635.967 901.323 589.662 929.105 L 543.358 956.888 510.737 1008.694 C 492.796 1037.187, 478.653 1060.615, 479.309 1060.755 C 479.964 1060.895, 505.430 1055.045, 535.901 1047.755 L 591.302 1034.500 606.677 1001.468 L 622.053 968.435 652.776 937.728 L 683.500 907.021 714.658 937.761 L 745.817 968.500 761.040 1001.544 L 776.264 1034.587 832.204 1047.888 C 862.971 1055.204, 888.379 1060.954, 888.667 1060.666 C 888.955 1060.379, 874.635 1036.992, 856.845 1008.697 L 824.500 957.250 778.250 929.483 C 752.813 914.212, 732 901.581, 732 901.415 C 732 901.249, 739.720 896.748, 749.155 891.413 C 764.611 882.672, 766.517 881.841, 768.405 883.013 C 769.557 883.728, 797.050 902.979, 829.500 925.792 C 861.950 948.606, 888.950 967.323, 889.500 967.386 C 890.050 967.449, 926.688 939.600, 970.918 905.500 C 1023.279 865.131, 1050.667 843.419, 1049.418 843.269 C 1048.363 843.142, 1012.001 848.583, 968.613 855.360 L 889.726 867.682 844.613 840.706 C 819.801 825.869, 798.810 813.538, 797.967 813.305 C 797.123 813.071, 771.317 822.582, 740.621 834.440 C 709.924 846.298, 684.289 855.997, 683.654 855.994 C 683.019 855.990, 657.530 846.315, 627.011 834.494 C 596.492 822.672, 571.018 813, 570.402 813 C 569.786 813, 548.856 825.229, 523.891 840.177 M 1.762 1143.707 C 3.006 1143.946, 4.806 1143.937, 5.762 1143.687 C 6.718 1143.437, 5.700 1143.241, 3.500 1143.252 C 1.300 1143.263, 0.518 1143.468, 1.762 1143.707 M 13.784 1143.738 C 16.689 1143.941, 21.189 1143.939, 23.784 1143.734 C 26.378 1143.528, 24 1143.363, 18.500 1143.365 C 13 1143.368, 10.878 1143.536, 13.784 1143.738 "
          stroke="none"
          fill="black"
          fillRule="evenodd"
        />
      </svg>