<?xml version="1.0" standalone="no"?>
<!DOCTYPE svg PUBLIC "-//W3C//DTD SVG 20010904//EN"
 "http://www.w3.org/TR/2001/REC-SVG-20010904/DTD/svg10.dtd">
<svg version="1.0" xmlns="http://www.w3.org/2000/svg"
 width="35" height="40" viewBox="0 0 1044.000000 788.000000"
 preserveAspectRatio="xMidYMid meet">

<g transform="translate(0.000000,788.000000) scale(0.100000,-0.100000)"
fill="#000000" stroke="none">
<path d="M5162 7498 c-164 -176 -295 -1103 -248 -1763 50 -706 125 -1323 205
-1681 31 -138 72 -260 81 -243 23 41 72 266 94 429 84 625 152 1759 135 2250
-17 519 -78 857 -181 1003 -24 33 -57 35 -86 5z"/>
<path d="M6765 7304 c-89 -9 -245 -37 -337 -60 -133 -33 -224 -67 -353 -131
-153 -77 -245 -144 -245 -179 0 -10 145 -2 307 18 257 32 607 32 743 0 374
-88 570 -356 587 -803 9 -243 -29 -474 -126 -768 -55 -167 -156 -421 -207
-523 -13 -26 -24 -50 -24 -54 0 -9 127 152 142 180 6 11 33 50 59 86 76 105
217 336 275 452 181 360 263 725 235 1036 -22 238 -82 384 -211 512 -114 114
-220 168 -410 211 -83 19 -342 33 -435 23z"/>
<path d="M3400 7185 c-200 -31 -450 -123 -588 -217 -121 -82 -236 -217 -293
-345 -61 -133 -74 -214 -73 -458 0 -203 2 -230 28 -345 65 -293 178 -558 368
-860 60 -95 279 -393 298 -405 5 -3 -9 34 -31 82 -22 48 -57 126 -76 173 -19
47 -45 108 -58 136 -36 79 -111 319 -138 445 -42 189 -51 266 -51 439 1 143 4
181 27 279 62 265 215 467 446 585 194 98 384 139 806 171 299 22 387 38 420
75 18 20 18 21 -1 46 -48 65 -258 153 -452 191 -112 21 -508 26 -632 8z"/>
<path d="M8885 6494 c-335 -33 -587 -97 -780 -197 l-80 -42 365 -6 c201 -4
395 -11 433 -18 166 -27 259 -57 377 -117 220 -115 360 -290 427 -540 25 -93
27 -112 27 -314 0 -234 -9 -306 -65 -518 -58 -221 -173 -531 -261 -705 -16
-33 -24 -56 -18 -52 20 13 219 286 296 407 97 153 237 430 287 568 89 243 121
413 121 650 -1 196 -15 285 -65 407 -103 247 -320 401 -646 458 -87 15 -340
27 -418 19z"/>
<path d="M1270 6480 c-456 -47 -751 -279 -857 -675 -25 -94 -27 -114 -27 -325
-1 -201 2 -237 23 -335 71 -332 193 -606 424 -955 54 -81 246 -340 253 -340 2
0 -8 26 -22 58 -168 367 -260 647 -311 937 -26 149 -23 439 5 561 68 297 214
516 442 663 152 98 312 153 585 201 66 11 153 27 193 36 65 14 72 17 60 32
-35 42 -227 107 -388 131 -101 15 -286 20 -380 11z"/>
<path d="M4490 5429 c-357 -19 -787 -65 -1075 -114 -149 -26 -416 -82 -423
-90 -8 -7 77 -245 141 -395 120 -284 278 -587 426 -816 39 -59 68 -110 66
-113 -9 -8 -220 196 -352 340 -249 271 -475 574 -589 787 -57 108 -38 104
-209 37 -200 -77 -418 -197 -603 -328 -298 -212 -507 -537 -567 -881 -26 -150
-25 -153 66 -316 45 -80 108 -187 140 -237 32 -51 53 -93 47 -93 -6 0 -70 57
-141 128 l-130 127 7 -69 c25 -258 132 -598 283 -899 108 -216 271 -476 402
-641 l31 -39 0 -633 0 -634 3135 0 3135 0 0 630 0 631 40 54 c103 140 262 412
364 626 131 273 228 605 261 892 4 31 4 57 0 57 -3 0 -31 -23 -61 -51 -30 -29
-54 -47 -54 -41 0 6 28 54 61 107 l62 96 -6 127 c-17 330 -129 602 -351 855
-215 244 -573 465 -980 603 -55 19 -103 34 -106 34 -4 0 -33 -39 -65 -87 -169
-254 -405 -534 -659 -781 -75 -72 -140 -132 -145 -132 -5 0 31 65 80 145 102
165 241 424 339 630 75 158 135 303 128 311 -9 8 -344 71 -493 93 -315 45
-653 75 -997 87 l-196 7 -6 -74 c-3 -41 -13 -175 -22 -299 -46 -684 -114
-1168 -185 -1330 -26 -57 -66 -100 -96 -100 -117 0 -250 630 -339 1608 l-18
192 -95 -1 c-53 -1 -166 -6 -251 -10z m-1940 -3559 l97 -225 28 -243 27 -242
-128 -142 c-70 -79 -133 -144 -139 -146 -12 -3 -285 280 -285 295 0 4 15 114
34 243 l33 235 87 203 c47 112 96 221 107 244 26 51 14 70 139 -222z m720 20
l102 -235 29 -247 30 -248 -128 -144 c-70 -79 -132 -145 -138 -145 -9 -1 -119
113 -243 251 l-44 48 32 232 c30 222 34 237 75 329 52 113 153 343 166 378 5
13 11 22 13 20 3 -2 50 -110 106 -239z m728 75 c38 -88 87 -196 107 -240 36
-76 39 -91 65 -319 l28 -239 -131 -148 c-73 -81 -137 -148 -142 -148 -13 -1
-269 275 -273 295 -2 8 11 119 28 247 35 253 30 237 165 542 31 72 61 141 66
154 5 13 11 22 13 20 3 -2 36 -76 74 -164z m1562 -75 l102 -235 29 -248 29
-248 -131 -145 c-71 -79 -133 -144 -137 -144 -6 0 -152 152 -246 257 l-38 43
32 237 c25 180 38 248 56 282 18 38 120 268 181 410 8 18 16 32 17 30 2 -2 50
-110 106 -239z m1660 0 l101 -234 30 -249 29 -248 -130 -145 c-72 -79 -135
-144 -139 -144 -6 0 -144 145 -245 257 l-38 43 32 237 33 238 62 135 c34 74
77 169 95 210 18 41 39 90 47 109 8 18 16 32 17 30 2 -2 50 -110 106 -239z
m-2548 208 c8 -13 38 -79 68 -148 29 -69 71 -165 92 -214 35 -83 40 -105 63
-300 14 -116 25 -227 25 -247 0 -31 -15 -52 -126 -177 -70 -78 -132 -142 -139
-142 -7 0 -71 64 -144 142 -109 118 -131 147 -131 172 0 17 14 128 30 246 21
151 37 231 54 270 125 293 182 420 187 420 4 0 13 -10 21 -22z m1682 -52 c19
-41 66 -148 105 -238 l72 -164 27 -237 28 -237 -64 -78 c-36 -42 -98 -111
-139 -152 l-74 -75 -95 100 c-52 55 -114 123 -138 150 l-43 50 33 240 34 240
101 238 c56 130 106 237 111 237 5 0 24 -33 42 -74z m1594 -158 c110 -254 100
-213 147 -563 23 -167 32 -144 -116 -309 -73 -80 -135 -146 -139 -146 -4 0
-69 66 -144 147 -118 126 -136 150 -132 172 3 14 19 125 36 246 l31 220 101
232 c56 128 104 233 108 233 4 0 53 -105 108 -232z"/>
</g>
</svg>
