<svg xmlns="http://www.w3.org/2000/svg" width="35" height="40" viewBox="0 0 1184 970" version="1.1">
	<path d="M 1018.450 151.805 C 994.864 170.852, 989.405 175.405, 988.700 176.621 C 988.260 177.379, 987.426 178, 986.847 178 C 985.961 178, 973.414 187.943, 967.918 193 C 967.022 193.825, 964.986 195.497, 963.394 196.716 C 954.408 203.599, 946.715 209.891, 940.620 215.344 C 936.836 218.730, 933.435 221.500, 933.064 221.500 C 932.692 221.500, 928.645 224.650, 924.071 228.500 C 919.497 232.350, 914.360 236.513, 912.655 237.750 C 909.710 239.889, 906.162 245, 907.623 245 C 908.001 245, 907.663 245.787, 906.873 246.750 C 904.807 249.267, 900.756 257, 901.504 257 C 901.852 257, 901.261 258.238, 900.191 259.750 C 897.730 263.231, 887.801 283, 888.514 283 C 888.807 283, 888.359 284.048, 887.519 285.330 C 885.224 288.833, 876.987 306, 877.601 306 C 877.896 306, 877.268 307.238, 876.207 308.750 C 875.146 310.262, 871.925 316.225, 869.049 322 C 866.174 327.775, 863.467 332.872, 863.035 333.326 C 862.602 333.780, 832.914 334.230, 797.061 334.326 L 731.872 334.500 727.932 343.912 C 725.764 349.089, 724.219 353.552, 724.498 353.831 C 724.776 354.110, 724.404 355.049, 723.670 355.919 C 722.431 357.387, 718.031 367.120, 717.546 369.464 C 717.428 370.034, 716.826 371.625, 716.208 373 C 712.375 381.531, 709.038 390.372, 709.484 390.817 C 709.770 391.103, 709.379 392.049, 708.615 392.919 C 707.851 393.788, 705.094 399.900, 702.487 406.500 C 699.880 413.100, 697.060 419.287, 696.220 420.249 C 695.380 421.210, 690.149 424.293, 684.596 427.098 C 668.218 435.372, 634.350 452.888, 622.582 459.171 C 616.578 462.377, 610.953 464.999, 610.082 464.998 C 609.212 464.996, 598.025 460.299, 585.222 454.560 C 572.419 448.820, 561.619 444.048, 561.222 443.955 C 560.825 443.862, 558.925 443.004, 557 442.048 C 550.197 438.670, 519.166 424.847, 517.842 424.604 C 517.104 424.468, 514.861 423.361, 512.857 422.143 C 509.535 420.124, 508.495 418.542, 507.425 413.882 C 507.220 412.993, 505.691 408.728, 504.026 404.405 C 502.362 400.082, 501 396.153, 501 395.674 C 501 395.195, 500.365 393.384, 499.588 391.651 C 498.811 389.918, 497.390 386.025, 496.428 383 C 495.467 379.975, 493.998 375.925, 493.164 374 C 492.330 372.075, 491.511 369.825, 491.343 369 C 491.175 368.175, 488.374 360.075, 485.118 351 L 479.199 334.500 410.559 334.339 C 364.616 334.231, 341.504 333.833, 340.663 333.135 C 339.972 332.561, 338.566 329.259, 337.539 325.796 C 336.513 322.333, 334.773 317.475, 333.674 315 C 332.575 312.525, 331.746 310.031, 331.834 309.459 C 331.921 308.886, 326.916 293.232, 320.712 274.673 L 309.432 240.929 300.981 234.043 C 296.333 230.255, 292.298 227.205, 292.015 227.265 C 291.732 227.324, 289.925 225.955, 288 224.223 C 286.075 222.491, 273.475 212.520, 260 202.066 C 246.525 191.612, 234.809 182.467, 233.964 181.744 C 233.120 181.021, 230.645 179.121, 228.464 177.522 C 226.284 175.922, 224.050 174.121, 223.500 173.519 C 221.982 171.857, 200.820 155.507, 200.116 155.452 C 199.777 155.426, 197.731 153.744, 195.570 151.716 C 191.883 148.256, 189.347 147.303, 191.849 150.318 C 192.472 151.069, 192.717 151.950, 192.392 152.275 C 192.067 152.600, 192.339 154.498, 192.998 156.493 C 193.656 158.487, 194.341 160.880, 194.521 161.810 C 194.700 162.739, 194.915 163.500, 194.998 163.500 C 195.081 163.500, 195.333 164.482, 195.558 165.681 C 196.642 171.468, 203.318 195.631, 204.097 196.592 C 204.584 197.193, 204.784 197.883, 204.541 198.125 C 203.871 198.796, 208.650 216.873, 209.894 218.372 C 210.493 219.094, 210.712 219.955, 210.381 220.286 C 210.050 220.617, 210.497 223.276, 211.375 226.194 C 212.253 229.112, 213.884 235.200, 215 239.722 C 216.115 244.245, 217.545 249.195, 218.176 250.722 C 218.807 252.250, 219.242 253.863, 219.142 254.307 C 219.043 254.751, 221.038 262.851, 223.576 272.307 C 226.114 281.763, 228.797 291.975, 229.538 295 C 230.279 298.025, 234.061 312.425, 237.943 327 C 241.826 341.575, 246.603 359.575, 248.560 367 C 250.517 374.425, 252.388 381.175, 252.718 382 C 253.048 382.825, 253.251 383.822, 253.170 384.215 C 253.089 384.609, 253.541 386.184, 254.173 387.715 C 254.805 389.247, 255.255 390.822, 255.173 391.215 C 255.091 391.609, 255.541 393.184, 256.173 394.715 C 256.805 396.247, 257.235 397.883, 257.127 398.352 C 256.959 399.085, 258.447 404.823, 266.111 433 C 266.785 435.475, 267.476 438.247, 267.648 439.159 C 268.142 441.790, 273.990 463.340, 274.660 465 C 274.992 465.825, 275.390 467.400, 275.544 468.500 C 275.885 470.939, 283.795 500.902, 284.652 503 C 284.989 503.825, 285.398 505.400, 285.561 506.500 C 286.217 510.932, 293.123 535.444, 294.020 536.525 C 294.550 537.162, 294.769 537.898, 294.507 538.159 C 294.246 538.421, 295.616 544.679, 297.552 552.067 C 299.488 559.455, 301.245 566.239, 301.458 567.142 C 303.246 574.750, 306.442 585.705, 307.133 586.592 C 307.600 587.193, 307.716 587.950, 307.391 588.275 C 307.066 588.601, 307.154 589.440, 307.587 590.141 C 308.020 590.842, 308.474 592.348, 308.596 593.489 C 308.935 596.671, 312.132 607.363, 313.112 608.592 C 313.591 609.193, 313.748 609.919, 313.460 610.206 C 313.173 610.493, 314.321 615.852, 316.010 622.114 C 317.699 628.376, 319.245 634.175, 319.445 635 C 321.555 643.700, 324.276 653.637, 324.763 654.426 C 325.098 654.967, 325.503 656.612, 325.664 658.082 C 325.825 659.552, 326.475 662.048, 327.109 663.627 C 327.744 665.207, 328.364 667.400, 328.488 668.500 C 328.612 669.600, 329.481 673.200, 330.419 676.500 C 331.356 679.800, 332.330 683.514, 332.582 684.753 C 332.834 685.992, 334.173 691.167, 335.557 696.253 C 340.422 714.125, 346.073 735.526, 346.581 738 C 347.800 743.934, 349.123 747.958, 350.043 748.527 C 350.588 748.863, 350.780 749.547, 350.472 750.046 C 350.163 750.545, 350.456 752.877, 351.124 755.227 C 351.791 757.577, 352.436 759.950, 352.557 760.500 C 352.679 761.050, 353.402 763.975, 354.164 767 C 355.127 770.817, 355.328 774.642, 354.822 779.500 C 354.421 783.350, 354.138 789.996, 354.195 794.268 C 354.251 798.541, 354.005 802.328, 353.648 802.685 C 353.292 803.042, 353 804.576, 353 806.094 C 353 807.895, 352.071 809.585, 350.328 810.957 C 348.858 812.113, 341.545 818.844, 334.078 825.914 C 326.610 832.984, 313.188 845.627, 304.250 854.008 C 295.312 862.390, 288 869.393, 288 869.571 C 288 869.748, 430.763 869.890, 605.250 869.887 L 922.500 869.881 914 861.842 C 909.325 857.421, 895.038 843.389, 882.250 830.660 L 859 807.516 858.924 796.008 C 858.795 776.490, 859.142 768.986, 860.309 766 C 861.623 762.638, 867.792 738.170, 868.381 733.982 C 868.499 733.148, 868.867 732.023, 869.200 731.482 C 870.393 729.544, 875.148 710.815, 874.589 710.256 C 874.275 709.941, 874.490 709.115, 875.067 708.419 C 876.357 706.865, 882.208 684.874, 881.515 684.182 C 881.241 683.908, 881.423 683.193, 881.919 682.592 C 882.415 681.991, 884.012 677, 885.468 671.500 C 886.924 666, 890.812 651.435, 894.108 639.133 C 897.404 626.832, 899.857 616.523, 899.559 616.225 C 899.261 615.928, 899.447 615.167, 899.971 614.535 C 900.496 613.903, 901.573 610.936, 902.364 607.943 C 903.156 604.949, 906.126 593.791, 908.965 583.147 C 911.804 572.502, 913.877 563.544, 913.572 563.239 C 913.267 562.934, 913.519 562.080, 914.131 561.342 C 914.744 560.604, 914.910 560, 914.500 560 C 914.090 560, 914.218 559.438, 914.784 558.750 C 915.867 557.436, 923.193 530.771, 922.866 529.334 C 922.762 528.875, 923.237 527.150, 923.922 525.500 C 924.607 523.850, 925.295 521.600, 925.451 520.500 C 925.608 519.400, 926.044 517.775, 926.421 516.890 C 926.798 516.004, 927.247 514.204, 927.418 512.890 C 927.590 511.575, 928.184 509.375, 928.738 508 C 929.791 505.387, 931.223 499.585, 931.458 496.982 C 931.533 496.148, 931.861 495.023, 932.187 494.482 C 932.738 493.568, 938.202 473.593, 939.431 468 C 939.733 466.625, 942.014 458.075, 944.501 449 C 948.825 433.217, 949.828 429.336, 950.445 426 C 950.597 425.175, 951.034 423.775, 951.414 422.890 C 951.795 422.004, 952.277 419.979, 952.484 418.390 C 952.692 416.800, 952.928 415.500, 953.008 415.500 C 953.088 415.500, 953.332 414.825, 953.550 414 C 953.768 413.175, 955.537 406.875, 957.480 400 C 959.423 393.125, 960.820 386.992, 960.585 386.372 C 960.349 385.751, 960.545 384.851, 961.019 384.372 C 961.849 383.534, 967.854 362.617, 968.447 358.500 C 968.606 357.400, 968.995 355.825, 969.312 355 C 969.900 353.470, 972.074 345.414, 980.508 313.500 C 983.125 303.600, 986.769 289.953, 988.607 283.173 C 990.445 276.393, 991.888 270.543, 991.813 270.173 C 991.738 269.803, 992.210 268.207, 992.860 266.627 C 993.511 265.048, 994.200 262.573, 994.390 261.127 C 994.581 259.682, 994.958 257.825, 995.227 257 C 997.339 250.539, 997.870 248.588, 1002.570 230 C 1002.779 229.175, 1004.733 221.759, 1006.912 213.521 C 1009.091 205.282, 1010.682 198.348, 1010.446 198.113 C 1010.210 197.877, 1010.423 197.193, 1010.918 196.592 C 1011.414 195.991, 1014.574 185.150, 1017.941 172.500 C 1021.309 159.850, 1024.260 148.938, 1024.501 148.250 C 1025.132 146.441, 1024.983 146.529, 1018.450 151.805 M 361.590 468.855 C 361.240 469.420, 361.265 477.447, 361.645 486.692 C 362.026 495.936, 362.518 508.225, 362.739 514 C 363.228 526.738, 363.543 532.899, 364.362 545.695 C 364.707 551.088, 365.230 562.025, 365.524 570 C 365.818 577.975, 366.514 587.875, 367.072 592 C 368.256 600.770, 368.328 601.278, 371.507 623.500 C 372.844 632.850, 374.160 642.525, 374.430 645 C 374.699 647.475, 375.376 652.200, 375.934 655.500 C 376.491 658.800, 377.178 663.525, 377.461 666 C 377.744 668.475, 378.859 676.528, 379.939 683.895 C 381.019 691.263, 381.851 697.563, 381.788 697.895 C 381.479 699.509, 383.930 705.719, 390.597 720.211 C 394.605 728.924, 397.905 736.269, 397.931 736.532 C 397.956 736.796, 399.269 739.596, 400.848 742.756 C 404.994 751.054, 411.175 764.989, 411.406 766.558 C 411.712 768.646, 415.257 772.143, 416.156 771.244 C 416.598 770.802, 417.228 767.528, 417.555 763.970 C 417.882 760.411, 418.602 753.450, 419.155 748.500 C 419.708 743.550, 420.135 738.600, 420.105 737.500 C 420.075 736.400, 420.714 728.799, 421.525 720.610 C 422.336 712.420, 423 705.108, 423 704.360 C 423 703.612, 423.563 703.112, 424.250 703.250 C 425.093 703.419, 425.500 702.117, 425.500 699.250 C 425.500 696.913, 425.091 695.112, 424.592 695.250 C 424.092 695.388, 421.764 686.725, 419.419 676 C 417.074 665.275, 414.421 653.297, 413.523 649.382 C 412.626 645.467, 411.751 641.192, 411.578 639.882 C 411.406 638.572, 411.018 636.825, 410.717 636 C 410.416 635.175, 407.637 622.800, 404.541 608.500 C 401.446 594.200, 396.958 576.200, 394.569 568.500 C 390.179 554.357, 388.718 549.325, 388.471 547.500 C 388.397 546.950, 387.844 545.375, 387.243 544 C 386.022 541.208, 379.966 521.950, 379.648 519.847 C 379.536 519.106, 379.172 518.050, 378.839 517.500 C 378.276 516.568, 376.720 510.759, 376.428 508.500 C 376.357 507.950, 375.517 505.733, 374.562 503.574 C 373.607 501.415, 372.671 498.490, 372.482 497.074 C 372.293 495.658, 372.038 494.275, 371.917 494 C 371.795 493.725, 371.606 493.050, 371.497 492.500 C 371.388 491.950, 370.556 489.827, 369.649 487.782 C 368.742 485.737, 368 483.533, 368 482.885 C 368 481.334, 363.884 469.739, 362.951 468.663 C 362.552 468.202, 361.940 468.289, 361.590 468.855 M 860.943 470.070 C 860.217 471.406, 859.550 473.175, 859.462 474 C 859.230 476.165, 856.232 485.815, 855.347 487.248 C 854.933 487.917, 854.497 489.148, 854.379 489.982 C 853.950 492.990, 850.788 503.528, 849.724 505.492 C 849.126 506.596, 848.523 508.400, 848.385 509.500 C 848.247 510.600, 845.353 520.275, 841.954 531 C 838.556 541.725, 835.198 552.525, 834.491 555 C 833.254 559.338, 829.461 570.910, 828.264 574 C 827.944 574.825, 827.749 575.822, 827.830 576.215 C 827.911 576.609, 827.471 578.184, 826.854 579.715 C 826.236 581.247, 825.595 583.525, 825.430 584.778 C 824.988 588.135, 820.043 610.252, 819.343 612 C 819.013 612.825, 818.610 614.400, 818.448 615.500 C 817.706 620.545, 816.659 625.679, 813.938 637.628 C 812.325 644.708, 810.808 651.625, 810.567 653 C 810.327 654.375, 808.151 664.725, 805.732 676 C 801.594 695.289, 800.472 706.718, 802.408 709.851 C 802.730 710.373, 802.941 711.857, 802.875 713.150 C 802.810 714.442, 803.731 725.511, 804.923 737.746 C 806.115 749.981, 806.999 760.556, 806.887 761.246 C 806.776 761.936, 806.961 763.175, 807.299 764 C 807.637 764.825, 808.046 766.850, 808.207 768.500 C 808.425 770.736, 809.010 771.500, 810.500 771.500 C 811.798 771.500, 812.537 770.798, 812.606 769.500 C 812.733 767.106, 816.686 758.112, 818.541 756 C 819.265 755.175, 819.947 754.050, 820.056 753.500 C 820.534 751.092, 821.748 748.260, 831.649 726.451 L 842.114 703.403 844.101 689.451 C 845.194 681.778, 846.365 674.825, 846.702 674 C 847.039 673.175, 847.223 671.932, 847.111 671.237 C 846.949 670.238, 854.683 613.568, 856.423 603 C 857.986 593.506, 859.161 581.924, 859.516 572.500 C 859.743 566.450, 860.115 557.675, 860.341 553 C 860.567 548.325, 860.830 542.250, 860.925 539.500 C 861.680 517.619, 864.112 472.712, 864.586 471.897 C 864.778 471.566, 864.335 470.472, 863.600 469.467 C 862.331 467.732, 862.197 467.762, 860.943 470.070 M 792.192 473.643 C 791.646 474.664, 784.832 492.600, 777.050 513.500 L 762.900 551.500 744.057 630.583 L 725.215 709.667 731.857 742.583 C 736.882 767.484, 738.851 775.500, 739.939 775.500 C 741.728 775.500, 774.780 719.792, 775.509 715.547 C 775.797 713.871, 780.358 678.300, 785.645 636.500 L 795.257 560.500 795.059 517 C 794.950 493.075, 794.483 473.114, 794.023 472.643 C 793.562 472.171, 792.738 472.621, 792.192 473.643 M 422.653 475.752 C 422.333 476.271, 422.023 496.002, 421.966 519.598 L 421.862 562.500 430.485 631 C 435.227 668.675, 439.700 704.291, 440.425 710.146 L 441.742 720.792 458.792 749.646 C 468.170 765.516, 476.441 778.500, 477.171 778.500 C 478.115 778.500, 480.435 768.927, 485.170 745.500 L 491.840 712.500 472.967 633.214 L 454.093 553.928 439.903 515.714 C 432.098 494.696, 425.155 476.894, 424.474 476.154 C 423.763 475.381, 422.988 475.210, 422.653 475.752 M 515.354 569.197 C 514.484 570.565, 509.898 611.196, 509.996 616.675 C 510.027 618.421, 509.583 620.139, 509.010 620.494 C 508.437 620.848, 508.163 621.455, 508.403 621.843 C 508.642 622.230, 509.100 625.989, 509.420 630.195 C 509.741 634.402, 510.199 638.441, 510.440 639.172 C 510.681 639.902, 511.137 644.491, 511.453 649.369 C 511.770 654.247, 512.207 658.525, 512.423 658.876 C 512.640 659.227, 513.099 663.786, 513.444 669.007 C 513.788 674.228, 514.254 679.850, 514.479 681.500 C 514.704 683.150, 515.881 694.400, 517.094 706.500 C 519.595 731.450, 517.976 727.502, 532.750 744.671 C 535.638 748.026, 538 751.031, 538 751.347 C 538 751.664, 540.069 754.052, 542.598 756.654 C 545.127 759.256, 547.605 762.460, 548.104 763.774 C 548.604 765.088, 549.552 765.983, 550.212 765.763 C 551.301 765.400, 556.334 757, 555.462 757 C 555.084 757, 559.080 745.996, 561.453 740.500 C 562.165 738.850, 564.185 733.651, 565.941 728.947 L 569.134 720.394 565.134 705.447 C 562.934 697.226, 558.397 680.375, 555.052 668 C 551.706 655.625, 548.766 644.600, 548.518 643.500 C 546.443 634.296, 541.689 619.171, 539.503 614.820 C 538.034 611.894, 536.845 609.400, 536.861 609.277 C 536.877 609.154, 532.820 600.685, 527.846 590.456 C 522.872 580.228, 518.695 571.127, 518.564 570.234 C 518.254 568.125, 516.414 567.531, 515.354 569.197 M 702.467 569.053 C 702.098 569.650, 699.760 574.270, 697.272 579.319 C 694.784 584.369, 692.060 589.288, 691.219 590.250 C 690.378 591.212, 690.040 592, 690.467 592 C 690.895 592, 690.627 592.744, 689.872 593.654 C 689.118 594.563, 688.599 595.457, 688.720 595.641 C 689.088 596.199, 685 605.264, 682.706 608.976 C 681.519 610.895, 680.430 612.924, 680.284 613.483 C 680.138 614.042, 678.639 618.550, 676.952 623.500 C 675.266 628.450, 673.408 634.750, 672.823 637.500 C 672.239 640.250, 671.269 643.400, 670.668 644.500 C 670.067 645.600, 669.666 646.825, 669.778 647.222 C 670.037 648.142, 660.194 684.876, 659.302 686.320 C 658.935 686.913, 658.565 688.322, 658.480 689.450 C 658.394 690.577, 656.591 698.037, 654.472 706.026 L 650.620 720.552 654.380 730.526 C 656.448 736.012, 658.752 742.075, 659.500 744 C 660.248 745.925, 662.334 751.325, 664.137 756 C 665.940 760.675, 667.721 764.877, 668.096 765.338 C 668.470 765.800, 672.315 762.013, 676.638 756.923 C 680.962 751.834, 686.525 745.318, 689 742.444 C 700.838 728.696, 700.130 730.197, 701.628 715.654 C 703.036 701.986, 703.707 696.500, 703.972 696.500 C 704.058 696.500, 704.264 694.475, 704.431 692 C 704.598 689.525, 705.010 684.575, 705.347 681 C 705.684 677.425, 705.972 673.600, 705.988 672.500 C 706.004 671.400, 706.489 666.225, 707.065 661 C 708.038 652.188, 708.351 649.268, 709.478 638.500 C 710.574 628.023, 710.160 618.622, 707.511 593.834 C 706.650 585.767, 706.023 578.792, 706.119 578.334 C 706.453 576.740, 704.732 568.953, 703.938 568.462 C 703.498 568.190, 702.836 568.456, 702.467 569.053 M 609.275 673.261 C 608.751 673.942, 606.403 679.675, 604.056 686 C 599.901 697.197, 599.713 698.239, 596.916 725.500 C 595.335 740.900, 594.033 754.443, 594.021 755.595 C 594.003 757.382, 609.215 779, 610.491 779 C 611.619 779, 627.998 757.601, 627.985 756.145 C 627.977 755.240, 626.442 741.891, 624.573 726.480 C 621.298 699.472, 621.006 698, 616.485 685.726 C 613.906 678.722, 611.443 672.774, 611.011 672.507 C 610.580 672.240, 609.798 672.580, 609.275 673.261 M 1.762 969.707 C 3.006 969.946, 4.806 969.937, 5.762 969.687 C 6.718 969.437, 5.700 969.241, 3.500 969.252 C 1.300 969.263, 0.518 969.468, 1.762 969.707 M 12.750 969.737 C 15.638 969.939, 20.363 969.939, 23.250 969.737 C 26.138 969.535, 23.775 969.370, 18 969.370 C 12.225 969.370, 9.863 969.535, 12.750 969.737 " stroke="none" fill="black" fill-rule="evenodd"/>
</svg>