<svg xmlns="http://www.w3.org/2000/svg" version="1.0" width="35" height="40" viewBox="0 0 1576.000000 1524.000000" preserveAspectRatio="xMidYMid meet">

<g transform="translate(0.000000,1524.000000) scale(0.100000,-0.100000)" fill="#000000" stroke="none">
<path d="M1363 13834 c8 -108 26 -204 68 -358 l21 -79 -26 -201 c-48 -372 -51 -411 -51 -781 0 -398 10 -522 66 -800 167 -826 663 -1361 1434 -1545 138 -33 232 -46 395 -55 191 -11 604 21 793 61 88 18 103 18 112 -3 11 -28 23 -256 41 -773 22 -605 22 -1561 0 -2565 -40 -1902 -44 -3047 -11 -3300 72 -548 314 -1052 696 -1449 278 -290 589 -495 1004 -664 181 -73 528 -170 711 -197 238 -35 389 -37 3399 -42 2939 -4 3271 -2 3355 28 93 33 265 190 332 305 42 72 101 217 122 299 37 149 54 409 63 955 7 509 -10 747 -78 1084 -50 252 -153 607 -207 716 l-27 55 -70 6 c-38 4 -403 10 -810 13 -685 6 -1354 20 -1359 28 -1 1 1 84 5 183 4 99 12 475 18 835 49 2828 39 4914 -24 5368 -53 382 -276 1055 -491 1484 -213 425 -407 703 -675 965 -184 179 -309 268 -534 378 -179 88 -226 98 -525 115 -263 14 -2151 27 -5215 36 l-2541 7 9 -109z m8007 -588 c69 -37 152 -87 185 -111 300 -213 574 -579 799 -1065 161 -345 315 -821 365 -1120 45 -271 44 -240 48 -2125 5 -2081 -14 -4225 -37 -4248 -3 -3 -282 -1 -620 4 -1188 17 -2130 30 -2649 36 l-523 6 6 -39 c3 -21 21 -138 40 -259 118 -751 159 -1408 115 -1875 -18 -191 -85 -590 -119 -712 l-11 -38 -62 0 c-190 0 -620 112 -889 231 -374 165 -702 440 -914 766 -154 236 -258 518 -298 803 -32 232 -29 1311 9 2945 40 1727 24 2954 -51 3920 -63 819 -203 1530 -391 1985 -58 142 -170 350 -241 449 -135 189 -324 348 -500 422 -42 17 -128 45 -191 61 -63 15 -117 31 -120 34 -3 3 1328 4 2959 2 l2965 -3 125 -69z m-7264 -430 c141 -47 377 -74 864 -96 288 -14 347 -22 430 -62 89 -43 236 -191 304 -307 163 -278 285 -693 375 -1271 40 -260 45 -310 32 -343 -13 -34 -34 -42 -181 -74 -105 -23 -142 -26 -437 -30 -364 -6 -429 0 -590 52 -336 110 -575 310 -723 605 -101 200 -171 476 -191 749 -13 176 -17 771 -6 789 12 18 45 15 123 -12z m5974 -8811 c319 -6 1489 -22 3505 -50 611 -8 1210 -17 1333 -21 l223 -6 14 -34 c36 -86 92 -399 121 -664 29 -273 10 -692 -42 -955 -32 -161 -127 -380 -184 -429 -48 -40 -88 -42 -1710 -61 -657 -8 -1514 -20 -1905 -25 -900 -14 -1811 -17 -1821 -8 -4 4 5 74 19 155 42 232 66 441 79 661 19 347 -17 1078 -69 1415 l-6 39 64 -6 c35 -3 206 -8 379 -11z"/>
<path d="M6180 10980 l0 -300 1630 0 1630 0 0 300 0 300 -1630 0 -1630 0 0 -300z"/>
<path d="M6260 8740 l0 -300 1630 0 1630 0 0 300 0 300 -1630 0 -1630 0 0 -300z"/>
<path d="M6260 6420 l0 -300 1630 0 1630 0 0 300 0 300 -1630 0 -1630 0 0 -300z"/>
</g>
</svg>