<svg xmlns="http://www.w3.org/2000/svg" version="1.0" width="35" height="40" viewBox="0 0 1136.000000 922.000000" preserveAspectRatio="xMidYMid meet">

<g transform="translate(0.000000,922.000000) scale(0.100000,-0.100000)" fill="#000000" stroke="none">
<path d="M5685 8724 c-67 -11 -194 -60 -255 -99 -178 -114 -290 -323 -290 -540 0 -171 73 -347 192 -463 89 -87 240 -161 346 -170 34 -3 65 -8 67 -12 7 -12 -24 -148 -52 -224 -14 -39 -34 -95 -44 -124 -23 -65 -139 -292 -150 -292 -4 0 -11 -9 -14 -21 -9 -28 -94 -139 -176 -231 -71 -79 -222 -204 -326 -270 -71 -45 -236 -128 -255 -128 -7 0 -24 -6 -38 -13 -46 -24 -144 -57 -195 -67 -27 -5 -102 -18 -165 -30 -165 -31 -444 -24 -642 14 -136 27 -356 95 -453 140 -27 13 -68 31 -90 40 -22 10 -57 29 -78 43 l-38 26 55 56 c66 68 123 175 137 262 6 35 8 106 5 157 -5 83 -10 102 -46 175 -66 133 -171 225 -305 269 -132 43 -319 25 -432 -42 -47 -27 -59 -38 -119 -100 -113 -117 -168 -310 -131 -457 58 -226 204 -371 412 -409 78 -15 102 -15 180 -4 50 7 107 21 127 31 21 11 42 19 48 19 40 0 -38 -348 -122 -550 -117 -278 -299 -517 -535 -706 -51 -41 -95 -74 -98 -74 -3 0 -31 -17 -63 -38 -110 -73 -298 -148 -462 -187 -90 -20 -241 -30 -266 -17 -11 6 -33 34 -49 63 l-28 53 24 15 c88 55 161 171 178 282 31 199 -56 364 -241 460 -48 24 -191 35 -271 20 -73 -13 -184 -83 -228 -143 -75 -103 -84 -132 -84 -263 0 -114 2 -123 30 -179 40 -77 85 -128 154 -175 81 -55 117 -64 252 -63 l117 1 7 -42 c4 -23 24 -118 45 -212 21 -93 57 -253 80 -355 22 -102 59 -264 81 -360 23 -96 58 -251 80 -345 150 -653 194 -844 239 -1035 21 -91 44 -192 50 -226 7 -39 10 -286 10 -695 l-1 -634 33 -21 c59 -37 117 -54 296 -89 208 -40 273 -48 567 -75 461 -42 691 -57 975 -65 113 -3 345 -10 515 -15 517 -17 1747 -31 2135 -25 614 9 914 15 1170 25 135 5 324 12 420 15 213 7 488 28 795 60 127 14 256 27 287 30 31 3 101 14 155 25 287 56 329 68 446 120 l47 21 0 519 0 519 40 177 c22 98 40 186 40 197 0 10 18 103 39 205 38 179 74 359 161 792 79 396 122 608 161 790 21 102 39 194 39 204 0 10 20 109 44 220 24 110 47 227 51 260 l7 58 31 -6 c76 -15 176 -18 213 -7 119 36 184 82 256 180 64 86 86 236 54 359 -14 52 -77 158 -104 175 -7 5 -29 22 -48 39 -49 43 -159 78 -248 78 -179 0 -321 -96 -394 -267 -18 -42 -22 -71 -22 -155 0 -103 0 -105 43 -185 29 -56 59 -95 99 -131 l56 -50 -43 -31 c-24 -17 -45 -31 -48 -31 -3 0 -36 -20 -74 -45 -65 -43 -71 -45 -143 -45 -94 1 -143 12 -250 57 -278 118 -551 377 -778 738 -35 56 -137 277 -152 330 -10 33 -29 101 -44 150 -24 79 -51 278 -40 297 2 3 25 0 51 -8 54 -16 178 -18 242 -3 64 14 169 66 218 107 67 56 129 143 159 223 24 63 28 90 28 179 1 93 -3 115 -29 188 -17 47 -44 99 -62 120 -18 20 -35 44 -38 52 -3 8 -20 25 -38 37 -17 13 -43 32 -57 43 -14 11 -59 34 -100 51 -90 37 -228 50 -307 29 -282 -76 -441 -312 -403 -595 19 -140 98 -272 209 -349 23 -16 41 -33 41 -37 0 -17 -221 -108 -310 -128 -320 -71 -629 -61 -925 31 -180 55 -172 52 -345 138 -218 109 -337 187 -509 336 -135 117 -306 297 -335 352 -5 9 -14 22 -21 27 -17 14 -121 174 -158 244 -16 31 -38 72 -48 91 -29 54 -25 66 29 80 206 51 388 221 454 425 30 93 33 286 4 385 -75 264 -311 446 -591 455 -49 2 -103 1 -120 -1z m175 -3276 c35 -68 91 -177 125 -243 34 -66 78 -151 98 -190 32 -62 38 -83 47 -180 5 -60 23 -191 39 -290 l30 -180 -37 -34 c-20 -19 -80 -75 -133 -125 -162 -155 -230 -216 -241 -216 -11 0 -150 124 -370 330 l-48 45 20 115 c10 63 33 198 51 300 l32 185 72 140 c185 360 240 465 246 465 3 0 34 -55 69 -122z m-1534 -503 c31 -14 60 -25 65 -25 5 0 42 -16 83 -35 41 -19 96 -42 122 -51 25 -8 74 -28 108 -44 33 -15 82 -35 108 -44 52 -19 85 -43 207 -154 47 -42 105 -95 129 -117 24 -22 61 -56 81 -76 20 -20 48 -44 64 -54 25 -16 27 -22 27 -84 0 -65 -53 -488 -63 -497 -2 -3 -105 0 -228 5 -123 6 -249 11 -279 11 l-55 1 -34 57 c-18 31 -58 100 -87 152 -30 52 -59 102 -64 110 -5 8 -22 35 -36 60 -15 25 -41 70 -59 100 -20 32 -38 82 -45 120 -7 36 -29 142 -51 235 -21 94 -46 206 -55 250 -9 44 -19 86 -21 93 -8 19 21 14 83 -13z m3034 8 c-1 -25 -32 -182 -63 -314 -20 -85 -43 -190 -52 -234 -18 -85 -56 -169 -111 -248 -19 -26 -34 -50 -34 -54 0 -4 -20 -37 -44 -73 -24 -36 -64 -99 -89 -140 -25 -41 -52 -83 -59 -92 -11 -15 -52 -20 -286 -34 -150 -10 -274 -15 -276 -13 -2 2 -13 69 -24 149 -44 314 -55 411 -46 419 5 4 38 32 74 61 59 50 209 179 270 233 70 62 121 97 175 119 33 14 89 38 125 53 36 15 83 34 105 42 22 9 81 32 130 53 200 85 205 86 205 73z m-3015 -1225 c274 -11 290 -12 307 -32 9 -12 17 -24 18 -28 0 -3 35 -60 79 -125 150 -227 181 -275 181 -283 0 -5 -19 -23 -42 -41 -24 -18 -54 -43 -67 -56 -13 -13 -28 -23 -32 -23 -5 0 -18 -9 -29 -20 -22 -22 -228 -182 -259 -202 -15 -9 -33 -5 -97 19 -44 17 -108 41 -144 53 -166 56 -288 99 -315 111 -33 15 -148 97 -153 111 -2 4 -9 8 -16 8 -6 0 -27 14 -45 31 -18 16 -45 38 -60 47 -14 9 -37 26 -51 39 -14 12 -72 57 -129 100 -58 43 -106 83 -108 88 -3 10 77 38 387 136 69 21 152 48 185 58 75 24 46 23 390 9z m3269 -67 c158 -51 351 -112 449 -142 43 -12 81 -27 84 -33 6 -9 -48 -59 -116 -109 -80 -59 -359 -272 -381 -291 -14 -12 -92 -44 -175 -71 -82 -27 -199 -65 -260 -85 -174 -59 -173 -59 -244 -3 -33 27 -113 86 -177 133 -64 47 -133 99 -153 117 l-36 31 17 34 c10 18 42 71 72 118 49 76 86 134 175 280 l27 45 250 5 c137 3 271 6 298 8 36 2 82 -8 170 -37z m-3110 -852 c38 -11 154 -45 384 -115 71 -22 92 -32 92 -46 0 -10 -13 -75 -29 -145 -16 -71 -42 -188 -57 -262 l-29 -134 -45 -15 c-59 -20 -236 -87 -330 -124 -149 -60 -177 -65 -380 -77 -446 -24 -490 -25 -490 -9 0 8 29 59 64 114 98 151 187 290 242 378 50 80 62 91 259 241 50 38 92 71 95 75 3 3 20 16 38 29 18 13 47 36 65 52 17 16 37 29 44 29 7 0 13 5 13 10 0 13 13 13 64 -1z m2531 -53 c39 -33 180 -149 305 -251 91 -74 137 -119 157 -157 24 -42 85 -137 134 -210 22 -31 39 -59 39 -62 0 -3 18 -32 40 -63 22 -32 40 -61 40 -65 0 -4 16 -28 35 -54 19 -25 35 -50 35 -55 0 -12 -260 -11 -499 1 -178 9 -186 10 -270 45 -47 20 -131 54 -186 77 -55 22 -143 59 -196 82 l-97 41 -17 80 c-9 44 -34 150 -56 236 -21 86 -39 172 -39 192 0 32 3 36 33 42 33 6 206 62 377 121 52 18 102 33 110 33 9 1 34 -14 55 -33z m-1629 -513 c6 -10 37 -67 69 -128 32 -60 78 -148 103 -195 25 -47 52 -96 59 -110 20 -38 16 -60 -20 -120 -43 -71 -103 -176 -145 -254 -18 -33 -41 -72 -50 -86 -9 -14 -27 -45 -40 -70 -13 -25 -28 -47 -32 -50 -4 -3 -56 -50 -116 -105 -111 -102 -122 -112 -279 -260 -49 -47 -94 -84 -100 -82 -5 2 -11 19 -13 38 -2 19 -21 158 -43 310 -21 152 -39 293 -39 315 0 21 14 98 31 169 16 72 38 177 49 235 37 198 39 202 90 221 59 22 175 72 278 120 45 22 88 39 95 39 6 1 23 7 37 15 34 19 53 18 66 -2z m759 -58 c33 -15 80 -34 105 -42 25 -9 73 -28 108 -44 34 -16 68 -29 75 -29 40 0 61 -53 81 -205 4 -27 23 -133 43 -234 l36 -183 -36 -252 c-20 -138 -39 -288 -43 -333 -5 -67 -10 -83 -23 -83 -9 0 -62 44 -118 98 -57 53 -165 153 -242 222 -111 100 -145 137 -170 185 -17 33 -54 103 -83 155 -28 52 -63 120 -79 152 -15 31 -42 78 -59 104 -16 26 -30 56 -30 66 0 19 200 424 231 469 l19 27 62 -23 c35 -13 90 -35 123 -50z"/>
</g>
</svg>