<svg xmlns="http://www.w3.org/2000/svg" version="1.0" width="35" height="40" viewBox="0 0 1174.000000 1166.000000" preserveAspectRatio="xMidYMid meet">

<g transform="translate(0.000000,1166.000000) scale(0.100000,-0.100000)" fill="#000000" stroke="none">
<path d="M6120 10720 c-292 -19 -612 -70 -900 -146 -144 -38 -443 -135 -488 -158 l-28 -14 87 -799 c48 -439 87 -798 86 -799 -1 -1 -202 284 -446 632 l-443 634 -32 -18 c-17 -11 -83 -50 -146 -87 -225 -134 -500 -325 -725 -503 -610 -485 -1059 -1013 -1345 -1582 -109 -217 -210 -467 -193 -479 47 -30 1273 -934 1271 -936 -2 -2 -329 26 -727 61 -399 35 -727 61 -730 58 -12 -12 -6 -680 7 -784 106 -866 433 -1699 995 -2534 135 -201 379 -523 397 -525 3 -1 277 268 609 597 l603 597 -21 54 c-31 77 -96 310 -126 454 -149 700 -91 1345 165 1857 243 484 635 831 1240 1098 386 170 753 274 1160 329 189 25 697 25 885 0 296 -40 588 -114 839 -214 139 -55 324 -143 396 -188 l36 -23 795 750 c436 412 821 775 853 808 l59 58 -55 64 c-67 76 -311 302 -463 429 -630 524 -1364 923 -2079 1130 -284 82 -604 143 -886 168 -173 16 -487 21 -650 11z"/>
<path d="M6055 7204 c-528 -71 -1016 -318 -1415 -714 -315 -313 -521 -682 -607 -1090 -25 -114 -27 -145 -28 -350 0 -196 3 -239 23 -339 52 -258 161 -515 313 -739 46 -68 101 -151 122 -185 205 -339 162 -731 -126 -1132 -150 -209 -410 -461 -644 -625 -35 -24 -62 -45 -60 -46 1 -1 432 118 957 266 l955 268 3 341 2 340 38 11 c20 5 158 43 307 84 168 47 272 71 276 64 3 -5 57 -195 120 -421 103 -372 116 -412 139 -425 58 -32 2875 -1279 2877 -1273 3 8 -774 2631 -781 2638 -3 3 -307 79 -676 168 -369 90 -682 166 -695 169 l-25 6 0 340 0 340 23 -5 c12 -3 429 -95 927 -204 l905 -198 5 -311 5 -310 314 -401 c173 -221 316 -400 317 -398 4 4 -32 489 -51 697 -58 633 -138 1167 -224 1500 -70 275 -243 780 -385 1130 -56 135 -188 425 -199 437 -2 1 -133 -42 -291 -97 -158 -55 -291 -100 -296 -100 -4 0 -54 29 -111 65 -416 260 -933 447 -1389 500 -155 18 -488 18 -625 -1z m-93 -1284 c197 -61 349 -230 393 -435 41 -195 -17 -388 -159 -531 -115 -115 -250 -168 -421 -167 -258 1 -485 178 -550 429 -19 75 -19 224 0 299 56 214 232 380 448 421 89 17 205 10 289 -16z"/>
</g>
</svg>