<svg xmlns="http://www.w3.org/2000/svg" width="35" height="40" viewBox="0 0 1386 1160" version="1.1">
	<path d="M 27 579.462 L 27 1158.925 17.750 1159.255 L 8.500 1159.585 18.250 1159.792 L 28 1160 28 580 C 28 261, 27.775 0, 27.500 0 C 27.225 0, 27 260.758, 27 579.462 M 720.472 84.008 C 691.235 87.997, 668.412 104.480, 656.568 130.160 C 651.896 140.290, 650.062 147.770, 649.331 159.688 C 647.880 183.333, 655.258 203.791, 671.343 220.724 C 684.868 234.962, 701.375 243.172, 721.250 245.544 C 724.716 245.958, 727 246.713, 727 247.445 C 727 248.113, 725.451 254.310, 723.559 261.216 C 704.039 332.437, 655.808 384.395, 587.474 407.814 C 564.274 415.765, 545.823 418.989, 519.369 419.714 C 485.632 420.638, 459.267 416.680, 426.528 405.777 C 415.193 402.002, 392.551 392.632, 390.615 390.915 C 390.129 390.484, 391.815 387.748, 394.362 384.837 C 400.446 377.881, 405.588 367.931, 408.028 358.391 C 410.474 348.828, 410.673 333.015, 408.455 324.460 C 402.467 301.361, 385.748 283.430, 363.706 276.467 C 320.612 262.853, 277.496 292.617, 275.293 337.500 C 274.649 350.624, 276.583 359.722, 282.611 371.933 C 292.446 391.852, 311.190 404.955, 334.239 408.022 C 344.324 409.364, 355.922 408.084, 365.638 404.558 C 369.137 403.287, 372 402.635, 372 403.108 C 372 406.353, 366.329 429.752, 363.380 438.674 C 352.573 471.374, 336.218 497.860, 311.557 522.598 C 281.198 553.053, 247.565 571.560, 208.947 579.062 C 196.060 581.566, 176.606 582.790, 175.599 581.160 C 175.204 580.521, 176.861 577.985, 179.416 575.319 C 188.664 565.668, 193.427 552.894, 193.331 538 C 193.229 522.214, 187.608 509.407, 176.108 498.761 C 166.086 489.482, 153.800 484.822, 139.446 484.855 C 123.710 484.890, 112.222 489.588, 101.417 500.408 C 89.003 512.838, 83.651 528.220, 85.786 545.332 C 89.760 577.178, 119.116 598.021, 150.918 591.577 C 155.488 590.651, 159.332 590.030, 159.460 590.197 C 159.589 590.363, 162.727 603.775, 166.433 620 C 170.139 636.225, 186.416 703.981, 202.603 770.569 L 232.035 891.638 231.982 969.357 C 231.953 1012.102, 232.202 1047.517, 232.535 1048.057 C 235.026 1052.087, 255.975 1058.360, 280.500 1062.418 C 357.205 1075.112, 491.754 1081.429, 711.500 1082.656 C 890.031 1083.653, 1012.579 1080.188, 1108 1071.446 C 1169.957 1065.770, 1216.840 1056.647, 1230.157 1047.673 L 1233.500 1045.421 1234 981.961 L 1234.500 918.500 1268.468 751.675 L 1302.435 584.850 1304.968 585.508 C 1306.360 585.870, 1312.511 586.400, 1318.635 586.687 C 1327.325 587.094, 1331.059 586.837, 1335.635 585.516 C 1350.311 581.279, 1363.264 570.609, 1369.382 557.715 C 1383.848 527.232, 1369.621 492.620, 1338.190 481.826 C 1328.704 478.568, 1313.296 478.568, 1303.810 481.826 C 1268.455 493.967, 1255.400 537.207, 1278.176 566.728 C 1280.434 569.655, 1282.106 572.189, 1281.891 572.357 C 1277.422 575.854, 1265.474 581.808, 1261.983 582.277 C 1255.852 583.100, 1243.134 581.414, 1233.500 578.500 C 1199.264 568.144, 1158.104 533.868, 1130.826 493 C 1114.150 468.016, 1100.655 433.254, 1097.141 406.234 C 1096.428 400.745, 1096.523 400.031, 1097.913 400.468 C 1107.672 403.534, 1123.650 403.775, 1134.432 401.017 C 1154.380 395.916, 1169.725 383.541, 1178.509 365.472 C 1187.842 346.276, 1187.356 321.782, 1177.264 302.659 C 1172.800 294.201, 1161.213 282.128, 1152.809 277.179 C 1134.167 266.202, 1108.383 264.911, 1089.181 273.992 C 1071.738 282.241, 1059.307 296.265, 1053.294 314.479 C 1051.025 321.351, 1050.636 324.290, 1050.573 335 C 1050.512 345.442, 1050.885 348.735, 1052.841 355 C 1056.456 366.583, 1060.739 373.704, 1069.567 382.814 L 1077.635 391.137 1075.067 392.458 C 1066.004 397.121, 1042.456 403.724, 1024.500 406.637 C 1009.670 409.043, 978.117 409.068, 961.942 406.686 C 920.608 400.599, 879.712 384.103, 841 357.900 C 818.862 342.915, 797.859 324.130, 781.298 304.500 C 770.860 292.129, 755.014 268.561, 748.152 255.201 L 742.994 245.160 746.247 244.510 C 771.119 239.540, 791.382 224.064, 802.561 201.500 C 808.716 189.075, 811.074 179.162, 811.122 165.500 C 811.203 142.487, 804.564 125.195, 789.500 109.180 C 778.370 97.347, 766.001 89.946, 751 86.145 C 741.860 83.829, 728.590 82.900, 720.472 84.008 M 709.086 475.908 L 689.938 513.982 683.948 551.241 C 680.654 571.734, 677.856 589.225, 677.730 590.110 C 677.517 591.604, 727.153 639.067, 728.809 638.952 C 729.189 638.926, 740.416 628.238, 753.759 615.202 L 778.018 591.500 772.911 553.500 L 767.804 515.500 748.783 477.500 C 738.321 456.600, 729.417 439.125, 728.997 438.667 C 728.577 438.208, 719.617 454.967, 709.086 475.908 M 535.003 514.167 C 535.004 514.350, 539.173 532.956, 544.267 555.513 L 553.528 596.527 572.876 629.263 L 592.223 662 596.361 662.022 C 598.638 662.034, 609.725 662.460, 621 662.968 C 632.275 663.476, 645.994 664.007, 651.487 664.148 L 661.475 664.404 665.184 632.452 C 667.224 614.878, 668.917 599.730, 668.946 598.789 C 668.978 597.780, 657.484 586.674, 640.936 571.724 L 612.871 546.369 574.805 530.435 C 531.310 512.227, 534.999 513.735, 535.003 514.167 M 887 531.991 L 849.500 547.780 820.750 572.404 C 795.911 593.677, 792.005 597.399, 792.039 599.763 C 792.105 604.382, 800.568 664.901, 801.243 665.576 C 801.816 666.150, 846.018 663.854, 862.137 662.413 L 868.773 661.820 888.243 630.660 C 898.951 613.522, 908.002 598.980, 908.356 598.345 C 908.979 597.230, 927 518.400, 927 516.793 C 927 516.357, 926.438 516.045, 925.750 516.101 C 925.063 516.157, 907.625 523.307, 887 531.991 M 465.213 683.795 C 427.096 695.692, 425.022 696.461, 426.713 698.067 C 427.696 699.001, 442.746 710.593, 460.159 723.827 L 491.817 747.888 527.481 760.458 C 547.096 767.372, 563.675 772.711, 564.322 772.323 C 566.780 770.851, 616.956 731.881, 617.474 731.041 C 617.774 730.557, 609.693 717.525, 599.518 702.080 C 581.611 674.902, 580.913 674, 577.780 674 C 573.686 674, 524.167 672.173, 513.500 671.628 C 505.588 671.224, 505.059 671.357, 465.213 683.795 M 891.057 679.964 L 873.613 680.500 855.333 709.476 C 845.278 725.413, 837.378 738.747, 837.776 739.107 C 838.174 739.467, 850.444 748.562, 865.043 759.318 L 891.585 778.874 927.543 767.289 L 963.500 755.705 997.142 730.102 C 1015.645 716.021, 1030.704 704.410, 1030.607 704.299 C 1030.510 704.188, 1012.272 698.451, 990.078 691.549 L 949.724 679 929.112 679.214 C 917.775 679.332, 900.651 679.669, 891.057 679.964 M 532.716 809.583 L 502.932 832.791 480.025 868.396 C 458.399 902.010, 457.269 903.999, 459.809 903.991 C 461.289 903.986, 480.340 903.102, 502.144 902.027 L 541.788 900.071 577.144 886.867 C 596.590 879.605, 612.592 873.609, 612.705 873.543 C 613.104 873.310, 627 808.681, 627 807.055 C 627 805.776, 622.983 804.218, 609.250 800.172 C 599.487 797.295, 584.975 793.014, 577 790.658 L 562.500 786.375 532.716 809.583 M 849.134 802.580 C 831.337 808.251, 816.551 813.115, 816.277 813.390 C 815.832 813.835, 830.786 878.020, 831.522 878.827 C 831.686 879.007, 847.273 885.463, 866.160 893.174 L 900.500 907.195 938.500 909.120 C 959.400 910.178, 978.422 910.922, 980.770 910.772 L 985.040 910.500 962.523 875.500 L 940.006 840.500 918.132 822.500 C 906.102 812.600, 892.936 801.748, 888.876 798.385 L 881.493 792.269 849.134 802.580 M 647 874.386 L 616.500 887.662 608.545 924.581 L 600.590 961.500 605.428 1000 C 611.215 1046.050, 611.083 1045.149, 612.019 1044.788 C 612.429 1044.629, 626.466 1031.827, 643.213 1016.338 L 673.663 988.175 692.297 955.120 L 710.932 922.064 695.027 891.802 C 686.280 875.159, 678.758 861.444, 678.311 861.326 C 677.865 861.207, 663.775 867.084, 647 874.386 M 742.742 891.504 C 734.634 907.732, 728.022 921.569, 728.048 922.254 C 728.074 922.939, 736.062 938.402, 745.798 956.616 L 763.500 989.732 793.981 1017.835 C 810.746 1033.291, 824.733 1045.614, 825.063 1045.219 C 825.393 1044.823, 827.982 1025.825, 830.816 1003 L 835.969 961.500 829.091 925.157 C 825.308 905.168, 821.828 888.435, 821.357 887.974 C 820.402 887.038, 759.635 862, 758.318 862 C 757.859 862, 750.850 875.277, 742.742 891.504 M 1.762 1159.707 C 3.006 1159.946, 4.806 1159.937, 5.762 1159.687 C 6.718 1159.437, 5.700 1159.241, 3.500 1159.252 C 1.300 1159.263, 0.518 1159.468, 1.762 1159.707 " stroke="none" fill="black" fill-rule="evenodd"/>
</svg>