<svg xmlns="http://www.w3.org/2000/svg" width="35" height="40" viewBox="0 0 1174 1166" version="1.1">
	<path d="M 27 582.462 L 27 1164.925 17.750 1165.255 L 8.500 1165.585 18.250 1165.792 L 28 1166 28 583 C 28 262.350, 27.775 0, 27.500 0 C 27.225 0, 27 262.108, 27 582.462 M 640.038 94.049 C 610.793 95.867, 578.840 101.035, 550 108.610 C 535.561 112.402, 505.711 122.064, 501.159 124.418 L 498.403 125.843 507.135 205.654 C 511.938 249.551, 515.785 285.528, 515.684 285.604 C 515.583 285.681, 495.542 257.218, 471.148 222.353 L 426.797 158.963 423.648 160.837 C 421.917 161.868, 415.325 165.784, 409 169.539 C 386.473 182.913, 359.008 201.964, 336.500 219.832 C 275.482 268.268, 230.591 321.067, 202.021 378 C 191.136 399.692, 181.025 424.749, 182.709 425.861 C 187.382 428.947, 309.991 519.340, 309.779 519.543 C 309.625 519.690, 276.899 516.942, 237.054 513.435 C 197.209 509.928, 164.359 507.308, 164.054 507.612 C 162.885 508.780, 163.510 575.580, 164.787 586 C 175.394 672.551, 208.148 755.937, 264.328 839.414 C 277.841 859.492, 302.179 891.707, 304 891.926 C 304.275 891.959, 331.663 865.101, 364.862 832.243 L 425.224 772.500 423.059 767.080 C 419.976 759.357, 413.509 736.053, 410.473 721.722 C 395.631 651.661, 401.376 587.167, 427.017 536 C 451.290 487.561, 490.451 452.873, 551 426.178 C 589.592 409.164, 626.312 398.759, 667 393.308 C 685.872 390.780, 736.654 390.782, 755.500 393.312 C 785.119 397.287, 814.266 404.702, 839.397 414.655 C 853.295 420.159, 871.845 428.983, 878.965 433.478 L 882.609 435.778 962.054 360.837 C 1005.749 319.620, 1044.158 283.257, 1047.407 280.031 L 1053.314 274.166 1047.754 267.833 C 1041.050 260.197, 1016.659 237.584, 1001.500 224.950 C 938.534 172.472, 865.126 132.553, 793.561 111.873 C 765.159 103.665, 733.165 97.600, 705 95.085 C 687.675 93.538, 656.299 93.037, 640.038 94.049 M 633.500 445.564 C 580.731 452.731, 531.917 477.376, 492.024 516.992 C 460.496 548.301, 439.934 585.178, 431.256 625.979 C 428.832 637.371, 428.588 640.529, 428.549 661 C 428.512 680.641, 428.800 684.949, 430.812 694.900 C 436.021 720.654, 446.941 746.406, 462.149 768.795 C 466.742 775.558, 472.191 783.883, 474.257 787.295 C 494.816 821.248, 490.474 860.424, 461.712 900.500 C 446.692 921.428, 420.708 946.634, 397.268 963.014 C 393.840 965.409, 391.144 967.478, 391.278 967.611 C 391.411 967.744, 434.490 955.787, 487.010 941.039 L 582.500 914.225 582.763 880.148 L 583.026 846.070 586.763 845.047 C 588.818 844.484, 602.644 840.676, 617.487 836.585 C 634.309 831.949, 644.709 829.529, 645.099 830.160 C 645.443 830.716, 650.836 849.661, 657.084 872.260 C 667.367 909.452, 668.684 913.482, 670.972 914.762 C 676.832 918.042, 958.520 1042.742, 958.730 1042.150 C 959.018 1041.334, 881.343 779.009, 880.590 778.256 C 880.286 777.953, 849.863 770.391, 812.984 761.452 C 776.104 752.513, 744.821 744.921, 743.465 744.581 L 741 743.962 741 709.962 L 741 675.962 743.250 676.519 C 744.487 676.825, 786.225 685.985, 836 696.875 L 926.500 716.674 927 747.761 L 927.500 778.849 958.922 818.919 C 976.205 840.957, 990.471 858.862, 990.625 858.709 C 990.997 858.336, 987.437 809.787, 985.513 789 C 979.657 725.744, 971.681 672.289, 963.126 638.968 C 956.074 611.503, 938.835 561.033, 924.554 526.042 C 919.034 512.518, 905.831 483.497, 904.668 482.335 C 904.501 482.168, 891.422 486.524, 875.605 492.015 C 859.787 497.507, 846.484 502, 846.042 502 C 845.600 502, 840.573 499.074, 834.870 495.499 C 793.336 469.459, 741.596 450.817, 696.006 445.466 C 680.533 443.650, 647.207 443.703, 633.500 445.564 M 595.332 572.419 C 573.718 576.527, 556.129 593.051, 550.543 614.495 C 548.577 622.044, 548.559 636.888, 550.508 644.369 C 557.047 669.474, 579.674 687.152, 605.496 687.329 C 622.644 687.447, 636.115 682.093, 647.588 670.600 C 661.818 656.345, 667.613 637.002, 663.489 617.529 C 656.888 586.370, 626.779 566.442, 595.332 572.419 M 1.762 1165.707 C 3.006 1165.946, 4.806 1165.937, 5.762 1165.687 C 6.718 1165.437, 5.700 1165.241, 3.500 1165.252 C 1.300 1165.263, 0.518 1165.468, 1.762 1165.707 " stroke="none" fill="black" fill-rule="evenodd"/>
</svg>