<svg xmlns="http://www.w3.org/2000/svg" width="35" height="40" viewBox="0 0 976 910" version="1.1">
	<path d="M 528.216 123.106 C 526.660 126.623, 497.737 193.944, 463.943 272.709 C 419.449 376.415, 402.224 415.558, 401.500 414.610 C 400.950 413.890, 389.035 391.827, 375.022 365.581 C 350.248 319.180, 349.509 317.939, 348.277 320.681 C 347.579 322.231, 338.758 344.350, 328.674 369.834 C 311.114 414.210, 310.275 416.069, 308.817 413.834 C 307.979 412.550, 287.356 379.100, 262.987 339.500 C 238.618 299.900, 217.827 266.150, 216.783 264.500 C 214.915 261.548, 214.895 263.583, 215.512 392 L 216.139 522.500 231.085 628 C 239.305 686.025, 246.256 734.505, 246.530 735.733 L 247.029 737.965 528.765 737.344 C 683.719 737.003, 810.571 736.673, 810.658 736.612 C 810.745 736.550, 814.708 707.025, 819.464 671 C 824.220 634.975, 830.561 586.968, 833.555 564.319 L 839 523.137 839 392.369 C 839 311.664, 838.644 261.964, 838.069 262.550 C 837.557 263.072, 818.885 297.474, 796.575 338.998 C 774.265 380.522, 755.671 414.603, 755.255 414.734 C 754.840 414.864, 747.355 393.715, 738.623 367.736 C 729.890 341.756, 722.465 319.969, 722.122 319.320 C 721.779 318.671, 708.899 340.120, 693.499 366.984 C 678.100 393.849, 665.203 415.530, 664.841 415.164 C 664.478 414.799, 638.214 356.225, 606.477 285 C 533.871 122.057, 531.871 117.583, 531.419 117.106 C 531.214 116.889, 529.772 119.589, 528.216 123.106 M 500.395 415.784 L 471.290 477.500 460.645 547.554 C 454.790 586.083, 450 618.486, 450 619.559 C 450 620.794, 464.604 636.110, 489.816 661.316 L 529.632 701.122 560.508 669.311 C 577.490 651.815, 594.921 633.868, 599.242 629.429 L 607.100 621.357 598.025 549.429 L 588.950 477.500 559.792 415.750 C 543.755 381.788, 530.379 354.016, 530.067 354.034 C 529.755 354.053, 516.403 381.841, 500.395 415.784 M 240.657 397.250 C 239.734 408.938, 238.983 420.555, 238.989 423.066 C 238.995 425.577, 241.683 446.502, 244.961 469.566 L 250.923 511.500 265.598 525.750 C 273.669 533.587, 280.578 540, 280.950 540 C 281.762 540, 296.001 503.063, 295.998 500.965 C 295.996 500.159, 289.687 481.066, 281.978 458.535 L 267.961 417.571 255.731 396.802 C 249.004 385.379, 243.238 376.026, 242.919 376.017 C 242.599 376.007, 241.581 385.563, 240.657 397.250 M 800.080 396.731 L 787.799 417.500 773.557 459.500 L 759.314 501.500 766.808 520.750 C 770.930 531.337, 774.572 539.987, 774.901 539.972 C 775.231 539.956, 782.132 533.544, 790.238 525.722 L 804.976 511.500 811.104 468.500 L 817.233 425.500 815.486 401.500 C 814.525 388.300, 813.429 377.154, 813.050 376.731 C 812.671 376.308, 806.835 385.308, 800.080 396.731 M 369.482 516.250 C 369.231 516.938, 365.897 526.568, 362.073 537.651 L 355.119 557.803 355.716 584.845 C 356.043 599.718, 356.579 612.281, 356.906 612.764 C 357.344 613.412, 386.680 631.305, 391.116 633.629 C 391.961 634.072, 418 603.050, 418 601.601 C 418 600.962, 413.816 589.096, 408.703 575.232 L 399.406 550.024 385.095 532.512 C 377.224 522.880, 370.594 515, 370.361 515 C 370.128 515, 369.732 515.563, 369.482 516.250 M 670.853 532.456 L 656.500 550.039 646.875 576.033 L 637.251 602.028 650.773 618.032 C 663.530 633.130, 664.414 633.960, 666.398 632.695 C 667.554 631.958, 674.800 627.611, 682.500 623.037 C 690.200 618.462, 697.122 614.144, 697.881 613.442 C 698.959 612.447, 699.408 606.148, 699.922 584.833 L 700.582 557.500 693.267 536.559 C 689.243 525.041, 685.783 515.450, 685.579 515.245 C 685.374 515.041, 678.747 522.785, 670.853 532.456 M 1.762 909.707 C 3.006 909.946, 4.806 909.937, 5.762 909.687 C 6.718 909.437, 5.700 909.241, 3.500 909.252 C 1.300 909.263, 0.518 909.468, 1.762 909.707 M 13.784 909.738 C 16.689 909.941, 21.189 909.939, 23.784 909.734 C 26.378 909.528, 24 909.363, 18.500 909.365 C 13 909.368, 10.878 909.536, 13.784 909.738 " stroke="none" fill="black" fill-rule="evenodd"/>
</svg>