<svg xmlns="http://www.w3.org/2000/svg" version="1.0" width="35" height="40" viewBox="0 0 1298.000000 1292.000000" preserveAspectRatio="xMidYMid meet">

<g transform="translate(0.000000,1292.000000) scale(0.100000,-0.100000)" fill="#000000" stroke="none">
<path d="M6770 11774 c-30 -2 -136 -8 -235 -14 -562 -34 -1210 -111 -1730 -206 -990 -182 -1768 -462 -2310 -832 -372 -254 -638 -562 -764 -887 -95 -243 -100 -293 -91 -960 7 -527 8 -553 29 -630 48 -172 137 -349 259 -515 65 -88 250 -280 340 -353 l62 -51 -2 -209 -3 -209 -80 -28 c-108 -37 -190 -79 -314 -164 -227 -154 -336 -314 -356 -522 -8 -86 12 -189 56 -285 28 -60 34 -67 50 -58 18 9 19 -2 19 -369 0 -490 12 -566 131 -805 92 -186 201 -330 383 -504 l116 -112 0 -528 c0 -488 2 -534 20 -609 126 -529 626 -1025 1354 -1343 556 -244 1284 -409 2111 -480 623 -54 1316 -60 1849 -16 1292 107 2491 474 3169 970 101 74 318 283 404 390 135 167 271 395 332 555 21 54 21 67 21 927 l0 872 -88 158 c-172 307 -244 410 -355 504 -40 34 -76 65 -81 70 -5 5 23 44 65 91 209 232 338 428 425 643 l34 85 0 873 0 873 -98 174 c-54 96 -125 216 -157 265 -60 94 -176 220 -257 283 l-48 36 0 645 0 644 -41 76 c-75 137 -181 315 -236 396 l-55 79 28 22 27 22 -31 39 c-50 63 -175 178 -275 252 -465 345 -1169 585 -2027 690 -371 46 -506 53 -1060 56 -294 1 -560 1 -590 -1z m950 -184 c1015 -46 1823 -237 2400 -568 91 -52 247 -162 303 -214 52 -48 64 -67 127 -208 77 -174 149 -382 176 -510 26 -121 24 -281 -4 -390 -75 -287 -429 -778 -677 -940 -433 -282 -1506 -575 -2781 -759 -544 -79 -922 -110 -1239 -104 -1293 26 -2747 295 -3355 620 -215 115 -561 364 -730 526 -113 109 -113 107 -118 255 -29 839 828 1540 2363 1930 1025 261 2476 410 3535 362z m2880 -3019 c0 -85 -2 -93 -44 -177 -152 -303 -417 -582 -738 -775 -214 -129 -582 -290 -908 -397 -1039 -341 -2226 -463 -3540 -366 -1548 114 -2632 514 -3100 1144 -83 112 -192 335 -173 354 3 3 44 -21 92 -53 216 -144 404 -241 642 -329 628 -234 1590 -410 2659 -488 330 -24 895 -25 1125 -1 1325 136 2663 431 3337 736 250 113 409 216 548 356 46 47 88 85 92 85 5 0 8 -40 8 -89z m512 -146 c95 -147 165 -315 189 -452 16 -89 6 -249 -21 -343 -46 -163 -167 -376 -327 -575 -201 -252 -291 -329 -512 -439 -538 -270 -1663 -545 -2844 -696 -595 -76 -936 -84 -1377 -34 -633 71 -1310 253 -2040 546 -291 117 -674 290 -664 300 3 3 42 -5 87 -19 959 -281 2364 -393 3572 -282 1254 114 2461 493 3102 973 259 193 521 504 661 782 76 150 92 201 92 282 l0 75 19 -24 c10 -13 39 -55 63 -94z m-7662 -2150 c1015 -470 1915 -737 2795 -830 211 -23 625 -30 826 -16 736 53 1826 240 2548 436 771 210 1213 413 1463 673 37 38 70 67 73 64 3 -3 5 -41 5 -84 0 -73 -3 -84 -46 -171 -26 -50 -67 -123 -91 -162 -104 -162 -294 -367 -445 -480 -472 -353 -1372 -670 -2313 -814 -445 -69 -743 -92 -1258 -98 -1021 -13 -1862 82 -2587 290 -857 247 -1435 659 -1622 1158 -29 77 -32 96 -36 232 l-4 148 263 -135 c145 -74 338 -169 429 -211z m-1117 73 c12 -217 147 -510 336 -735 34 -40 59 -73 56 -73 -11 0 -293 145 -433 222 -273 150 -404 230 -394 240 6 6 34 27 63 47 l52 38 1 60 c1 71 25 108 114 176 70 53 172 117 188 117 7 0 13 -33 17 -92z m283 -1244 c1097 -531 2090 -834 3047 -931 211 -21 709 -24 902 -5 817 80 1598 215 2415 417 604 150 1071 316 1448 516 61 33 112 57 112 53 0 -17 -98 -192 -153 -272 -250 -366 -593 -610 -1187 -846 -653 -258 -1388 -416 -2275 -488 -248 -20 -1177 -17 -1469 5 -705 53 -1218 139 -1706 284 -770 229 -1318 600 -1530 1037 -67 137 -80 194 -80 347 l0 127 143 -76 c78 -41 228 -117 333 -168z m8433 117 c120 -162 214 -358 245 -513 38 -186 5 -380 -100 -589 -83 -166 -326 -486 -467 -615 -258 -237 -945 -479 -1937 -683 -564 -116 -1256 -217 -1720 -252 -214 -16 -627 -6 -849 20 -821 98 -1661 353 -2606 792 -96 45 -175 85 -175 90 0 4 33 -3 72 -17 40 -13 145 -44 233 -69 581 -161 1242 -252 2065 -285 1049 -42 2040 67 2941 325 654 187 1235 461 1564 737 272 228 512 544 629 830 34 82 36 94 36 197 0 61 2 111 5 111 3 0 32 -36 64 -79z m-8195 -1945 c141 -77 534 -271 708 -350 999 -452 1914 -711 2788 -788 211 -18 657 -16 870 5 1210 119 2522 403 3222 697 302 128 540 279 658 420 23 27 46 50 51 50 5 0 9 -37 9 -83 0 -78 -3 -89 -44 -173 -92 -190 -262 -409 -431 -557 -542 -475 -1715 -856 -2990 -972 -857 -77 -1946 -24 -2755 136 -1139 224 -1913 685 -2138 1272 -34 87 -36 100 -40 240 -2 81 -1 147 3 147 5 0 44 -20 89 -44z"/>
<path d="M6235 11134 c-27 -2 -117 -9 -200 -14 -559 -40 -1115 -135 -1665 -286 -906 -248 -1370 -551 -1370 -893 0 -155 104 -330 293 -491 150 -129 418 -296 643 -400 l92 -42 433 158 c239 86 436 158 438 160 2 2 -17 29 -42 61 -92 117 -129 240 -103 343 19 75 49 121 117 186 175 164 514 276 1089 358 730 105 1516 98 2156 -20 l131 -24 590 205 c325 112 603 209 619 216 28 11 26 12 -76 50 -530 197 -1263 348 -2005 415 -169 15 -1002 28 -1140 18z m1145 -268 c253 -24 477 -52 710 -92 222 -38 570 -111 583 -123 4 -5 -94 -43 -218 -86 l-226 -77 -157 26 c-734 120 -1547 111 -2346 -25 -718 -123 -1104 -336 -1206 -668 -25 -78 -27 -221 -5 -305 9 -33 14 -60 13 -61 -2 -1 -113 -42 -247 -90 l-244 -89 -101 52 c-410 209 -686 456 -686 614 0 200 464 456 1180 651 586 161 1105 246 1770 291 30 2 269 2 530 1 342 -2 524 -7 650 -19z"/>
<path d="M6245 10134 c-282 -32 -608 -118 -806 -212 -171 -82 -299 -185 -350 -283 -32 -60 -33 -166 -2 -224 36 -69 101 -133 203 -200 123 -81 160 -122 160 -176 0 -54 -19 -87 -81 -143 -62 -56 -247 -150 -404 -206 -72 -25 -100 -39 -80 -39 17 0 291 33 610 72 l580 72 3 98 c3 91 4 97 25 101 40 9 398 48 401 45 1 -2 36 -57 77 -122 41 -64 81 -119 89 -122 39 -12 1884 -366 1895 -363 6 2 -100 167 -237 368 -137 201 -252 370 -256 377 -4 7 -166 28 -442 58 -239 25 -445 48 -457 51 -22 4 -23 9 -23 99 0 84 2 95 18 95 29 0 1186 -111 1200 -115 8 -3 12 -31 12 -92 l1 -88 200 -113 c111 -62 204 -110 207 -107 8 8 -42 252 -73 359 -39 135 -82 230 -146 325 -71 106 -239 303 -304 355 l-47 39 -177 -26 c-97 -15 -187 -27 -201 -27 -14 0 -86 15 -160 34 -158 40 -374 80 -550 102 -181 23 -713 28 -885 8z m600 -234 c294 -19 667 -80 881 -145 l82 -25 164 25 163 25 69 -72 c56 -59 65 -74 50 -76 -18 -3 -1230 111 -1317 123 l-37 5 2 -347 3 -348 55 -7 c30 -3 251 -27 490 -53 239 -25 445 -48 456 -50 13 -3 42 -36 73 -83 28 -43 51 -80 51 -83 0 -6 -1204 226 -1218 235 -5 3 -49 68 -98 146 -61 96 -93 139 -104 136 -8 -3 -184 -23 -390 -47 -206 -23 -377 -44 -378 -45 -2 -1 -4 -46 -4 -98 -1 -108 7 -98 -89 -111 l-46 -6 -5 68 c-9 130 -82 228 -255 344 -118 80 -139 103 -119 134 41 63 231 167 419 229 328 108 705 151 1102 126z"/>
<path d="M6101 9724 c-140 -37 -202 -133 -152 -232 80 -158 487 -164 581 -9 12 20 20 50 20 79 0 77 -61 134 -175 164 -65 18 -205 17 -274 -2z"/>
</g>
</svg>