<svg xmlns="http://www.w3.org/2000/svg" version="1.0" width="35" height="40" viewBox="0 0 1174.000000 1158.000000" preserveAspectRatio="xMidYMid meet">

<g transform="translate(0.000000,1158.000000) scale(0.100000,-0.100000)" fill="#000000" stroke="none">
<path d="M6050 10924 c-736 -21 -1531 -107 -2215 -240 -1640 -320 -2628 -954 -2811 -1804 -17 -77 -18 -133 -15 -625 2 -493 4 -547 22 -623 56 -245 211 -494 447 -723 66 -65 131 -125 146 -134 l26 -17 0 -258 0 -257 -72 -28 c-40 -15 -109 -49 -153 -76 -183 -110 -290 -217 -335 -336 -23 -58 -23 -59 -21 -632 2 -518 4 -581 21 -645 64 -253 206 -481 439 -709 l121 -119 0 -492 c0 -462 1 -498 20 -572 100 -389 407 -764 852 -1040 596 -369 1447 -597 2528 -679 1023 -76 1947 -16 2814 185 750 174 1430 463 1806 767 267 217 523 555 626 831 l24 62 0 814 0 814 -69 124 c-162 293 -220 377 -339 489 l-89 84 74 80 c155 166 293 373 375 560 l48 110 0 819 0 819 -67 121 c-97 176 -208 353 -260 413 -24 29 -78 80 -119 114 l-74 62 0 601 0 602 -96 170 c-53 93 -125 210 -159 261 l-62 91 26 19 25 20 -32 40 c-88 112 -298 277 -494 387 -525 298 -1277 485 -2153 535 -195 12 -636 20 -805 15z m700 -184 c1007 -52 1784 -256 2310 -605 183 -121 206 -146 272 -295 77 -173 125 -305 161 -440 40 -153 43 -313 9 -434 -58 -202 -193 -420 -423 -681 -89 -101 -138 -143 -239 -207 -355 -225 -1194 -465 -2226 -637 -945 -157 -1396 -181 -2174 -116 -959 81 -1832 261 -2335 481 -248 109 -609 357 -832 570 -78 75 -82 81 -89 134 -52 399 144 810 549 1147 182 152 496 336 777 456 817 348 1977 564 3385 630 159 8 681 6 855 -3z m3160 -3028 c174 -303 188 -549 49 -842 -114 -239 -383 -575 -548 -684 -392 -259 -1352 -528 -2501 -700 -560 -84 -880 -111 -1215 -103 -810 19 -1725 260 -2738 719 -97 45 -177 84 -177 88 0 5 28 -1 62 -12 89 -27 350 -92 497 -123 778 -163 1889 -223 2766 -149 1215 102 2371 458 2989 921 161 121 353 321 477 498 48 69 142 230 165 283 53 122 64 159 64 215 l0 60 30 -42 c17 -22 53 -80 80 -129z m-8258 -1809 c4 -123 10 -163 32 -238 51 -168 143 -339 263 -487 34 -43 59 -79 55 -82 -13 -8 -711 371 -747 405 -5 6 -5 13 2 20 8 8 7 20 -3 45 -18 44 -18 135 1 180 23 57 73 112 152 171 74 54 209 133 229 133 8 0 13 -46 16 -147z m8201 -1180 c106 -159 177 -331 197 -480 37 -275 -114 -597 -463 -985 -89 -100 -173 -163 -317 -237 -276 -143 -665 -272 -1205 -400 -654 -155 -1504 -287 -2062 -322 -669 -41 -1568 131 -2448 469 -298 114 -853 357 -841 369 2 2 63 -14 135 -36 959 -295 2433 -392 3631 -240 735 93 1445 284 1999 539 328 150 565 305 765 499 216 211 377 440 476 680 27 66 30 85 30 178 l0 105 24 -29 c13 -15 48 -65 79 -110z"/>
<path d="M5340 10319 c-1053 -46 -2230 -334 -2748 -672 -114 -74 -234 -198 -274 -283 -43 -92 -50 -193 -19 -286 59 -177 254 -371 556 -553 119 -71 364 -195 386 -195 14 0 809 287 817 295 3 2 -14 27 -37 56 -211 265 -104 503 296 659 248 97 677 177 1193 222 191 17 821 17 1010 0 204 -18 363 -38 527 -68 l142 -25 567 196 c312 108 574 200 582 204 17 10 27 6 -182 77 -823 280 -1846 416 -2816 373z"/>
<path d="M5420 9394 c-19 -2 -78 -9 -130 -15 -294 -33 -635 -134 -822 -244 -43 -25 -108 -73 -144 -108 -81 -75 -114 -138 -114 -217 1 -109 59 -187 226 -300 61 -42 110 -83 119 -100 20 -40 19 -89 -4 -127 -47 -76 -235 -183 -454 -259 -59 -20 -106 -38 -105 -39 2 -2 1165 141 1176 144 1 1 2 42 2 91 0 50 1 90 3 90 1 1 88 11 192 24 135 16 192 20 197 12 79 -128 136 -211 148 -217 19 -11 1782 -350 1788 -345 5 6 -477 716 -486 716 -4 0 -193 20 -421 45 -228 25 -416 45 -418 45 -2 0 -3 41 -3 91 l0 91 48 -6 c26 -3 261 -26 522 -51 261 -25 496 -48 523 -51 l47 -6 0 -81 0 -82 191 -108 c105 -60 194 -106 196 -103 8 8 -24 176 -57 302 -51 193 -103 296 -226 450 -81 99 -161 187 -207 226 l-44 36 -184 -28 c-101 -15 -187 -26 -190 -24 -14 8 -249 64 -354 84 -246 47 -399 61 -695 65 -157 2 -301 1 -320 -1z m76 -419 c142 -73 141 -201 -3 -272 -54 -26 -67 -28 -178 -28 -104 0 -127 3 -170 23 -170 78 -156 229 27 294 42 14 75 18 159 16 95 -3 112 -6 165 -33z"/>
</g>
</svg>