<svg xmlns="http://www.w3.org/2000/svg" width="35" height="40" viewBox="0 0 1638 1090" version="1.1">
	<path d="M 27 544.462 L 27 1088.925 17.750 1089.255 L 8.500 1089.585 18.250 1089.792 L 28 1090 28 545 C 28 245.250, 27.775 0, 27.500 0 C 27.225 0, 27 245.008, 27 544.462 M 847.733 66.250 C 847.462 68.037, 847.163 108.815, 847.070 156.866 L 846.901 244.233 797.111 356.866 L 747.322 469.500 766.664 469.771 L 786.005 470.042 785.752 668.271 L 785.500 866.500 774.779 866.784 L 764.059 867.067 763.779 853.784 L 763.500 840.500 745.500 840.500 L 727.500 840.500 727.221 853.750 L 726.942 867 719 867 L 711.058 867 710.779 853.750 L 710.500 840.500 689.719 840.230 L 668.937 839.959 669.386 837.230 C 669.633 835.728, 669.873 776.347, 669.918 705.271 L 670 576.041 689.988 575.771 L 709.976 575.500 687.833 541.500 C 675.654 522.800, 652.147 486.800, 635.595 461.500 L 605.500 415.500 605.536 401 C 605.555 393.025, 605.668 379.416, 605.786 370.759 L 606 355.018 659.011 354.759 L 712.022 354.500 659.011 308.141 L 606 261.782 606 247.891 L 606 234 599.054 234 L 592.108 234 591.788 247.750 C 591.611 255.313, 591.343 295.006, 591.191 335.958 L 590.916 410.417 541.458 492.646 C 514.256 537.871, 492 575.128, 492 575.437 C 492 575.747, 500.552 576, 511.003 576 L 530.007 576 529.753 721.236 C 529.515 857.696, 529.396 866.493, 527.779 866.804 C 526.233 867.102, 526.031 865.791, 525.779 853.818 L 525.500 840.500 505.750 840.229 L 486 839.958 486 853.516 L 486 867.075 476.750 866.788 L 467.500 866.500 467.221 853.250 L 466.942 840 449.500 840 L 432.058 840 431.779 853.250 L 431.500 866.500 423.750 866.792 L 416 867.084 415.981 863.792 C 415.919 853.192, 418.412 801.364, 419.017 800.679 C 419.416 800.227, 430.938 795.658, 444.621 790.524 L 469.500 781.191 469.760 733.096 L 470.019 685 431.510 685 L 393 685 393 701 L 393 717 351 717 L 309 717 309 701 L 309 685 290 685 L 271 685 271 648.008 L 271 611.016 327.986 610.758 L 384.971 610.500 328.486 561.120 L 272 511.740 272 497.370 L 272 483 264.500 483 L 257 483 257 584 L 257 685 246.500 685 L 236 685 236 701 L 236 717 197 717 L 158 717 158 701 L 158 685 122.490 685 L 86.980 685 87.240 731.144 L 87.500 777.288 117.750 788.799 L 148 800.311 148 911.655 L 148 1023 197.449 1023 L 246.897 1023 247.199 990.750 L 247.500 958.500 250.216 953.351 C 255.092 944.105, 264.020 939, 275.315 939 C 286.092 939, 294.733 944.524, 299.111 954.212 C 301.443 959.375, 301.507 960.253, 301.813 991.250 L 302.127 1023 546.500 1023 L 790.873 1023 791.224 984.250 C 791.563 946.945, 791.662 945.239, 793.887 938.500 C 802.995 910.908, 820.798 897.758, 849 897.792 C 868.726 897.815, 882.936 906.145, 891.882 922.930 C 900.421 938.951, 901.986 949.526, 901.994 991.250 L 902 1023 1142.921 1023 L 1383.841 1023 1384.236 999.250 C 1384.677 972.735, 1385.318 969.493, 1391.557 962.205 C 1395.904 957.126, 1401.923 954.186, 1409.624 953.381 C 1422.561 952.029, 1432.453 957.886, 1437.080 969.635 C 1439.212 975.049, 1439.420 977.328, 1439.787 999.250 L 1440.184 1023 1486.031 1023 L 1531.877 1023 1532.393 1018.750 C 1532.677 1016.412, 1534.735 969.950, 1536.967 915.500 C 1539.199 861.050, 1541.295 812.826, 1541.624 808.336 L 1542.222 800.173 1567.361 790.738 L 1592.500 781.303 1592.760 733.152 L 1593.019 685 1554.510 685 L 1516 685 1516 701 L 1516 717 1474 717 L 1432 717 1432 701 L 1432 685 1413.500 685 L 1395 685 1395 648.008 L 1395 611.017 1451.651 610.758 L 1508.302 610.500 1451.669 561 L 1395.037 511.500 1395.019 497.250 L 1395 483 1388 483 L 1381 483 1380.885 545.250 C 1380.821 579.487, 1380.665 607.950, 1380.537 608.500 C 1380.409 609.050, 1380.236 626.487, 1380.152 647.250 L 1380 685 1369.500 685 L 1359 685 1359 701 L 1359 717 1320 717 L 1281 717 1281 701 L 1281 685 1245.490 685 L 1209.980 685 1210.240 731.074 L 1210.500 777.148 1234 786.094 C 1246.925 791.015, 1260.537 796.196, 1264.250 797.608 L 1271 800.175 1271 820.044 L 1271 839.912 1263.750 840.206 L 1256.500 840.500 1256.221 853.782 L 1255.941 867.065 1244.721 866.782 L 1233.500 866.500 1233.221 853.250 L 1232.942 840 1214.971 840 L 1197 840 1197 853 L 1197 866 1189.098 866 L 1181.195 866 1181.453 721.750 C 1181.596 642.413, 1181.777 577.172, 1181.856 576.771 C 1181.935 576.370, 1190.980 575.920, 1201.956 575.771 L 1221.912 575.500 1169.444 495 L 1116.977 414.500 1117.044 384.759 L 1117.110 355.017 1170.491 354.759 L 1223.871 354.500 1170.936 308.188 L 1118 261.877 1118 247.938 L 1118 234 1110.500 234 L 1103 234 1103 322.022 L 1103 410.044 1053.873 491.772 C 1026.853 536.722, 1004.534 574.052, 1004.274 574.728 C 1003.915 575.665, 1008.256 576.020, 1022.652 576.228 L 1041.500 576.500 1041.754 708.223 L 1042.007 839.946 1027.254 840.223 L 1012.500 840.500 1012.221 853.787 L 1011.941 867.074 1002.721 866.787 L 993.500 866.500 993.221 853.250 L 992.942 840 975.500 840 L 958.058 840 957.779 853.250 L 957.500 866.500 946 866.500 L 934.500 866.500 934.221 853.250 L 933.942 840 929.971 840 L 926 840 926 655 L 926 470 946 470 C 957 470, 966 469.760, 966 469.467 C 966 468.894, 923.547 380.201, 885.123 300.500 L 861.500 251.500 861.408 225 C 861.358 210.425, 861.507 195.241, 861.740 191.259 L 862.163 184.018 914.801 183.759 L 967.439 183.500 914.770 137.500 L 862.101 91.500 862.051 77.250 L 862 63 855.113 63 L 848.227 63 847.733 66.250 M 842.148 483.461 L 829 496.923 829 522.461 L 829 548 856 548 L 883 548 883 522.236 L 883 496.472 869.737 483.236 C 862.442 475.956, 856.208 470, 855.884 470 C 855.560 470, 849.379 476.058, 842.148 483.461 M 842.134 568.896 L 829 582.791 829 607.896 L 829 633 856 633 L 883 633 882.963 607.750 L 882.926 582.500 869.510 568.750 C 862.132 561.188, 855.909 555, 855.682 555 C 855.454 555, 849.358 561.253, 842.134 568.896 M 586.736 596.764 L 574 609.528 574 635.781 L 574 662.033 600.250 661.767 L 626.500 661.500 626.768 636.031 L 627.035 610.562 613.782 597.281 C 606.492 589.976, 600.290 584, 599.999 584 C 599.709 584, 593.740 589.744, 586.736 596.764 M 1098.218 597.281 L 1084.965 610.562 1085.232 636.031 L 1085.500 661.500 1112 661.500 L 1138.500 661.500 1138.768 636.031 L 1139.035 610.562 1125.782 597.281 C 1118.492 589.976, 1112.290 584, 1112 584 C 1111.710 584, 1105.508 589.976, 1098.218 597.281 M 842.271 654.263 L 829.138 667.527 829.138 692.066 C 829.138 705.562, 829.476 717.152, 829.889 717.820 C 830.453 718.734, 837.064 718.968, 856.570 718.767 L 882.500 718.500 882.768 693.031 L 883.035 667.562 869.782 654.281 C 862.492 646.976, 856.275 641, 855.966 641 C 855.657 641, 849.495 646.968, 842.271 654.263 M 586.586 682.185 L 574 695.371 574 721.185 L 574 747 600.500 747 L 627 747 627 721.236 L 627 695.472 613.737 682.236 C 606.442 674.956, 600.180 669, 599.823 669 C 599.465 669, 593.508 674.933, 586.586 682.185 M 1098.126 682.520 L 1085 696.040 1085 721.520 L 1085 747 1112 747 L 1139 747 1139 721.236 L 1139 695.472 1125.737 682.236 C 1118.442 674.956, 1112.199 669, 1111.863 669 C 1111.528 669, 1105.346 675.084, 1098.126 682.520 M 586.750 767.458 L 574 780.829 574 806.415 L 574 832 600.500 832 L 627 832 627 806.737 L 627 781.473 613.250 767.780 L 599.500 754.086 586.750 767.458 M 1098.210 767.890 L 1085 781.834 1085 806.917 L 1085 832 1112 832 L 1139 832 1139 806.737 L 1139 781.473 1125.210 767.710 L 1111.420 753.946 1098.210 767.890 M 243 831.500 L 243 867 278.500 867 L 314 867 314 831.500 L 314 796 278.500 796 L 243 796 243 831.500 M 1366.237 831.250 L 1366.500 866.500 1401.750 866.763 L 1437 867.026 1437 831.513 L 1437 796 1401.487 796 L 1365.974 796 1366.237 831.250 M 1.762 1089.707 C 3.006 1089.946, 4.806 1089.937, 5.762 1089.687 C 6.718 1089.437, 5.700 1089.241, 3.500 1089.252 C 1.300 1089.263, 0.518 1089.468, 1.762 1089.707 " stroke="none" fill="black" fill-rule="evenodd"/>
</svg>