<svg xmlns="http://www.w3.org/2000/svg" width="35" height="40" viewBox="0 0 820 1140" version="1.1">
	<path d="M 431.760 229.750 L 431.500 377.500 422.143 398 C 400.689 445, 374.124 496.727, 358.460 522 C 337.222 556.268, 278.477 620.926, 189.691 707.759 L 163.881 733 210.941 733 L 258 733 258 907.500 L 258 1082 445 1082 L 632 1082 632 907.500 L 632 733 677.750 732.955 L 723.500 732.911 691.306 701.205 C 610.199 621.330, 556.505 561.734, 541.405 534.830 C 520.016 496.721, 484.603 414.136, 457.433 339 C 455.344 333.225, 453.268 328.350, 452.818 328.167 C 452.368 327.983, 452 317.524, 452 304.923 L 452 282.012 531.708 281.756 L 611.416 281.500 531.708 211.741 L 452 141.983 452 111.991 L 452 82 442.010 82 L 432.020 82 431.760 229.750 M 427.299 719.378 C 413.948 725.756, 403.205 745.198, 397.555 773.208 C 396.264 779.608, 396 789.997, 396 834.458 L 396 888 439.049 888 L 482.099 888 481.765 826.250 C 481.440 766.138, 481.373 764.291, 479.224 756.622 C 472.310 731.951, 458.604 718.341, 439.611 717.288 C 433.592 716.954, 431.701 717.275, 427.299 719.378 M 1.762 1139.707 C 3.006 1139.946, 4.806 1139.937, 5.762 1139.687 C 6.718 1139.437, 5.700 1139.241, 3.500 1139.252 C 1.300 1139.263, 0.518 1139.468, 1.762 1139.707 M 13.784 1139.738 C 16.689 1139.941, 21.189 1139.939, 23.784 1139.734 C 26.378 1139.528, 24 1139.363, 18.500 1139.365 C 13 1139.368, 10.878 1139.536, 13.784 1139.738 " stroke="none" fill="black" fill-rule="evenodd"/>
</svg>