<?xml version="1.0" standalone="no"?>
<!DOCTYPE svg PUBLIC "-//W3C//DTD SVG 20010904//EN"
 "http://www.w3.org/TR/2001/REC-SVG-20010904/DTD/svg10.dtd">
<svg version="1.0" xmlns="http://www.w3.org/2000/svg"
 width="35" height="40" viewBox="0 0 1178.000000 968.000000"
 preserveAspectRatio="xMidYMid meet">

<g transform="translate(0.000000,968.000000) scale(0.100000,-0.100000)"
fill="#000000" stroke="none">
<path d="M5720 7990 l0 -1010 -257 -2 -258 -3 -3 -227 -2 -228 -160 0 -160 0
-2 228 -3 227 -412 3 -413 2 0 -680 0 -680 200 0 200 0 0 -1305 0 -1305 -110
0 -109 0 -3 -152 -3 -153 -72 -3 -73 -3 0 156 0 155 -140 0 -140 0 0 -155 0
-155 -95 0 -95 0 0 155 0 155 -145 0 -145 0 0 -155 0 -155 -65 0 -65 0 0 155
0 155 -105 0 -105 0 2 286 3 286 210 113 210 112 0 564 0 564 -270 0 -270 0
-3 -177 -2 -178 -320 0 -320 0 0 180 0 180 -70 0 -70 0 0 375 0 375 552 2 552
3 -289 270 c-160 148 -337 315 -395 371 -58 55 -176 166 -262 245 l-157 144 0
128 -1 128 -142 -3 -143 -3 -2 -35 c-1 -19 -2 -477 -2 -1017 l-1 -982 -47 -3
-48 -3 -3 -177 -2 -178 -290 0 -290 0 -2 178 -3 177 -265 0 -265 0 -3 -537 -2
-538 57 -35 c148 -91 172 -105 233 -140 36 -20 91 -54 122 -74 l57 -36 0
-1427 1 -1428 325 0 325 0 0 418 c0 399 1 421 21 481 33 96 75 151 148 189 53
27 74 32 130 32 121 0 194 -53 249 -183 l27 -62 5 -440 5 -440 1564 -3 c1245
-2 1566 0 1573 10 4 7 7 263 7 568 -2 549 -1 556 21 640 59 216 200 338 422
363 256 29 431 -58 526 -262 60 -131 65 -192 57 -793 l-6 -528 1073 0 c590 0
1306 3 1591 7 l517 6 0 434 c0 410 1 437 20 494 42 123 103 187 206 215 146
39 262 -26 326 -183 23 -57 23 -65 28 -513 l5 -455 318 -3 317 -2 0 47 c1 191
24 1126 45 1818 14 457 25 868 25 915 l1 85 107 71 c59 39 137 91 175 115 l67
44 0 568 0 567 -267 -2 -268 -3 -3 -177 -2 -178 -320 0 -320 0 -2 178 -3 177
-52 3 -53 3 0 375 0 374 538 0 537 0 -55 53 c-30 28 -159 149 -285 267 -126
118 -237 222 -245 231 -8 9 -116 110 -240 224 -124 114 -231 215 -238 224 -10
12 -13 50 -10 151 l3 135 -145 0 -145 0 -3 -1017 -2 -1017 -63 -3 -62 -3 -3
-177 -2 -178 -290 0 -290 0 -2 178 -3 177 -265 0 -265 0 0 -539 0 -540 42 -25
c24 -14 71 -43 105 -65 35 -21 106 -63 158 -94 52 -31 110 -67 128 -80 l32
-25 -2 -276 -3 -276 -107 -3 -108 -3 0 -154 0 -155 -75 0 -75 0 0 155 0 155
-140 0 -140 0 0 -155 0 -155 -95 0 -95 0 0 155 0 156 -142 -3 -143 -3 -2 -105
c-1 -58 -2 -126 -2 -152 l-1 -48 -65 0 -65 0 0 155 0 155 -106 0 -107 0 8
1313 c4 721 9 1315 12 1320 2 4 80 7 174 7 l169 0 0 660 c0 520 -3 661 -12
665 -7 2 -203 6 -435 10 l-423 6 0 -235 0 -236 -145 0 -145 0 0 230 0 230
-295 0 -295 0 0 375 0 375 545 0 c300 0 545 3 544 8 0 4 -42 45 -92 91 -51 46
-296 274 -544 505 l-453 421 0 122 0 123 -160 0 -160 0 0 -1010z m400 -2198
c67 -34 114 -93 129 -162 12 -56 14 -301 4 -452 l-6 -98 -289 0 -288 0 0 273
c0 252 2 275 21 317 27 59 53 87 113 117 98 50 222 52 316 5z m8 -1437 c112
-61 133 -126 130 -390 -1 -99 -4 -210 -6 -247 l-4 -68 -289 0 -289 0 0 273 0
273 26 52 c14 29 40 63 58 76 94 72 272 87 374 31z m-3870 -1137 l-3 -323
-282 -3 -283 -2 0 325 0 325 285 0 285 0 -2 -322z m7930 0 l-3 -323 -282 -3
-283 -2 0 325 0 325 285 0 285 0 -2 -322z"/>
</g>
</svg>
