<svg xmlns="http://www.w3.org/2000/svg" width="35" height="40" viewBox="0 0 1576 934" version="1.1">
	<path d="M 708.769 149.250 L 708.500 224.500 667.638 316.500 C 645.164 367.100, 626.553 409.063, 626.281 409.750 C 625.897 410.719, 629.410 411, 641.893 411 L 658 411 658 570.467 L 658 729.934 646.750 730.217 L 635.500 730.500 635.216 741.250 L 634.932 752 625.500 752 L 616.068 752 615.784 741.250 L 615.500 730.500 600.750 730.223 L 586 729.947 586 740.973 L 586 752 579.034 752 L 572.068 752 571.784 741.250 L 571.500 730.500 566.246 730.198 L 560.992 729.895 561.246 614.698 L 561.500 499.500 578.168 499.226 L 594.836 498.952 551.418 432.334 L 508 365.715 508 340.868 L 508 316.021 552.196 315.760 L 596.392 315.500 552.446 277 L 508.500 238.500 508.218 226.701 L 507.936 214.902 502.218 215.201 L 496.500 215.500 496.233 288.500 L 495.967 361.500 455.233 429.379 C 432.830 466.713, 414.350 497.651, 414.167 498.129 C 413.983 498.608, 420.846 499, 429.417 499 L 445 499 445 614.500 L 445 730 438.500 730 L 432 730 432 741 L 432 752 425 752 L 418 752 418 740.974 L 418 729.948 402.750 730.224 L 387.500 730.500 387.216 741.250 L 386.932 752 377.500 752 L 368.068 752 367.784 741.250 C 367.517 731.125, 367.375 730.482, 365.356 730.194 C 363.247 729.894, 363.221 729.649, 363.748 715.194 C 364.042 707.112, 364.597 699.631, 364.981 698.569 C 365.492 697.154, 371.141 694.584, 386.089 688.967 L 406.500 681.296 406.761 641.648 L 407.023 602 375.011 602 L 343 602 343 615 L 343 628 308.500 628 L 274 628 274 615.025 L 274 602.051 258.250 601.775 L 242.500 601.500 242.385 575.500 C 242.322 561.200, 242.479 547.367, 242.735 544.760 L 243.200 540.020 289.850 539.760 L 336.500 539.500 289.750 498.564 L 243 457.628 243 445.814 L 243 434 237.006 434 L 231.011 434 230.756 517.750 L 230.500 601.500 221.750 601.789 L 213 602.078 213 615.039 L 213 628 180.500 628 L 148 628 148 615 L 148 602 118.500 602 L 89 602 89 639.808 L 89 677.616 114.250 687.201 L 139.500 696.785 139.756 783.393 L 140.011 870 186.933 870 L 233.855 870 234.178 849.250 C 234.456 831.333, 234.754 828.022, 236.362 825 C 243.550 811.488, 260.792 807.733, 271.694 817.305 C 278.539 823.314, 279.428 826.862, 279.826 849.750 L 280.178 870 530.015 870 L 779.853 870 780.202 843.750 C 780.544 818.073, 780.612 817.325, 783.331 809.500 C 788.297 795.208, 796.832 785.658, 809 780.781 C 813.621 778.929, 816.501 778.571, 827.021 778.538 C 839.186 778.501, 839.731 778.593, 846.206 781.781 C 861.417 789.269, 870 804.924, 870 825.182 C 870 831.061, 870.401 835, 871 835 C 871.629 835, 872 841.500, 872 852.500 L 872 870 1119.500 870 L 1367 870 1367.022 844.250 C 1367.042 820.496, 1367.202 818.151, 1369.084 814 C 1372.700 806.023, 1378.302 801.827, 1387.095 800.509 C 1396.910 799.037, 1405.585 803.754, 1409.871 812.893 C 1412.464 818.422, 1412.505 818.857, 1412.825 844.250 L 1413.149 870 1451.370 870 L 1489.591 870 1491.826 816.750 C 1493.055 787.462, 1494.751 746.400, 1495.595 725.500 C 1496.439 704.600, 1497.446 686.889, 1497.833 686.143 C 1498.221 685.396, 1507.754 681.333, 1519.019 677.114 L 1539.500 669.442 1539.761 629.721 L 1540.023 590 1508.011 590 L 1476 590 1476 603 L 1476 616 1441 616 L 1406 616 1406 603 L 1406 590 1390.500 590 L 1375 590 1375 559.010 L 1375 528.020 1422.067 527.760 L 1469.135 527.500 1422.317 486.493 L 1375.500 445.485 1375.845 433.743 L 1376.190 422 1370.095 422 L 1364 422 1363.894 494.750 C 1363.835 534.763, 1363.687 568.175, 1363.565 569 C 1363.442 569.825, 1363.265 574.888, 1363.171 580.250 L 1363 590 1354.500 590 L 1346 590 1346 603 L 1346 616 1313.500 616 L 1281 616 1281 603 L 1281 590 1251.500 590 L 1222 590 1222 627.912 L 1222 665.825 1230.250 668.987 C 1234.787 670.726, 1246.263 675.101, 1255.750 678.710 L 1273 685.272 1273 702.136 C 1273 716.460, 1272.774 719, 1271.500 719 C 1270.262 719, 1270 720.833, 1270 729.500 L 1270 740 1262.500 740 L 1255 740 1255 729.500 L 1255 719 1240 719 L 1225 719 1225 729.500 L 1225 740 1215.500 740 L 1206 740 1206 729.536 L 1206 719.072 1196.250 718.786 C 1189.202 718.579, 1186.528 718.154, 1186.600 717.250 C 1186.655 716.563, 1186.767 667.186, 1186.850 607.524 L 1187 499.048 1203.461 498.774 L 1219.922 498.500 1178.865 435.500 C 1156.284 400.850, 1136.726 370.660, 1135.404 368.412 C 1133.044 364.400, 1133 363.878, 1133 340.162 L 1133 316 1177.083 316 C 1201.551 316, 1221.018 315.614, 1220.833 315.133 C 1220.650 314.656, 1201.051 297.262, 1177.280 276.479 L 1134.061 238.691 1133.780 227.096 L 1133.500 215.500 1127.750 215.200 L 1122 214.900 1122 287.700 L 1121.999 360.500 1080.596 429.500 L 1039.192 498.500 1054.846 499 L 1070.500 499.500 1070.754 614.750 L 1071.008 730 1064.504 730 L 1058 730 1058 741 L 1058 752 1051.034 752 L 1044.068 752 1043.784 741.250 L 1043.500 730.500 1021.250 730.231 L 999 729.962 999 740.981 L 999 752 992.500 752 L 986 752 986 581.524 L 986 411.047 1002.810 410.774 L 1019.620 410.500 976.310 320.119 L 933 229.738 933 201.880 L 933 174.021 976.901 173.760 L 1020.801 173.500 976.901 135.129 L 933 96.757 933 85.379 L 933 74 927 74 L 921 74 920.989 148.750 L 920.978 223.500 879.640 317 L 838.302 410.500 854.151 410.775 L 870 411.050 870 570.525 L 870 730 858 730 L 846 730 846 741 L 846 752 838.034 752 L 830.068 752 829.784 741.250 L 829.500 730.500 815 730.500 L 800.500 730.500 800.216 741.250 L 799.932 752 790.500 752 L 781.068 752 780.784 741.250 L 780.500 730.500 777.250 730.187 L 774 729.873 774 570.437 L 774 411 790.607 411 C 803.482 411, 807.106 410.719, 806.734 409.750 C 806.470 409.063, 786.847 367.993, 763.127 318.483 L 720 228.467 720 201.244 L 720 174.021 764.203 173.760 L 808.405 173.500 764.703 135.234 L 721 96.969 721 85.484 L 721 74 715.019 74 L 709.037 74 708.769 149.250 M 704.632 422.095 L 694 433.268 694 454.634 L 694 476 716 476 L 738 476 738 454.886 L 738 433.772 727.357 422.636 C 721.503 416.511, 716.387 411.370, 715.988 411.211 C 715.590 411.051, 710.479 415.949, 704.632 422.095 M 916.750 422.443 L 906 433.662 906 454.831 L 906 476 928 476 L 950 476 950.006 472.250 C 950.009 470.188, 950.305 460.703, 950.663 451.174 L 951.315 433.848 939.924 422.424 C 933.659 416.141, 928.300 411.050, 928.016 411.112 C 927.732 411.173, 922.663 416.272, 916.750 422.443 M 704.733 492.766 L 694 503.533 694 525.266 L 694 547 716 547 L 738 547 738 525.233 L 738 503.466 727.234 492.733 C 721.312 486.830, 716.242 482, 715.967 482 C 715.691 482, 710.636 486.845, 704.733 492.766 M 916.684 493.419 L 906 504.837 906 525.919 L 906 547 927.873 547 L 949.745 547 950.481 525.874 L 951.217 504.748 939.875 493.374 C 933.636 487.118, 928.270 482, 927.950 482 C 927.629 482, 922.560 487.138, 916.684 493.419 M 492.159 516.601 L 481 528.352 481 549.176 L 481 570 503.500 570 L 526 570 526 548.734 L 526 527.467 514.659 516.158 L 503.317 504.849 492.159 516.601 M 1117.750 516.507 L 1107 527.662 1107 548.831 L 1107 570 1129 570 L 1151 570 1151 548.734 L 1151 527.467 1139.750 516.410 L 1128.500 505.352 1117.750 516.507 M 704.733 563.766 L 694 574.533 694 596.266 L 694 618 716 618 L 738 618 738 596.233 L 738 574.466 727.234 563.733 C 721.312 557.830, 716.242 553, 715.967 553 C 715.691 553, 710.636 557.845, 704.733 563.766 M 916.566 564.211 L 905.961 575.422 906.231 596.461 L 906.500 617.500 928.122 617.769 L 949.744 618.038 950.480 596.893 L 951.217 575.748 939.875 564.374 C 933.636 558.118, 928.226 553, 927.851 553 C 927.476 553, 922.398 558.045, 916.566 564.211 M 492.214 587.327 L 481 598.693 481 619.846 L 481 641 503.500 641 L 526 641 526 619.734 L 526 598.467 514.714 587.214 L 503.429 575.960 492.214 587.327 M 1117.763 587.229 L 1107.101 598.500 1107.050 619.750 L 1107 641 1129 641 L 1151 641 1151 619.734 L 1151 598.467 1139.713 587.212 L 1128.426 575.957 1117.763 587.229 M 492.214 658.327 L 481 669.693 481 690.846 L 481 712 503.500 712 L 526 712 526 690.734 L 526 669.467 514.714 658.214 L 503.429 646.960 492.214 658.327 M 1117.624 658.149 L 1107 669.382 1107 690.691 L 1107 712 1129 712 L 1151 712 1151 690.886 L 1151 669.772 1140.357 658.636 C 1134.503 652.511, 1129.384 647.369, 1128.981 647.208 C 1128.578 647.048, 1123.468 651.971, 1117.624 658.149 M 1352 710.500 L 1352 740 1381.500 740 L 1411 740 1411 710.500 L 1411 681 1381.500 681 L 1352 681 1352 710.500 M 219 722.500 L 219 752 248.500 752 L 278 752 278 722.500 L 278 693 248.500 693 L 219 693 219 722.500 M 1.762 933.707 C 3.006 933.946, 4.806 933.937, 5.762 933.687 C 6.718 933.437, 5.700 933.241, 3.500 933.252 C 1.300 933.263, 0.518 933.468, 1.762 933.707 M 13.784 933.738 C 16.689 933.941, 21.189 933.939, 23.784 933.734 C 26.378 933.528, 24 933.363, 18.500 933.365 C 13 933.368, 10.878 933.536, 13.784 933.738 " stroke="none" fill="black" fill-rule="evenodd"/>
</svg>