<svg xmlns="http://www.w3.org/2000/svg" width="35" height="40" viewBox="0 0 804 1152" version="1.1">
	<path d="M 222.644 90.250 C 222.281 98.088, 221.999 146.668, 222.017 198.208 L 222.050 291.915 148.641 420.208 L 75.233 548.500 105.116 548.765 L 135 549.029 135 817.515 L 135 1086 251.500 1086 L 368 1086 368 1046.894 C 368 1003.008, 368.157 1001.693, 375.114 987.209 C 386.837 962.804, 412.280 952.741, 435.445 963.346 C 446.280 968.307, 456.359 980.186, 462.613 995.367 L 465.963 1003.500 465.982 1044.750 L 466 1086 579.500 1086 L 693 1086 693 885 L 693 684 718 684 C 731.750 684, 743 683.779, 743 683.508 C 743 683.238, 735.188 669.625, 725.640 653.258 C 716.092 636.891, 685.267 584.008, 657.140 535.740 L 606 447.980 606 409.998 L 606 372.015 666.512 371.758 L 727.025 371.500 666.512 318.573 L 606 265.645 606 249.323 L 606 233 597.654 233 L 589.309 233 588.658 245.750 C 588.301 252.762, 587.987 301.700, 587.961 354.500 L 587.915 450.500 522.114 566.500 C 485.924 630.300, 456.494 682.837, 456.716 683.250 C 456.937 683.662, 466.991 684, 479.059 684 L 501 684 501 789.500 L 501 895 414 895 L 327 895 327 722.016 L 327 549.031 354.842 548.766 L 382.684 548.500 311.358 433.500 L 240.033 318.500 240.016 266.758 L 240 215.015 300.512 214.758 L 361.025 214.500 300.512 161.573 L 240 108.645 240 92.323 L 240 76 231.652 76 L 223.303 76 222.644 90.250 M 213.250 584.621 L 193 604.172 193 640.586 L 193 677 233.345 677 L 273.690 677 274.345 663.342 C 274.705 655.830, 275 639.465, 275 626.975 L 275 604.267 259.750 589.947 C 251.363 582.071, 242.025 573.252, 239 570.349 L 233.500 565.070 213.250 584.621 M 578.717 724.294 L 558.934 743.500 558.967 780.250 L 559 817 599.500 817 L 640 817 640.004 794.250 C 640.006 781.737, 640.266 765.200, 640.583 757.500 L 641.158 743.500 620.734 724.552 C 609.501 714.130, 599.903 705.487, 599.405 705.345 C 598.907 705.204, 589.598 713.730, 578.717 724.294 M 212.713 759.287 L 192.925 778.500 192.963 815.250 L 193 852 233.345 852 L 273.690 852 274.345 838.342 C 274.705 830.830, 275 814.246, 275 801.490 L 275 778.295 254.580 759.148 C 243.349 748.616, 233.786 740.016, 233.330 740.037 C 232.873 740.057, 223.596 748.719, 212.713 759.287 M 1.762 1151.707 C 3.006 1151.946, 4.806 1151.937, 5.762 1151.687 C 6.718 1151.437, 5.700 1151.241, 3.500 1151.252 C 1.300 1151.263, 0.518 1151.468, 1.762 1151.707 M 13.784 1151.738 C 16.689 1151.941, 21.189 1151.939, 23.784 1151.734 C 26.378 1151.528, 24 1151.363, 18.500 1151.365 C 13 1151.368, 10.878 1151.536, 13.784 1151.738 " stroke="none" fill="black" fill-rule="evenodd"/>
</svg>