<svg xmlns="http://www.w3.org/2000/svg" width="35" height="40" viewBox="0 0 1304 1108" version="1.1">
	<path d="M 684.959 99.118 C 684.269 100.428, 665.031 136.375, 642.206 179 L 600.707 256.500 587.354 304.779 L 574 353.058 574 396.646 C 574 437.671, 573.897 440.206, 572.250 439.762 C 571.288 439.502, 527.638 427.197, 475.250 412.416 L 380 385.543 380 343.743 L 380 301.942 350.250 257.519 C 333.888 233.085, 320.272 213.073, 319.994 213.047 C 319.715 213.021, 311.065 233.138, 300.772 257.750 L 282.057 302.500 271.028 381.563 L 260 460.627 260 670.673 L 260 880.720 270.750 882.821 C 291.875 886.951, 647.892 957.136, 667.580 961.052 L 687.661 965.046 757.580 950.627 C 952.484 910.435, 1096.531 880.634, 1096.796 880.449 C 1096.958 880.335, 1099.104 832.825, 1101.565 774.871 C 1104.025 716.917, 1108.234 617.858, 1110.919 554.741 L 1115.800 439.981 1106.432 370.867 L 1097.064 301.753 1081.453 258.646 C 1072.867 234.938, 1065.515 214.955, 1065.115 214.241 C 1064.644 213.400, 1053.211 228.657, 1032.694 257.502 L 1001 302.063 1001 343.822 L 1001 385.581 899.250 412.350 C 843.288 427.073, 796.712 439.347, 795.750 439.627 C 794.103 440.105, 794 437.618, 794 397.222 L 794 354.309 783.089 305.625 L 772.178 256.941 732.145 182.220 C 710.127 141.124, 690.784 105.078, 689.162 102.118 C 686.257 96.818, 686.193 96.772, 684.959 99.118 M 343.199 553.248 L 336.068 588.500 331.865 667.614 L 327.662 746.728 339.081 774.311 C 345.362 789.482, 350.806 801.581, 351.179 801.197 C 351.553 800.814, 357.103 788.359, 363.513 773.521 L 375.166 746.541 372.100 700.021 C 370.413 674.434, 368.108 638.875, 366.976 621 L 364.919 588.500 357.842 553.500 C 353.950 534.250, 350.667 518.387, 350.547 518.248 C 350.428 518.110, 347.121 533.860, 343.199 553.248 M 1014.620 551.732 L 1007.877 584.500 1003.356 665.556 L 998.834 746.611 1010.014 773.556 C 1016.163 788.375, 1021.504 800.831, 1021.883 801.237 C 1022.263 801.642, 1027.933 789.579, 1034.484 774.431 C 1044.822 750.528, 1046.362 746.270, 1046.143 742.195 C 1046.004 739.613, 1043.683 703.627, 1040.985 662.227 L 1036.080 586.955 1029.371 553.727 C 1025.681 535.452, 1022.370 520.154, 1022.013 519.732 C 1021.655 519.309, 1018.329 533.709, 1014.620 551.732 M 478.267 589.773 L 468.088 632.500 463.029 711 L 457.970 789.500 473.547 820.935 L 489.125 852.370 492.384 846.435 C 494.176 843.171, 501.530 829.025, 508.726 815 L 521.810 789.500 515.541 709.500 L 509.271 629.500 499.497 589 C 494.122 566.725, 489.436 548.173, 489.085 547.773 C 488.734 547.373, 483.866 566.273, 478.267 589.773 M 872.198 590.750 L 861.999 633.500 857.088 711.363 L 852.177 789.227 867.516 820.613 C 875.953 837.876, 883.081 852, 883.356 852 C 883.632 852, 891.079 837.895, 899.904 820.656 L 915.951 789.313 909.993 711.406 L 904.036 633.500 893.831 590.750 C 888.218 567.237, 883.350 548, 883.012 548 C 882.674 548, 877.808 567.237, 872.198 590.750 M 607.053 626.752 L 593.769 674.500 587.842 753.500 L 581.915 832.500 601.207 866.235 C 611.818 884.789, 620.743 899.977, 621.040 899.985 C 621.338 899.993, 623.625 896.513, 626.123 892.250 C 628.621 887.987, 637.670 872.767, 646.233 858.426 L 661.801 832.353 654.484 752.426 L 647.167 672.500 634.133 626.132 C 626.964 600.630, 620.927 579.594, 620.718 579.385 C 620.509 579.175, 614.360 600.491, 607.053 626.752 M 737.240 626.813 L 723.981 674.500 718.037 753.449 L 712.094 832.398 731.297 866.163 C 741.859 884.734, 750.859 899.824, 751.299 899.698 C 751.738 899.571, 761.076 884.379, 772.050 865.937 L 792.003 832.406 785.007 753.953 L 778.010 675.500 764.850 628 C 757.612 601.875, 751.423 580.191, 751.095 579.813 C 750.768 579.435, 744.533 600.585, 737.240 626.813 M 1.762 1107.707 C 3.006 1107.946, 4.806 1107.937, 5.762 1107.687 C 6.718 1107.437, 5.700 1107.241, 3.500 1107.252 C 1.300 1107.263, 0.518 1107.468, 1.762 1107.707 M 13.784 1107.738 C 16.689 1107.941, 21.189 1107.939, 23.784 1107.734 C 26.378 1107.528, 24 1107.363, 18.500 1107.365 C 13 1107.368, 10.878 1107.536, 13.784 1107.738 " stroke="none" fill="black" fill-rule="evenodd"/>
</svg>