<?xml version="1.0" standalone="no"?>
<!DOCTYPE svg PUBLIC "-//W3C//DTD SVG 20010904//EN"
 "http://www.w3.org/TR/2001/REC-SVG-20010904/DTD/svg10.dtd">
<svg version="1.0" xmlns="http://www.w3.org/2000/svg"
 width="35" height="40" viewBox="0 0 1110.000000 1018.000000"
 preserveAspectRatio="xMidYMid meet">

<g transform="translate(0.000000,1018.000000) scale(0.100000,-0.100000)"
fill="#000000" stroke="none">
<path d="M5214 9579 c-55 -5 -152 -22 -215 -38 -117 -30 -363 -76 -834 -156
-359 -62 -400 -70 -538 -116 -188 -62 -292 -129 -662 -423 -189 -151 -397
-314 -600 -471 -309 -238 -594 -482 -725 -622 -242 -254 -370 -514 -574 -1163
-101 -320 -200 -640 -260 -840 -80 -263 -136 -550 -136 -695 0 -154 40 -372
129 -705 40 -149 100 -378 170 -650 23 -86 45 -180 51 -210 11 -60 80 -316
112 -420 55 -172 127 -315 235 -461 149 -203 1025 -1114 1258 -1308 326 -270
503 -347 1225 -526 102 -26 264 -66 360 -91 268 -67 472 -112 615 -133 72 -11
191 -30 265 -43 118 -20 170 -22 420 -22 250 0 302 2 420 22 74 13 194 32 265
42 143 22 357 68 620 135 94 24 274 69 400 100 805 199 958 281 1463 780 361
355 777 796 931 985 202 248 261 391 400 965 34 138 81 324 106 415 25 91 45
170 45 176 0 6 20 82 44 170 49 178 110 430 125 514 18 103 23 293 12 411 -12
122 -76 399 -145 624 -341 1108 -432 1366 -563 1595 -153 265 -381 491 -906
901 -59 46 -125 98 -146 114 -437 343 -800 626 -864 672 -85 63 -224 132 -332
166 -134 42 -185 53 -530 112 -472 81 -761 136 -823 155 -32 10 -95 24 -138
30 -97 14 -542 20 -680 9z m694 -1440 c367 -40 797 -154 1088 -289 276 -127
492 -250 709 -401 217 -151 292 -212 508 -412 l108 -100 -48 -47 c-26 -26
-262 -240 -523 -477 -261 -236 -508 -460 -549 -499 l-73 -70 -102 51 c-229
114 -481 191 -731 225 -267 35 -450 35 -738 -1 -139 -17 -213 -33 -446 -96
-83 -23 -312 -114 -441 -176 -228 -110 -459 -286 -589 -451 -151 -191 -240
-398 -298 -691 -21 -110 -25 -449 -5 -565 34 -203 68 -356 104 -459 32 -93 37
-116 26 -126 -11 -10 -604 -574 -771 -734 l-59 -56 -55 60 c-126 138 -350 463
-482 700 -85 153 -251 510 -251 540 0 4 -16 49 -35 100 -39 105 -106 358 -129
485 -26 150 -39 351 -34 544 3 102 7 189 11 192 3 3 203 -12 444 -34 484 -45
583 -52 583 -43 0 3 -67 53 -148 109 -81 57 -212 151 -292 208 -80 58 -161
116 -180 129 -19 13 -73 52 -120 85 -47 34 -100 71 -117 83 -18 12 -33 28 -33
35 0 36 110 264 211 437 48 82 196 281 275 369 172 193 396 402 572 533 65 47
133 98 152 113 33 25 91 63 235 155 98 63 264 155 277 155 7 -1 38 -37 67 -82
30 -44 98 -142 151 -217 120 -169 207 -293 306 -438 43 -62 78 -112 80 -110 4
4 -17 201 -61 572 -24 204 -45 399 -47 435 l-3 64 47 18 c183 68 541 149 788
177 110 12 505 13 618 0z m-48 -2380 c298 -30 638 -152 990 -356 l35 -21 202
68 203 67 15 -23 c96 -147 367 -874 421 -1129 46 -219 72 -369 83 -475 6 -58
20 -177 30 -265 17 -137 28 -250 56 -567 2 -32 1 -58 -4 -58 -5 0 -35 33 -67
73 -32 39 -61 74 -64 77 -4 3 -75 91 -158 196 l-152 192 -2 203 -3 204 -45 8
c-25 5 -126 26 -225 48 -99 21 -216 46 -260 54 -44 8 -150 30 -235 49 -474
105 -501 110 -511 95 -5 -8 -8 -110 -8 -226 l0 -213 52 -15 c29 -8 90 -23 137
-34 201 -46 496 -116 630 -150 l145 -36 21 -65 c28 -87 132 -421 247 -800 72
-235 147 -476 187 -605 63 -200 91 -297 88 -301 -5 -4 -118 43 -473 196 -138
60 -254 109 -410 175 -60 26 -150 64 -200 85 -49 21 -144 62 -210 90 -66 28
-160 69 -210 90 -49 21 -144 62 -210 90 -323 138 -315 134 -321 160 -4 14 -26
90 -49 170 -24 80 -58 196 -76 258 -18 61 -36 112 -40 112 -14 0 -205 -47
-321 -80 l-118 -32 0 -227 0 -227 -172 -48 c-202 -55 -443 -121 -648 -176 -80
-22 -219 -60 -309 -85 -90 -25 -168 -44 -174 -42 -5 1 20 25 58 51 241 172
429 383 521 582 46 100 64 174 64 269 0 126 -40 235 -132 360 -168 230 -251
433 -279 687 -27 246 56 558 211 793 163 247 404 457 688 599 108 54 341 130
446 146 189 28 335 30 556 9z"/>
<path d="M5114 4917 c-73 -24 -165 -80 -201 -121 -19 -23 -49 -68 -66 -101
-31 -58 -32 -64 -32 -185 0 -121 1 -127 32 -186 69 -132 200 -220 345 -231
172 -13 336 83 415 245 26 53 28 66 28 173 0 111 -1 117 -34 182 -43 84 -120
158 -207 199 -54 25 -81 31 -152 34 -55 3 -102 -1 -128 -9z"/>
</g>
</svg>
