<svg xmlns="http://www.w3.org/2000/svg" width="35" height="40" viewBox="0 0 1320 1300" version="1.1">
	<path d="M 663 97.639 C 661.625 97.841, 657.125 98.494, 653 99.090 C 648.875 99.687, 642.274 101.245, 638.330 102.553 C 630.665 105.096, 614.709 108.114, 554.459 118.415 C 466.454 133.461, 463.576 134.670, 405.613 180.958 C 392.901 191.109, 366.525 211.990, 347 227.358 C 271.814 286.539, 250.574 305.225, 232.039 328.500 C 206.630 360.407, 196.809 384.214, 160.466 502 C 143.660 556.468, 137.233 579.297, 132.736 600.500 C 129.688 614.870, 129.555 616.466, 129.553 638.500 C 129.552 661.184, 129.602 661.740, 133.241 679 C 135.271 688.625, 141.475 713.825, 147.028 735 C 152.582 756.175, 162.085 793.525, 168.147 818 C 184.125 882.514, 189.810 898.566, 204.445 920.485 C 217.189 939.573, 229.862 953.977, 280.565 1007 C 315.567 1043.604, 351.318 1078.902, 364.500 1089.873 C 392.631 1113.283, 418.444 1125.831, 464.496 1138.480 C 489.456 1145.336, 578.881 1167.529, 595 1170.869 C 651.272 1182.526, 705.713 1186.908, 739.407 1182.491 C 753.320 1180.667, 755.754 1179.827, 756.574 1176.562 C 757.036 1174.720, 758.041 1173.914, 760.352 1173.532 C 762.083 1173.246, 769.350 1172.103, 776.500 1170.992 C 800.930 1167.195, 820.524 1162.849, 880.500 1147.925 C 960.739 1127.958, 976.780 1123.063, 1000 1111.459 C 1030.277 1096.327, 1053.887 1075.991, 1115.558 1011.921 C 1169.752 955.621, 1181.346 942.947, 1194.638 925.479 C 1214.383 899.530, 1219.985 884.818, 1238.914 809.189 C 1245.479 782.960, 1254.940 745.975, 1259.937 727 C 1274.039 673.458, 1276.951 657.771, 1276.982 635.182 C 1277.023 605.083, 1271.723 583.656, 1236.053 469.716 C 1217.454 410.303, 1208.857 386.634, 1198.063 365.126 C 1177.540 324.229, 1153.337 299.924, 1064.500 231.002 C 1055.700 224.174, 1033.426 206.654, 1015.003 192.068 C 971.233 157.415, 959.901 149.222, 945.816 142.049 C 925.639 131.774, 914.532 129.017, 846.907 117.494 C 784.907 106.931, 775.060 105.130, 770.500 103.520 C 763.656 101.104, 754.862 99.189, 745.500 98.076 C 737.346 97.106, 669.091 96.745, 663 97.639 M 645 142.056 C 635.375 143.051, 626.938 143.896, 626.250 143.933 C 625.540 143.971, 625 145.309, 625 147.031 C 625 148.699, 624.438 150.262, 623.750 150.505 C 623.063 150.749, 598.875 155.020, 570 159.998 C 513.632 169.715, 499.548 172.661, 488.340 177.083 C 473.825 182.809, 468.074 186.953, 402.399 239 C 309.255 312.817, 301.577 319.134, 284.137 336.310 C 249.011 370.902, 241.756 386.513, 204.109 508.500 C 176.272 598.700, 172.595 613.815, 172.611 638 C 172.623 656.324, 173.912 663.584, 184.602 705.500 C 189.231 723.650, 199.727 765.050, 207.928 797.500 C 224.324 862.377, 226.905 871.016, 234.076 885 C 244.288 904.913, 257.898 920.616, 328.606 994.070 C 400.126 1068.369, 414.764 1078.806, 469.500 1094.532 C 498.758 1102.937, 600.205 1127.733, 620.315 1131.393 C 641.071 1135.171, 643.622 1135.477, 644.167 1134.250 C 644.350 1133.838, 656.650 1133.779, 671.500 1134.119 C 719.627 1135.223, 753.857 1132.029, 803 1121.851 C 821.715 1117.974, 920.357 1093.318, 940.564 1087.466 C 984.284 1074.803, 1001.881 1063.741, 1043.857 1022.531 C 1063.331 1003.413, 1115.507 949.456, 1135.267 928 C 1162.393 898.546, 1172.345 883.630, 1179.967 861 C 1181.727 855.775, 1190.079 824.275, 1198.528 791 C 1206.977 757.725, 1216.843 719.250, 1220.452 705.500 C 1237.972 638.756, 1237.973 628.984, 1220.467 568 C 1211.136 535.495, 1182.773 444.992, 1175.613 424.874 C 1161.294 384.646, 1151.236 366.473, 1131.280 344.771 C 1115.912 328.059, 1099.667 314.071, 1054 278.224 C 1041.625 268.510, 1013.725 246.560, 992 229.446 C 970.275 212.332, 949.125 195.862, 945 192.847 C 921.902 175.964, 913.727 173.242, 856.787 163.476 C 839.029 160.430, 810.550 155.504, 793.500 152.530 C 738.158 142.877, 721.525 140.992, 688 140.568 C 668.603 140.323, 658.312 140.679, 645 142.056 M 684 267.655 C 627.653 273.055, 581.836 286.286, 530 312.128 C 458.949 347.548, 395.617 398.468, 355.475 452.448 C 324.545 494.040, 306.546 536.854, 298.908 587 C 296.213 604.691, 295.663 642.640, 297.842 660.500 C 305.649 724.484, 330.081 787.993, 370.743 850 C 383.480 869.423, 402.906 895.386, 412.532 905.852 C 413.553 906.962, 422.746 898.585, 463.824 859.109 L 513.872 811.014 510.419 800.760 C 505.995 787.621, 501.527 769.603, 499.072 755 C 485.538 674.466, 508.122 607.520, 563.178 564.970 C 600.282 536.294, 659.842 513.711, 716.500 506.835 C 730.663 505.116, 773.088 505.105, 787 506.816 C 821.229 511.027, 857.534 521.790, 883.866 535.533 L 894.232 540.943 938.366 500.731 C 962.640 478.614, 994.564 449.525, 1009.309 436.088 L 1036.118 411.659 1027.309 402.767 C 1008.476 383.757, 982.737 363.031, 955 344.541 C 889.810 301.086, 822.238 275.809, 751.778 268.522 C 738.545 267.154, 695.041 266.597, 684 267.655 M 695 310.663 C 625.971 315.473, 564.619 337.166, 499.500 379.787 C 435.827 421.463, 391.808 467.033, 366.153 517.831 C 348.541 552.706, 341.231 581.720, 340.285 620.500 C 339.017 672.507, 351.220 721.402, 379.676 778.324 C 390.074 799.124, 414.323 839.227, 417.802 841.378 C 418.517 841.820, 444.081 818.200, 459.694 802.671 L 463.888 798.500 461.420 788.500 C 454.893 762.052, 452 738.135, 452 710.614 C 452 646.514, 472.120 593.777, 512.462 552.139 C 535.436 528.426, 560.230 511.674, 595.799 495.836 C 687.673 454.923, 784.609 450.221, 871.041 482.484 C 877.893 485.042, 884.400 487.359, 885.500 487.632 C 887.048 488.016, 896.941 479.514, 929.250 450.033 C 952.212 429.080, 971 411.561, 971 411.103 C 971 410.644, 966.388 406.658, 960.750 402.245 C 906.705 359.934, 843.402 329.535, 784.500 317.606 C 754.070 311.443, 720.823 308.864, 695 310.663 M 688 550.480 C 648.741 556.189, 617.150 569.913, 585.656 594.940 C 547.891 624.950, 524.236 664.499, 518.955 706.453 C 517.456 718.356, 518.163 738.378, 520.474 749.500 C 524.863 770.624, 534.718 792.512, 548.327 811.361 C 562.668 831.223, 567 842.344, 567 859.296 C 567 874.848, 562.056 889.772, 551.474 906.160 C 539.473 924.746, 518.284 945.755, 494.750 962.401 C 491.038 965.027, 488 967.337, 488 967.534 C 488 967.731, 490.137 967.266, 492.750 966.500 C 495.363 965.734, 526.750 957.176, 562.500 947.483 C 598.250 937.790, 631.663 928.707, 636.750 927.298 L 646 924.737 646 897.844 L 646 870.950 648.327 870.066 C 651.830 868.734, 698.183 856.846, 698.507 857.196 C 698.662 857.363, 703.123 872.550, 708.421 890.944 C 713.719 909.338, 718.166 924.500, 718.304 924.637 C 718.441 924.774, 727.991 928.918, 739.527 933.845 C 751.062 938.773, 803.925 961.363, 857 984.045 C 910.075 1006.728, 954.940 1025.893, 956.700 1026.636 L 959.900 1027.985 958.599 1023.742 C 942.959 972.716, 894.683 816.419, 894.496 816.203 C 894.271 815.943, 791.813 791.388, 783.250 789.542 L 780 788.841 780 761.921 C 780 740.567, 780.268 735, 781.294 735 C 782.005 735, 816.453 742.200, 857.844 751 C 899.236 759.800, 933.303 767, 933.551 767 C 933.798 767, 934.007 778.138, 934.016 791.750 L 934.031 816.500 947.280 833 C 954.566 842.075, 966.314 856.700, 973.385 865.500 L 986.241 881.500 985.611 873.500 C 978.405 782.021, 971.204 731.811, 959.942 694.500 C 954.413 676.184, 942.903 643.978, 934.568 623.500 C 927.047 605.023, 914.966 580, 913.566 580 C 912.954 580, 901.868 583.535, 888.930 587.857 L 865.406 595.713 855.453 589.774 C 824.341 571.211, 785.322 556.978, 750.376 551.444 C 735.774 549.132, 700.966 548.594, 688 550.480 M 700 593.047 C 660.885 596.720, 624.856 614.504, 596.408 644.182 C 573.430 668.153, 561.866 694.588, 561.926 723.005 C 561.978 747.174, 568.872 765.721, 587.137 790.828 C 595.159 801.855, 603.050 817.015, 606.138 827.334 C 607.318 831.275, 608.388 834.631, 608.515 834.791 C 608.643 834.950, 635.647 828.080, 668.523 819.523 C 701.400 810.966, 728.430 804.096, 728.590 804.256 C 728.750 804.417, 734.598 824.386, 741.586 848.633 L 754.292 892.718 821.669 921.502 C 858.727 937.333, 889.268 950.066, 889.537 949.796 C 890.001 949.332, 860.661 853.226, 859.874 852.632 C 859.668 852.477, 832.050 845.847, 798.500 837.898 L 737.500 823.446 737.243 752.223 C 737.102 713.050, 737.327 681.006, 737.743 681.014 C 738.160 681.022, 779.659 689.776, 829.964 700.467 C 880.270 711.157, 921.567 719.766, 921.736 719.597 C 922.272 719.062, 914.303 693.976, 908.181 676.928 C 903.269 663.247, 892.157 634.093, 891.539 633.265 C 891.443 633.136, 883.909 635.521, 874.798 638.563 L 858.232 644.096 843.866 634.368 C 828.683 624.087, 807.005 612.981, 789.500 606.515 C 760.651 595.860, 725.837 590.621, 700 593.047 M 652.977 652.215 C 639.881 656.803, 629.947 665.491, 624.154 677.424 C 608.025 710.643, 631.769 748.926, 668.540 748.988 C 686.971 749.019, 704.061 738.968, 712.276 723.264 C 716.990 714.254, 718.112 709.581, 718.095 699.029 C 718.064 679.195, 707.630 662.949, 689.345 654.266 C 682.181 650.864, 680.905 650.592, 670.579 650.272 C 661.045 649.977, 658.590 650.248, 652.977 652.215 M 657.168 677.603 C 646.410 682.965, 641.554 695.076, 645.229 707.384 C 646.905 712.998, 655.238 721.463, 660.500 722.898 C 673.831 726.533, 686.665 720.852, 691.603 709.129 C 693.571 704.456, 693.640 694.468, 691.736 689.911 C 686.200 676.661, 670.369 671.025, 657.168 677.603 M 1.762 1299.707 C 3.006 1299.946, 4.806 1299.937, 5.762 1299.687 C 6.718 1299.437, 5.700 1299.241, 3.500 1299.252 C 1.300 1299.263, 0.518 1299.468, 1.762 1299.707 M 13.784 1299.738 C 16.689 1299.941, 21.189 1299.939, 23.784 1299.734 C 26.378 1299.528, 24 1299.363, 18.500 1299.365 C 13 1299.368, 10.878 1299.536, 13.784 1299.738 " stroke="none" fill="black" fill-rule="evenodd"/>
</svg>