<svg
        xmlns="http://www.w3.org/2000/svg"
        width="35"
        height="40"
        viewBox="0 0 1344 1230"
        version="1.1"
      >
        <path
          d="M 183.561 130.086 C 181.456 136.007, 172.761 172.918, 171.097 183 C 159.367 254.050, 165.830 332.364, 189.052 400.570 C 201.003 435.673, 215.626 465.341, 236.581 497 C 266.843 542.720, 301.002 576.254, 345.711 604.132 C 373.690 621.578, 401.376 635.412, 434.500 648.497 C 443.850 652.190, 453.075 656.397, 455 657.846 C 456.925 659.294, 466.825 667.427, 477 675.917 C 530.077 720.209, 570.046 758.463, 587.318 781.500 C 595.614 792.564, 604.724 812.008, 612.403 835.036 C 618.173 852.341, 628 888.406, 628 892.280 C 628 893.200, 625.133 894.750, 620.250 896.470 C 608.472 900.618, 601.368 904.697, 599.947 908.127 C 598.728 911.071, 599.073 921.718, 600.502 925.244 C 601.170 926.891, 597.040 927.001, 525.387 927.244 L 449.566 927.500 419.849 996.500 L 390.132 1065.500 368.066 1065.769 L 346 1066.038 346 1081.020 L 346 1096.003 708.750 1095.751 L 1071.500 1095.500 1071.777 1080.750 L 1072.053 1066 1052.277 1065.973 L 1032.500 1065.947 1002.806 996.723 L 973.112 927.500 904.949 927.243 L 836.787 926.986 837.525 924.243 C 840.911 911.662, 839.831 907.658, 832 903.768 C 828.975 902.265, 820.425 899.396, 813 897.392 C 805.575 895.388, 799.400 893.668, 799.278 893.569 C 798.772 893.159, 803.170 876.432, 806.564 865.858 C 816.232 835.740, 830.880 806.626, 847.426 784.642 C 857.326 771.487, 874.734 752.217, 898.141 728.500 C 920.291 706.057, 921.006 705.442, 927.670 703.092 C 950.041 695.206, 988.612 677.458, 1012.460 664.079 C 1056.334 639.463, 1093.574 610.021, 1119.979 579.073 C 1164.686 526.675, 1196.105 467.233, 1214.916 399.461 C 1228.130 351.854, 1234.661 291.910, 1232.100 241.750 C 1230.179 204.129, 1227.313 184.185, 1218.880 149.750 L 1213.798 129 1057.899 129 C 940.048 129, 902 129.284, 902 130.163 C 902 131.045, 865.205 131.167, 749.750 130.666 C 307.560 128.749, 184.081 128.622, 183.561 130.086 M 254.219 218.750 C 252.930 221.888, 253.405 284.736, 254.803 296 C 262.441 357.563, 280.109 406.077, 311.797 452.496 C 327.117 474.939, 341.644 491.523, 358 505.240 C 369.018 514.481, 386.212 527, 387.887 527 C 388.559 527, 388.834 526.064, 388.549 524.750 C 387.852 521.548, 386.147 499.485, 385.014 479 C 382.791 438.819, 381.757 384.510, 381.668 303.250 L 381.574 217 318.256 217 C 258.893 217, 254.892 217.109, 254.219 218.750 M 1040.101 312.250 C 1040.118 437.565, 1037.922 502.199, 1032.347 540.500 L 1031.764 544.500 1041.468 535 C 1063.900 513.038, 1085.539 482.409, 1102.932 448 C 1124.354 405.622, 1136.277 365.093, 1142.648 313 C 1144.604 297.012, 1145.239 242.204, 1143.660 225.750 L 1142.820 217 1091.455 217 L 1040.089 217 1040.101 312.250 M 721 227 C 679.312 230.197, 639.155 244.859, 598.743 271.639 C 551.671 302.832, 521.731 338.541, 507.972 379.901 C 501.924 398.078, 500.546 407.408, 500.573 430 C 500.597 450.633, 501.584 458.483, 506.562 477.641 C 514.663 508.822, 535.844 549.285, 559.165 578.136 L 566.368 587.047 569.934 583.717 C 572.744 581.092, 603.800 551.675, 620.417 535.897 L 623.334 533.127 620.622 524.613 C 615.082 507.221, 613.619 497.167, 613.623 476.500 C 613.626 459.050, 613.845 456.690, 616.301 447.571 C 626.279 410.529, 651.299 386.973, 697.636 370.995 C 704.138 368.753, 715.092 365.712, 721.979 364.236 C 733.595 361.747, 736.235 361.553, 758.500 361.556 C 779.577 361.558, 783.738 361.829, 792.664 363.781 C 806.228 366.746, 819.507 371.165, 830.498 376.372 L 839.531 380.651 877.516 346.290 C 898.407 327.391, 916.387 311.045, 917.470 309.966 C 919.430 308.014, 919.408 307.970, 913.470 301.910 C 892.271 280.274, 853.369 255.370, 821 242.712 C 788.930 230.172, 753.083 224.539, 721 227 M 730.176 382.074 C 689.265 387.384, 651.227 416.255, 638.711 451.500 C 629.770 476.675, 634.028 502.220, 651.077 525.685 C 658.744 536.238, 661.182 541.808, 661.778 550.135 C 662.750 563.725, 655.344 578.623, 640.386 593.170 C 631.736 601.582, 628.509 604.320, 622.518 608.333 C 619.864 610.110, 619.140 611, 620.348 611 C 621.345 611, 641.250 605.967, 664.581 599.815 L 707 588.630 707 573.527 L 707 558.425 720.750 555.066 C 728.313 553.219, 734.983 551.530, 735.573 551.314 C 736.204 551.083, 738.845 558.462, 741.978 569.211 C 744.910 579.270, 747.587 587.826, 747.928 588.223 C 748.769 589.206, 883.308 645.079, 884.056 644.756 C 884.796 644.436, 848.559 530.135, 847.368 529.033 C 846.891 528.592, 832.212 524.952, 814.750 520.944 L 783 513.658 783 498.829 C 783 490.673, 783.337 483.988, 783.750 483.972 C 784.163 483.957, 803.737 487.893, 827.250 492.719 L 870 501.494 870.029 514.997 L 870.059 528.500 884.687 546.259 C 892.733 556.027, 899.442 563.891, 899.597 563.737 C 900.098 563.235, 897.032 529.961, 894.921 513 C 890.823 480.074, 886.167 461.694, 874.275 431.500 C 871.242 423.800, 866.581 413.152, 863.916 407.839 L 859.071 398.178 845.063 402.619 L 831.055 407.060 827.224 404.642 C 800.197 387.580, 759.920 378.214, 730.176 382.074 M 706 432.935 C 692.843 436.952, 684.925 447.456, 684.883 460.950 C 684.847 472.291, 690.581 481.976, 700.500 487.328 C 706.358 490.488, 720.712 490.438, 726.723 487.236 C 740.608 479.840, 746.394 463.377, 740.082 449.221 C 734.475 436.645, 718.638 429.077, 706 432.935 M 1.762 1229.707 C 3.006 1229.946, 4.806 1229.937, 5.762 1229.687 C 6.718 1229.437, 5.700 1229.241, 3.500 1229.252 C 1.300 1229.263, 0.518 1229.468, 1.762 1229.707 M 13.784 1229.738 C 16.689 1229.941, 21.189 1229.939, 23.784 1229.734 C 26.378 1229.528, 24 1229.363, 18.500 1229.365 C 13 1229.368, 10.878 1229.536, 13.784 1229.738 "
          stroke="none"
          fill="black"
          fillRule="evenodd"
        />
      </svg>