 <svg
        xmlns="http://www.w3.org/2000/svg"
        width="35"
        height="40"
        viewBox="0 0 1184 1128"
        version="1.1"
      >
        <path
          d="M 425.009 109.385 C 376.557 128.356, 350.434 139.067, 350.280 140.026 C 350.149 140.837, 357.416 173.900, 366.428 213.500 L 382.814 285.500 359.439 308.965 L 336.064 332.431 269.782 316.095 C 233.327 307.110, 203.161 299.701, 202.746 299.630 C 202.084 299.516, 133 449.532, 133 451.082 C 133 451.414, 162.024 468.069, 197.497 488.093 L 261.995 524.500 261.997 555.190 L 262 585.880 197.480 629.190 C 150.196 660.930, 133.065 672.931, 133.351 674.114 C 133.953 676.601, 192.201 823.408, 192.892 824.179 C 193.226 824.552, 222.750 816.550, 258.500 806.395 C 294.250 796.241, 324.709 787.673, 326.186 787.354 C 328.555 786.844, 332.777 789.987, 362.023 814.034 C 380.257 829.026, 395.355 841.789, 395.574 842.396 C 395.794 843.003, 387.937 873.650, 378.115 910.500 C 368.293 947.350, 360.549 977.828, 360.908 978.229 C 361.515 978.910, 498.987 1036.790, 501.153 1037.277 C 501.698 1037.400, 516.678 1012.300, 534.444 981.500 L 566.745 925.500 611.122 925.240 L 655.500 924.980 687.775 979.833 C 705.526 1010.003, 720.601 1035.375, 721.275 1036.216 C 722.343 1037.550, 731.646 1033.985, 793.966 1008.357 C 833.273 992.193, 865.741 978.637, 866.118 978.234 C 866.495 977.830, 861.240 948.025, 854.441 912 C 847.642 875.975, 841.948 845.490, 841.789 844.255 C 841.570 842.553, 846.534 836.366, 862.350 818.634 L 883.200 795.258 887.350 796.194 C 945.188 809.243, 1017.567 824.810, 1017.779 824.245 C 1017.932 823.835, 1033.501 789.750, 1052.376 748.500 C 1071.251 707.250, 1086.556 673.235, 1086.387 672.910 C 1086.218 672.586, 1058.162 652.813, 1024.040 628.972 L 962 585.623 962.036 555.061 L 962.073 524.500 1024.491 482.727 L 1086.909 440.954 1085.078 436.727 C 1072.102 406.775, 1026.511 302.987, 1025.648 301.436 C 1024.518 299.404, 1023.413 299.627, 955 315.694 C 916.775 324.671, 884.790 331.900, 883.922 331.758 C 881.514 331.364, 841.448 286.067, 841.805 284.142 C 841.972 283.239, 849.338 253.101, 858.174 217.170 C 867.154 180.650, 873.856 151.476, 873.370 151.015 C 872.287 149.990, 723.314 79.994, 722.263 80.017 C 721.844 80.026, 703.725 109.031, 682 144.473 L 642.500 208.912 610.500 208.911 L 578.500 208.910 540.500 144.474 C 516.129 103.149, 501.962 80.071, 501 80.128 C 500.175 80.177, 465.979 93.343, 425.009 109.385 M 591 411.121 C 525.377 418.662, 471.697 463.643, 453.591 526.264 C 448.764 542.956, 447.586 552.086, 447.561 573 C 447.541 589.339, 447.904 594.325, 449.800 603.755 C 463.039 669.608, 510.868 717.779, 577.336 732.203 C 586.089 734.102, 590.555 734.409, 609.500 734.409 C 628.398 734.409, 632.922 734.100, 641.585 732.219 C 657.111 728.848, 670.333 724.212, 683.682 717.459 C 731.564 693.236, 763.364 648.071, 770.553 594.076 C 778.744 532.556, 751.372 471.370, 700.500 437.483 C 668.889 416.427, 628.807 406.777, 591 411.121 M 1.762 1127.707 C 3.006 1127.946, 4.806 1127.937, 5.762 1127.687 C 6.718 1127.437, 5.700 1127.241, 3.500 1127.252 C 1.300 1127.263, 0.518 1127.468, 1.762 1127.707 M 13.784 1127.738 C 16.689 1127.941, 21.189 1127.939, 23.784 1127.734 C 26.378 1127.528, 24 1127.363, 18.500 1127.365 C 13 1127.368, 10.878 1127.536, 13.784 1127.738 "
          stroke="none"
          fill="black"
          fillRule="evenodd"
        />
      </svg>